/* XPM */ 
static const char * datatree_xpm[] = {
"24 24 45 1",
" 	c None",
"!	c black",
"#	c #041A2C",
"$	c #CCE6EC",
"%	c #E4F2F4",
"&	c #84C6D4",
"'	c #3C9EBC",
"(	c #ECF2F4",
")	c #ACDAF4",
"*	c #6CB6D4",
"+	c #3496B4",
",	c #CCE6F4",
"-	c #A4D6F4",
".	c #2C96B4",
"0	c #54AAC4",
"1	c #2C92B4",
"2	c #2492B4",
"3	c #147A94",
"4	c #0C1E34",
"5	c #54626C",
"6	c #04162C",
"7	c #5C5A5C",
"8	c #0C1224",
"9	c #7C7A7C",
":	c #54525C",
";	c #A4A2A4",
"<	c #FCFEFC",
"=	c #FCFAFC",
">	c #E4E6E4",
"?	c #A4A6A4",
"@	c #9C9A9C",
"A	c #0C0A1C",
"B	c #3C3644",
"C	c #74767C",
"D	c #9C9E9C",
"E	c #ECEEF4",
"F	c #DCDADC",
"G	c #B4B6B4",
"H	c #747674",
"I	c #6C6E6C",
"J	c #DCDEDC",
"K	c #CCCACC",
"L	c #7C7674",
"M	c #544E54",
"N	c #4C4E54",
"                        ",
" #######                ",
" #$%&''#                ",
" #%()*+#                ",
" #%,-*.#                ",
" #01223#                ",
" #4#5#66                ",
"    7                   ",
"    7                   ",
"    7      8888888888   ",
"    7999999:;<=>?@99A   ",
"    7BBBBBBCDEEFG?HIA   ",
"    7      :@FJK?@LIA   ",
"    7      8888888888   ",
"    7                   ",
"    7                   ",
"    7      8888888888   ",
"    7999999:;<=>?@99A   ",
"    BMNMMNMCDEEFG?HIA   ",
"           :@FJK?@LIA   ",
"           8888888888   ",
"                        ",
"                        ",
"                        "};