/* XPM */ 
static const char * movie_xpm[] = {
"24 24 35 1",
" 	c None",
"!	c black",
"#	c #83A7D6",
"$	c #719AD0",
"%	c #608ECA",
"&	c #4E81C4",
"'	c #3E73BA",
"(	c #3868A8",
")	c #315B93",
"*	c #2A4E7E",
"+	c #6591CC",
",	c #C2C2C2",
"-	c #B7B7B7",
".	c #6893CD",
"0	c #759CD1",
"1	c #ACACAC",
"2	c #789ED2",
"3	c #C7D7ED",
"4	c #8AABD8",
"5	c #A0A0A0",
"6	c #7BA0D3",
"7	c #E6EEF7",
"8	c #ECF2F9",
"9	c #DAE5F3",
":	c #87A9D7",
";	c #959595",
"<	c #E9F0F8",
"=	c white",
">	c #FCFDFE",
"?	c #DDE7F4",
"@	c #234169",
"A	c #1B3251",
"B	c #132338",
"C	c #D6E3F2",
"D	c #09101A",
"                        ",
"                        ",
"                        ",
"  ##$$%%%&&''(()))**    ",
"  $++++++++++++++++!,   ",
"  %++++++++++++++++!-   ",
"  &+++.0.++++++++++!1   ",
"  '+++2342.++++++++!5   ",
"  (+++6789:.+++++++!;   ",
"  )+++6<=>?42.+++++!;   ",
"  *+++6<==>8942.+++!;   ",
"  @+++6<====>89:.++!;   ",
"  A+++6<======>92++!;   ",
"  B+++6<=====>8C2++!;   ",
"  D+++6<===>8942.++!;   ",
"  !+++6<=>8942.++++!;   ",
"  !+++678942.++++++!;   ",
"  !+++2342.++++++++!;   ",
"  !+++.0.++++++++++!;   ",
"  !++++++++++++++++!;   ",
"  !!!!!!!!!!!!!!!!!!;   ",
"    ,,---1155;;;;;;;    ",
"                        ",
"                        "};