/* XPM */ 
static const char * dartboard_xpm[] = {
"24 24 145 2",
"  	c None",
"! 	c black",
"# 	c #F2F2F2",
"$ 	c #F1F1F1",
"% 	c #F7F7F7",
"& 	c white",
"' 	c #F6F6F6",
"( 	c #F5F5F5",
") 	c #A7A7A7",
"* 	c #606060",
"+ 	c #2E2E2E",
", 	c #191919",
"- 	c #1A1A1A",
". 	c #2F2F2F",
"0 	c #636363",
"1 	c #ABABAB",
"2 	c #FAFAFA",
"3 	c #E7E7E7",
"4 	c #A1A1A1",
"5 	c #282828",
"6 	c #080808",
"7 	c #2C2C2C",
"8 	c #FEFEFE",
"9 	c #FDFDFD",
": 	c #686868",
"; 	c #393939",
"< 	c #969696",
"= 	c #D2D2D2",
"> 	c #EFEFEF",
"? 	c #EEEEEE",
"@ 	c #D0D0D0",
"A 	c #949494",
"B 	c #363636",
"C 	c #707070",
"D 	c #6A6A6A",
"E 	c #090909",
"F 	c #929292",
"G 	c #8E8E8E",
"H 	c #060606",
"I 	c #747474",
"J 	c #A0A0A0",
"K 	c #0E0E0E",
"L 	c #B8B8B8",
"M 	c #898989",
"N 	c #3A3A3A",
"O 	c #0F0F0F",
"P 	c #3B3B3B",
"Q 	c #8C8C8C",
"R 	c #F3F3F3",
"S 	c #B3B3B3",
"T 	c #0B0B0B",
"U 	c #1B1B1B",
"V 	c #9C9C9C",
"W 	c #D9D9D9",
"X 	c #040404",
"Y 	c #030303",
"Z 	c #313131",
"[ 	c #DCDCDC",
"] 	c #959595",
"^ 	c #222222",
"_ 	c #F9F9F9",
"` 	c #909090",
"a 	c #373737",
"b 	c #303030",
"c 	c #DDDDDD",
"d 	c #DBDBDB",
"e 	c #979797",
"f 	c #1D1D1D",
"g 	c #353535",
"h 	c #F4F4F4",
"i 	c #FBFBFB",
"j 	c #323232",
"k 	c #9A9A9A",
"l 	c #454545",
"m 	c #8F8F8F",
"n 	c #858585",
"o 	c #272727",
"p 	c #DEDEDE",
"q 	c #DADADA",
"r 	c #212121",
"s 	c #4F4F4F",
"t 	c #020202",
"u 	c #B9B9B9",
"v 	c #989898",
"w 	c #CBCBCB",
"x 	c #232323",
"y 	c #ECECEC",
"z 	c #EAEAEA",
"{ 	c #101010",
"| 	c #1E1E1E",
"} 	c #262626",
"~ 	c #FCFCFC",
" !	c #DFDFDF",
"!!	c #151515",
"#!	c #0D0D0D",
"$!	c #F0F0F0",
"%!	c #E9E9E9",
"&!	c #0A0A0A",
"'!	c #121212",
"(!	c #E2E2E2",
")!	c #181818",
"*!	c #070707",
"+!	c #010101",
",!	c #CCCCCC",
"-!	c #A6A6A6",
".!	c #AAAAAA",
"0!	c #AFAFAF",
"1!	c #9E9E9E",
"2!	c #C5C5C5",
"3!	c #EDEDED",
"4!	c #444444",
"5!	c #868686",
"6!	c #2D2D2D",
"7!	c #E6E6E6",
"8!	c #808080",
"9!	c #4E4E4E",
":!	c #8D8D8D",
";!	c #414141",
"<!	c #292929",
"=!	c #EBEBEB",
">!	c #252525",
"?!	c #464646",
"@!	c #888888",
"A!	c #424242",
"B!	c #050505",
"C!	c #828282",
"D!	c #1F1F1F",
"E!	c #A2A2A2",
"F!	c #A4A4A4",
"G!	c #545454",
"H!	c #565656",
"I!	c #9D9D9D",
"J!	c #646464",
"K!	c #777777",
"L!	c #737373",
"M!	c #6E6E6E",
"N!	c #626262",
"O!	c #7B7B7B",
"P!	c #B5B5B5",
"Q!	c #D4D4D4",
"R!	c #B4B4B4",
"S!	c #797979",
"T!	c #242424",
"U!	c #5A5A5A",
"V!	c #5D5D5D",
"                      # $                       ",
"              % & & & ' ' & & & (               ",
"            & % ) * + , - . 0 1 2 & 3           ",
"        & & 4 5 ! ! ! 6 6 ! ! ! 7 ) & 8         ",
"      & 9 : ! ! ; < = > ? @ A B ! ! C & &       ",
"      & D ! E F & & & ( ( & & & G H ! I & $     ",
"    & J ! K L & $ M N O O P Q R & S T ! 1 &     ",
"    ? U ! V & W + ! ! X Y ! ! Z [ & ] ! ^ R _   ",
"  & ` ! a 8 $ b ! ^ V c d e f ! g h i j ! k &   ",
"  & l ! m & n ! o p & & & & q r ! Q & M ! s &   ",
"% ' , t = 8 . ! 4 & S . Z u & v ! B & w ! x 2 y ",
"& z E T $ % { H 3 2 | ! ! } ~  !Y !!_ y 6 #!$!& ",
"& %!6 &!> % '!H %!2 - ! ! r ~ (!Y )!2 z *!#!$!& ",
"% ' )!+!,!& g ! -!& .!r x 0!& 1!! P & 2!! x 2 3!",
"  & 4!! 5!& A ! 6!7!& 2 i & (!o ! k & 8!! 9!&   ",
"  & :!! 6!_ % ;!! <!.!=!z -!>!! ?!2 ' 5 ! v &   ",
"R ~ y )!! @!& 7!A!! ! B!B!! ! ?!%!& C!! D!$     ",
"    & V ! H E!& & F!G!o 5 H!-!& & I!X ! -!&     ",
"    ' & J!! ! K!> & & & & & & 3!L!! ! M!& #     ",
"      & 2 N!! ! x O!P!Q!Q!R!S!r ! ! D 8 &       ",
"        & & k T!! ! ! +!+!! ! ! 5 J & &         ",
"          y & R 4 U!o '!'!<!V!F!' &             ",
"              i & & ~ R R ~ & & _               ",
"                      2 _                       "};