/* XPM */ 
static const char * greenled_xpm[] = {
"22 20 194 2",
"  	c None",
"! 	c white",
"# 	c #FDFDFB",
"$ 	c #CAC8C0",
"% 	c #BBBAB6",
"& 	c #AFAFAE",
"' 	c #ACACAC",
"( 	c #BAB9B5",
") 	c #DAD8CD",
"* 	c #B1B1B0",
"+ 	c #B0B0B0",
", 	c #AFAFAF",
"- 	c #C3C2BC",
". 	c #B2B2B2",
"0 	c #B3B3B3",
"1 	c #A9A9A9",
"2 	c #969696",
"3 	c #8D8D8D",
"4 	c #768074",
"5 	c #979797",
"6 	c #C4C4BE",
"7 	c #B7B7B7",
"8 	c #B5B5B5",
"9 	c #9A9A9A",
": 	c #6B7D68",
"; 	c #75A06E",
"< 	c #9ABE94",
"= 	c #B6D1B2",
"> 	c #99BD93",
"? 	c #739E6B",
"@ 	c #6C7E69",
"A 	c #9B9B9B",
"B 	c #EBEAE2",
"C 	c #B9B9B9",
"D 	c #B8B8B8",
"E 	c #8B8C8B",
"F 	c #6B9165",
"G 	c #C5DCC2",
"H 	c #E9F1E8",
"I 	c #C3DABE",
"J 	c #699063",
"K 	c #8E8F8E",
"L 	c #BCBCBB",
"M 	c #BDBDBD",
"N 	c #A0A0A0",
"O 	c #628C5A",
"P 	c #C1DABC",
"Q 	c #D1E4CD",
"R 	c #D0E3CD",
"S 	c #BED9B9",
"T 	c #648E5C",
"U 	c #A3A3A3",
"V 	c #BEBEBE",
"W 	c #DBD9D2",
"X 	c #C1C1C1",
"Y 	c #788A74",
"Z 	c #76B16B",
"[ 	c #BFDBB9",
"] 	c #BFDAB9",
"^ 	c #BEDAB8",
"_ 	c #BDD9B7",
"` 	c #73AF68",
"a 	c #7B8E78",
"b 	c #CBCAC6",
"c 	c #C4C4C4",
"d 	c #A6A6A6",
"e 	c #529345",
"f 	c #8DC182",
"g 	c #AFD3A7",
"h 	c #AED3A6",
"i 	c #ADD2A5",
"j 	c #88BE7D",
"k 	c #529245",
"l 	c #CDCCC8",
"m 	c #C8C8C6",
"n 	c #C8C8C8",
"o 	c #A1A1A1",
"p 	c #4B9F39",
"q 	c #76B867",
"r 	c #A1CE97",
"s 	c #A0CE96",
"t 	c #9FCE95",
"u 	c #9FCD95",
"v 	c #72B664",
"w 	c #499D38",
"x 	c #A5A5A5",
"y 	c #CACACA",
"z 	c #CBCBCB",
"{ 	c #919C8F",
"| 	c #50AA3B",
"} 	c #5AAF48",
"~ 	c #92CA86",
" !	c #94CB88",
"!!	c #94CA87",
"#!	c #93CA87",
"$!	c #90C984",
"%!	c #59AE46",
"&!	c #4EA939",
"'!	c #97A295",
"(!	c #CCCCCC",
")!	c #CECECE",
"*!	c #98A295",
"+!	c #5AB545",
",!	c #69BB56",
"-!	c #89CA79",
".!	c #8BCB7B",
"0!	c #8ACA7B",
"1!	c #89CA7B",
"2!	c #87C978",
"3!	c #66BA52",
"4!	c #59B443",
"5!	c #9DA89B",
"6!	c #CFCFCF",
"7!	c #CDCDCD",
"8!	c #D1D1CF",
"9!	c #D2D2D2",
":!	c #6ABD55",
";!	c #65C04E",
"<!	c #68C151",
"=!	c #75C661",
">!	c #7ECA6B",
"?!	c #81CB6F",
"@!	c #7CC96A",
"A!	c #74C55F",
"B!	c #66C04F",
"C!	c #64BF4D",
"D!	c #69BC54",
"E!	c #D9D8D4",
"F!	c #D5D5D5",
"G!	c #BCBCBC",
"H!	c #80C16F",
"I!	c #70CB58",
"J!	c #6FCB58",
"K!	c #6FCA58",
"L!	c #6FCA57",
"M!	c #6ECA57",
"N!	c #81C271",
"O!	c #C0C0C0",
"P!	c #D6D6D6",
"Q!	c #DBDBD6",
"R!	c #E9E7E1",
"S!	c #D9D9D9",
"T!	c #D1D1D1",
"U!	c #A5B8A0",
"V!	c #7AD562",
"W!	c #7AD662",
"X!	c #7AD561",
"Y!	c #79D561",
"Z!	c #79D461",
"[!	c #A9BBA4",
"]!	c #DBDBDA",
"^!	c #DCDCDC",
"_!	c #C7C7C7",
"`!	c #9DCB90",
"a!	c #85E16C",
"b!	c #85E06B",
"c!	c #84E06B",
"d!	c #9FCD93",
"e!	c #FCFCFA",
"f!	c #DEDEDE",
"g!	c #DFDFDF",
"h!	c #C3C4C2",
"i!	c #A6D499",
"j!	c #90E975",
"k!	c #90EB75",
"l!	c #8FEB75",
"m!	c #90EA76",
"n!	c #A8D69B",
"o!	c #C7C8C6",
"p!	c #E6E6E1",
"q!	c #E3E3E3",
"r!	c #E2E2E2",
"s!	c #BCCEB6",
"t!	c #A6E893",
"u!	c #9DF285",
"v!	c #9AF67F",
"w!	c #BCCFB7",
"x!	c #D4D4D4",
"y!	c #E8E7E3",
"z!	c #E4E4E4",
"{!	c #E6E6E6",
"|!	c #C5D0C2",
"}!	c #E0E0E0",
"~!	c #E7E7E7",
" #	c #E5E5E5",
"!#	c #F9F8F5",
"##	c #E9E9E8",
"$#	c #EAEAEA",
"%#	c #FEFEFE",
"&#	c #F4F4EF",
"'#	c #ECEBE7",
"(#	c #EAE9E8",
")#	c #EBEBEB",
"*#	c #EBEAE6",
"! ! ! ! ! ! # $ % & ' ' & ( $ # ! ! ! ! ! ! ",
"! ! ! ! ! ) * + + + , , + + + * ) ! ! ! ! ! ",
"! ! ! ! - . 0 1 2 3 4 4 3 5 1 0 . - ! ! ! ! ",
"! ! ! 6 7 8 9 : ; < = = > ? @ A 8 7 6 ! ! ! ",
"! ! B C D E F G H H H H H H I J K D C B ! ! ",
"! # L M N O P Q Q Q Q Q R R R S T U V V # ! ",
"! W X 8 Y Z [ ] ] ] ^ ^ ^ ^ ^ _ ` a 7 X W ! ",
"! b c d e f g g g h h h h h i i j k 1 c l ! ",
"! m n o p q r r s s s s t u u u v w x n m ! ",
"! y z { | } ~  ! ! ! ! !!!!!#!$!%!&!'!z y ! ",
"! (!)!*!+!+!,!-!.!.!.!0!1!1!2!3!4!4!5!6!7!! ",
"! 8!9!, :!;!;!<!=!>!?!?!@!A!B!C!C!D!0 9!8!! ",
"! E!F!G!H!I!I!J!J!J!K!K!L!L!L!L!M!N!O!P!Q!! ",
"! R!S!T!U!V!W!W!W!V!X!X!X!X!Y!Y!Z![!T!S!R!! ",
"! # ]!^!_!`!a!a!b!b!b!b!c!c!c!c!d!z ^!]!# ! ",
"! ! e!f!g!h!i!j!k!k!l!l!l!l!m!n!o!g!f!e!! ! ",
"! ! ! p!q!r!9!s!t!u!v!v!u!t!w!x!r!q!p!! ! ! ",
"! ! ! ! y!z!{!g!F!6!|!|!6!F!}!~! #y!! ! ! ! ",
"! ! ! ! ! !###$#$#$#$#$#$#$#$###!#! ! ! ! ! ",
"! ! ! ! ! ! %#&#'#(#)#)#(#*#&#%#! ! ! ! ! ! "};
