/* XPM */ 
static const char * orangeled_xpm[] = {
"22 20 191 2",
"  	c None",
"! 	c white",
"# 	c #FDFDFB",
"$ 	c #CAC6C2",
"% 	c #BBB9B7",
"& 	c #AFAFAE",
"' 	c #ACACAC",
"( 	c #BAB8B6",
") 	c #DAD6D0",
"* 	c #B1B1B0",
"+ 	c #B0B0B0",
", 	c #AFAFAF",
"- 	c #C3C1BD",
". 	c #B2B2B2",
"0 	c #B3B3B3",
"1 	c #A9A9A9",
"2 	c #969696",
"3 	c #8D8D8D",
"4 	c #797C73",
"5 	c #979797",
"6 	c #C4C2BF",
"7 	c #B7B7B7",
"8 	c #B5B5B5",
"9 	c #9A9A9A",
": 	c #737567",
"; 	c #9A8368",
"< 	c #B3A690",
"= 	c #C4C3B0",
"> 	c #B2A58F",
"? 	c #997F65",
"@ 	c #747668",
"A 	c #9B9B9B",
"B 	c #EBE8E4",
"C 	c #B9B9B9",
"D 	c #B8B8B8",
"E 	c #8B8C8B",
"F 	c #887760",
"G 	c #D0D1C1",
"H 	c #EBEFE8",
"I 	c #CECCBC",
"J 	c #87765E",
"K 	c #8E8F8E",
"L 	c #BCBCBB",
"M 	c #BDBDBD",
"N 	c #A0A0A0",
"O 	c #876E54",
"P 	c #CECBBA",
"Q 	c #D9DACC",
"R 	c #D8DACC",
"S 	c #CDC9B7",
"T 	c #897056",
"U 	c #A3A3A3",
"V 	c #BEBEBE",
"W 	c #DBD7D4",
"X 	c #C1C1C1",
"Y 	c #808073",
"Z 	c #BA8F5A",
"[ 	c #D0C9B7",
"] 	c #CECAB7",
"^ 	c #CFC8B6",
"_ 	c #CEC7B5",
"` 	c #B78C57",
"a 	c #838577",
"b 	c #CBC9C7",
"c 	c #C4C4C4",
"d 	c #A6A6A6",
"e 	c #A4732E",
"f 	c #C29D77",
"g 	c #CAB8A2",
"h 	c #CAB8A1",
"i 	c #C9B7A0",
"j 	c #C19A70",
"k 	c #A3732E",
"l 	c #CDCBC9",
"m 	c #C8C8C6",
"n 	c #C8C8C8",
"o 	c #A1A1A1",
"p 	c #BD7F16",
"q 	c #CB964F",
"r 	c #C8AC90",
"s 	c #CBAC8E",
"t 	c #CBAC8D",
"u 	c #CAAB8D",
"v 	c #C9954C",
"w 	c #BA7F18",
"x 	c #A5A5A5",
"y 	c #CACACA",
"z 	c #CBCBCB",
"{ 	c #94988E",
"| 	c #CD8314",
"} 	c #D18C24",
"~ 	c #CFA678",
" !	c #D0A77A",
"!!	c #D0A678",
"#!	c #CFA679",
"$!	c #CEA574",
"%!	c #D08B22",
"&!	c #CD8212",
"'!	c #9A9E94",
"(!	c #CCCCCC",
")!	c #CECECE",
"*!	c #9B9D94",
"+!	c #DB8D1E",
",!	c #DC9833",
"-!	c #DDA761",
".!	c #DBA665",
"0!	c #D9A665",
"1!	c #DCA760",
"2!	c #DD952D",
"3!	c #DA8A1B",
"4!	c #A0A49A",
"5!	c #CFCFCF",
"6!	c #CDCDCD",
"7!	c #D1D1CF",
"8!	c #D2D2D2",
"9!	c #E09730",
":!	c #E89726",
";!	c #E7972A",
"<!	c #E7A13E",
"=!	c #E7A64B",
">!	c #E6A851",
"?!	c #E6A74A",
"@!	c #E79D3B",
"A!	c #E69527",
"B!	c #E79625",
"C!	c #DF962F",
"D!	c #D9D7D5",
"E!	c #D5D5D5",
"F!	c #BCBCBC",
"G!	c #D49D57",
"H!	c #F3A130",
"I!	c #F2A130",
"J!	c #F2A02F",
"K!	c #D59F59",
"L!	c #C0C0C0",
"M!	c #D6D6D6",
"N!	c #DBDAD7",
"O!	c #E9E6E3",
"P!	c #D9D9D9",
"Q!	c #D1D1D1",
"R!	c #AEAD9F",
"S!	c #FAAA3A",
"T!	c #FCAD3A",
"U!	c #FBAA39",
"V!	c #FBAC39",
"W!	c #F9A939",
"X!	c #B1B1A3",
"Y!	c #DBDBDA",
"Z!	c #DCDCDC",
"[!	c #C7C7C7",
"]!	c #CAA687",
"^!	c #FEB54B",
"_!	c #FEB14A",
"`!	c #FEB449",
"a!	c #CBA98A",
"b!	c #FCFCFA",
"c!	c #DEDEDE",
"d!	c #DFDFDF",
"e!	c #C3C4C2",
"f!	c #D3AF90",
"g!	c #FEB95C",
"h!	c #FEBB5B",
"i!	c #FEBC5A",
"j!	c #FEBC5C",
"k!	c #D5B192",
"l!	c #C7C8C6",
"m!	c #E6E5E2",
"n!	c #E3E3E3",
"o!	c #E2E2E2",
"p!	c #C5C3B5",
"q!	c #FBC27A",
"r!	c #FEC66F",
"s!	c #FEC66D",
"t!	c #C5C4B6",
"u!	c #D4D4D4",
"v!	c #E8E6E4",
"w!	c #E4E4E4",
"x!	c #E6E6E6",
"y!	c #C9CBC1",
"z!	c #E0E0E0",
"{!	c #E7E7E7",
"|!	c #E5E5E5",
"}!	c #F9F7F6",
"~!	c #E9E9E8",
" #	c #EAEAEA",
"!#	c #FEFEFE",
"##	c #F4F3F0",
"$#	c #ECEAE8",
"%#	c #EAE9E8",
"&#	c #EBEBEB",
"'#	c #EBE9E7",
"! ! ! ! ! ! # $ % & ' ' & ( $ # ! ! ! ! ! ! ",
"! ! ! ! ! ) * + + + , , + + + * ) ! ! ! ! ! ",
"! ! ! ! - . 0 1 2 3 4 4 3 5 1 0 . - ! ! ! ! ",
"! ! ! 6 7 8 9 : ; < = = > ? @ A 8 7 6 ! ! ! ",
"! ! B C D E F G H H H H H H I J K D C B ! ! ",
"! # L M N O P Q Q Q Q Q R R R S T U V V # ! ",
"! W X 8 Y Z [ ] ] ] ^ ^ ^ ^ ^ _ ` a 7 X W ! ",
"! b c d e f g g g h h h h h i i j k 1 c l ! ",
"! m n o p q r r s s s s t u u u v w x n m ! ",
"! y z { | } ~  ! ! ! ! !!!!!#!$!%!&!'!z y ! ",
"! (!)!*!+!+!,!-!.!.!.!0!0!0!1!2!3!3!4!5!6!! ",
"! 7!8!, 9!:!:!;!<!=!>!>!?!@!A!B!B!C!0 8!7!! ",
"! D!E!F!G!H!H!H!H!H!I!I!J!J!J!J!J!K!L!M!N!! ",
"! O!P!Q!R!S!T!T!T!S!U!U!U!U!V!V!W!X!Q!P!O!! ",
"! # Y!Z![!]!^!^!_!_!_!_!`!`!`!`!a!z Z!Y!# ! ",
"! ! b!c!d!e!f!g!h!h!i!i!i!i!j!k!l!d!c!b!! ! ",
"! ! ! m!n!o!8!p!q!r!s!s!r!q!t!u!o!n!m!! ! ! ",
"! ! ! ! v!w!x!d!E!5!y!y!5!E!z!{!|!v!! ! ! ! ",
"! ! ! ! ! }!~! # # # # # # # #~!}!! ! ! ! ! ",
"! ! ! ! ! ! !###$#%#&#&#%#'###!#! ! ! ! ! ! "};
