/* XPM */
static const char * tick_xpm[] = {
"16 16 5 1",
" 	c None",
".	c #000000",
"+	c #3FAF23",
"@	c #48C928",
"#	c #379B1F",
"                ",
"                ",
"              . ",
"             .+.",
"            .@+.",
"           .@+#.",
" .        .@+#. ",
".+.      .++#.  ",
".+@.    .+++.   ",
".#+@.  .@++.    ",
" .#+@..@++.     ",
"  .#++@+#.      ",
"   .+++#.       ",
"    .+#.        ",
"     ..         ",
"                "};
