/* XPM */ 
static const char * unchecked_xpm[] = {
"13 13 19 1",
" 	c None",
"!	c #1C5180",
"#	c #DCDCD7",
"$	c #DEDED9",
"%	c #E0E0DB",
"&	c #E2E2DE",
"'	c #E5E5E2",
"(	c #E8E8E5",
")	c #ECECE9",
"*	c #EFEFEC",
"+	c #F1F1EF",
",	c #F3F3F1",
"-	c #F5F5F4",
".	c #F7F7F6",
"0	c #F9F9F8",
"1	c #FBFBFA",
"2	c #FDFDFC",
"3	c #FEFEFE",
"4	c white",
"!!!!!!!!!!!!!",
"!###$%&'()*+!",
"!##$%&'()*+,!",
"!#$%&'()*+,-!",
"!$%&'()*+,-.!",
"!%&'()*+,-.0!",
"!&'()*+,-.01!",
"!'()*+,-.012!",
"!()*+,-.0123!",
"!)*+,-.01234!",
"!*+,-.012344!",
"!+,-.0123444!",
"!!!!!!!!!!!!!"};
