/* XPM */ 
static const char * move_single_plane_cursor_xpm[] = {
"32 32 6 1",
" 	c None",
"!	c #000400",
"#	c black",
"$	c #FFFFF7",
"%	c #F7FFF7",
"&	c white",
"!#                              ",
"!$#                             ",
"#%&!                            ",
"!&&&#                           ",
"!&%&%#                          ",
"#$&$&$#                         ",
"#&&$&%&!                        ",
"!&%&%&%&!                       ",
"#$&&&$&&%#                      ",
"#%&$&&!##!                      ",
"!&&!&$!                         ",
"#&! !&&!                        ",
"#!  #&%#                        ",
"     #&&#                       ",
"     !$&!                       ",
"      #!              ####      ",
"                     #&&&&#     ",
"                      #&&&#     ",
"                     #&#&&#     ",
"                    #&# #&#     ",
"                   #&#   #      ",
"                  #&#           ",
"               # #&#            ",
"              #&#&#             ",
"              #&&#              ",
"              #&&&#             ",
"              #&&&&#            ",
"               ####             ",
"                                ",
"                                ",
"                                ",
"                                "};