/* XPM */ 
static const char * pacs_xpm[] = {
"24 24 315 2",
"  	c None",
"! 	c black",
"# 	c #C85967",
"$ 	c #CC6975",
"% 	c #CD707A",
"& 	c #CD6F7B",
"' 	c #CD707B",
"( 	c #CD6F7A",
") 	c #CC6C77",
"* 	c #C95C6A",
"+ 	c #C56571",
", 	c #EB7986",
"- 	c #F0808D",
". 	c #F3909B",
"0 	c #F496A2",
"1 	c #F599A3",
"2 	c #F69AA4",
"3 	c #F699A3",
"4 	c #F597A2",
"5 	c #F3919D",
"6 	c #F0838F",
"7 	c #EF7A87",
"8 	c #CD6A76",
"9 	c #C66774",
": 	c #E46C79",
"; 	c #C43041",
"< 	c #BB3B49",
"= 	c #B13C49",
"> 	c #A73B47",
"? 	c #9D3A45",
"@ 	c #A23A46",
"A 	c #AD3B48",
"B 	c #B83B49",
"C 	c #BF2F40",
"D 	c #DE5968",
"E 	c #D06F7C",
"F 	c #C56370",
"G 	c #E87B87",
"H 	c #D86E7A",
"I 	c #D47882",
"J 	c #CD7982",
"K 	c #C77781",
"L 	c #C1777F",
"M 	c #C47780",
"N 	c #CC7982",
"O 	c #D27982",
"P 	c #D56F7A",
"Q 	c #E77783",
"R 	c #CE6B78",
"S 	c #C46370",
"T 	c #E77683",
"U 	c #D15966",
"V 	c #CB606C",
"W 	c #C35F6B",
"X 	c #BB5D68",
"Y 	c #B45D67",
"Z 	c #B85D68",
"[ 	c #C05F69",
"] 	c #C8606C",
"^ 	c #CD5967",
"_ 	c #E46E7C",
"` 	c #C2626F",
"a 	c #E4707D",
"b 	c #C84756",
"c 	c #BF4D5A",
"d 	c #B54B58",
"e 	c #AB4A55",
"f 	c #A24953",
"g 	c #A74954",
"h 	c #B24B57",
"i 	c #BC4D59",
"j 	c #C34755",
"k 	c #E06573",
"l 	c #CD6A77",
"m 	c #C05E6B",
"n 	c #EA7885",
"o 	c #EA7F8A",
"p 	c #E98792",
"q 	c #E88691",
"r 	c #E78691",
"s 	c #E58691",
"t 	c #E68691",
"u 	c #E9818D",
"v 	c #EE7B88",
"w 	c #C96471",
"x 	c #BF5F6C",
"y 	c #EA6D7B",
"z 	c #E9596A",
"{ 	c #EB6776",
"| 	c #EB6675",
"} 	c #E95C6C",
"~ 	c #ED6675",
" !	c #C96672",
"!!	c #1A1A1A",
"#!	c #3C3C3C",
"$!	c #424242",
"%!	c #434343",
"&!	c #303030",
"'!	c #191415",
"(!	c #201718",
")!	c #322727",
"*!	c #4F4545",
"+!	c #393032",
",!	c #211719",
"-!	c #221819",
".!	c #1C1213",
"0!	c #433939",
"1!	c #6B6161",
"2!	c #5E5455",
"3!	c #2D2425",
"4!	c #1A1415",
"5!	c #121010",
"6!	c #3C3B3B",
"7!	c #656565",
"8!	c #545352",
"9!	c #1D1D1C",
":!	c #111010",
";!	c #343434",
"<!	c #F5F5F5",
"=!	c #EFF0F0",
">!	c #E3E4E3",
"?!	c #FAFAFA",
"@!	c #909090",
"A!	c #040505",
"B!	c #B0AFAF",
"C!	c white",
"D!	c #CACECE",
"E!	c #121313",
"F!	c #0E0E0E",
"G!	c #8B8B8A",
"H!	c #F9FAFA",
"I!	c #D1D5D7",
"J!	c #E9EBEB",
"K!	c #E8E8E8",
"L!	c #303031",
"M!	c #828282",
"N!	c #EFF2F2",
"O!	c #A8ACAE",
"P!	c #DEE0E0",
"Q!	c #E1E1E0",
"R!	c #282929",
"S!	c #353534",
"T!	c #8D9394",
"U!	c #020405",
"V!	c #C7C6C5",
"W!	c #E9E9EB",
"X!	c #373A3C",
"Y!	c #F2F2F1",
"Z!	c #CCD1D1",
"[!	c #FAFCFC",
"]!	c #48494B",
"^!	c #3E3F3E",
"_!	c #B3B8B8",
"`!	c #020806",
"a!	c #3A3D3C",
"b!	c #B6BBBB",
"c!	c #616669",
"d!	c #D0D0D0",
"e!	c #E9E9E9",
"f!	c #47494A",
"g!	c #878B8C",
"h!	c #2E3031",
"i!	c #353433",
"j!	c #FBFCFA",
"k!	c #D5D8D7",
"l!	c #A6A5A4",
"m!	c #F7F6F5",
"n!	c #C1C5C8",
"o!	c #868789",
"p!	c #FBFFFC",
"q!	c #3F4545",
"r!	c #E7E7E7",
"s!	c #A7A8AA",
"t!	c #5E5E60",
"u!	c #7A7F80",
"v!	c #060604",
"w!	c #0D0D0D",
"x!	c #686767",
"y!	c #F0F1F0",
"z!	c #F0EFF0",
"{!	c #A8A8A9",
"|!	c #272728",
"}!	c #FBFBFA",
"~!	c #D9DCDB",
" #	c #AAADAE",
"!#	c #929798",
"##	c #404448",
"$#	c #D4D4D4",
"%#	c #FDFEFD",
"&#	c #C0C1C2",
"'#	c #E6E6E7",
"(#	c #68696B",
")#	c #999C9D",
"*#	c #2B2B2B",
"+#	c #A3A1A1",
",#	c #6B6C6E",
"-#	c #525356",
".#	c #5B5E5E",
"0#	c #4A4E4E",
"1#	c #9D9D9D",
"2#	c #828586",
"3#	c #353535",
"4#	c #8C9292",
"5#	c #595959",
"6#	c #9FA4A6",
"7#	c #595B5D",
"8#	c #898A8C",
"9#	c #838688",
":#	c #AAABAC",
";#	c #A4A6A5",
"<#	c #CFD0CE",
"=#	c #565C5F",
">#	c #C9C8CA",
"?#	c #EAEBEB",
"@#	c #676867",
"A#	c #A1A19F",
"B#	c #525959",
"C#	c #232223",
"D#	c #828182",
"E#	c #4D5251",
"F#	c #0F0F0F",
"G#	c #0F0E0F",
"H#	c #555153",
"I#	c #8A8686",
"J#	c #302529",
"K#	c #0F0206",
"L#	c #271A1D",
"M#	c #857B7E",
"N#	c #655E61",
"O#	c #1B1213",
"P#	c #716669",
"Q#	c #B4A9AB",
"R#	c #A2999D",
"S#	c #4B454A",
"T#	c #130E0E",
"U#	c #87898B",
"V#	c #B2B4B7",
"W#	c #A1A5A8",
"X#	c #484E51",
"Y#	c #10100F",
"Z#	c #944750",
"[#	c #C64C5A",
"]#	c #B61426",
"^#	c #B7182A",
"_#	c #B51225",
"`#	c #C63C4C",
"a#	c #A14F58",
"b#	c #8F444D",
"c#	c #C14B58",
"d#	c #B11325",
"e#	c #B21729",
"f#	c #B01124",
"g#	c #C13B4A",
"h#	c #9C4C55",
"i#	c #8A404B",
"j#	c #BC4A57",
"k#	c #AA1223",
"l#	c #AB1627",
"m#	c #A91022",
"n#	c #BC3B4A",
"o#	c #974953",
"p#	c #843E46",
"q#	c #B74A56",
"r#	c #A41122",
"s#	c #A51526",
"t#	c #A71627",
"u#	c #A00719",
"v#	c #A61324",
"w#	c #A30F21",
"x#	c #B63B49",
"y#	c #91474F",
"z#	c #7E3A43",
"{#	c #B34955",
"|#	c #9E1121",
"}#	c #9F1525",
"~#	c #A01525",
" $	c #960D1C",
"!$	c #C5747D",
"#$	c #9D202E",
"$$	c #9F1424",
"%$	c #9D0F20",
"&$	c #B23A48",
"'$	c #8C444D",
"($	c #78373F",
")$	c #AD4753",
"*$	c #960C1C",
"+$	c #971020",
",$	c #991020",
"-$	c #8A0B19",
".$	c #8C424B",
"0$	c #891522",
"1$	c #981020",
"2$	c #940A1A",
"3$	c #AB3745",
"4$	c #8B434C",
"5$	c #58292F",
"6$	c #B3515C",
"7$	c #9D2432",
"8$	c #9E2735",
"9$	c #9E2836",
":$	c #971E2C",
";$	c #9D2634",
"<$	c #9C2331",
"=$	c #AF4551",
">$	c #7C3D45",
"?$	c #4F2228",
"@$	c #81444C",
"A$	c #7F464E",
"B$	c #80464E",
"C$	c #672F36",
"D$	c #502127",
"E$	c #66343B",
"F$	c #62363D",
"G$	c #61343B",
"H$	c #622931",
"          # $ % & & ' ' ' ' & ( ) *             ",
"          + , - . 0 1 2 3 4 5 6 7 8             ",
"          9 : ; < = > ? @ A B C D E             ",
"          F G H I J K L M N O P Q R             ",
"          S T U V W X Y Z [ ] ^ _ R             ",
"          ` a b c d e f g h i j k l             ",
"          m n o p q r s t q p u v w             ",
"          x y z { | | | | | { } ~  !            ",
"!!#!$!%!&!'!(!)!*!+!,!-!.!0!1!2!3!4!5!6!7!8!9!:!",
";!<!=!>!?!@!A!B!C!D!E!F!G!H!I!J!K!L!M!N!O!P!Q!R!",
"S!C!T!U!V!W!X!Y!Z![!]!^!C!_!`!a!b!c!d!e!$!f!g!h!",
"i!j!k!l!m!n!o!p!q!r!s!t!C!u!v!w!! ! x!y!C!z!{!|!",
";!}!~! #!###$#%#&#<!'#(#C!)#! *#+#,#-#.#0#1#C!2#",
"3#C!4#! ! 5#C!6#7#8#C!9#:#?!;#<#C!=#>#?#@#A#C!B#",
"C#D#E#F#G#H#I#J#K#L#M#N#O#P#Q#R#S#T#C#U#V#W#X#Y#",
"          Z#[#]#^#^#^#^#^#^#^#_#`#a#            ",
"          b#c#d#e#e#e#e#e#e#e#f#g#h#            ",
"          i#j#k#l#l#l#l#l#l#l#m#n#o#            ",
"          p#q#r#s#s#t#u#v#s#s#w#x#y#            ",
"          z#{#|#}#~# $!$#$$$}#%$&$'$            ",
"          ($)$*$+$,$-$.$0$1$+$2$3$4$            ",
"          5$6$7$8$8$9$:$;$8$8$<$=$>$            ",
"          ?$@$A$A$A$A$A$A$A$A$A$B$C$            ",
"          D$E$F$F$F$F$F$F$F$F$F$G$H$            "};