/* XPM */ 
static const char * workingareaconfig_xpm[] = {
"24 24 245 2",
"  	c None",
"! 	c black",
"# 	c #050505",
"$ 	c #131313",
"% 	c #010101",
"& 	c #1F1F1F",
"' 	c #707070",
"( 	c #D1D1D1",
") 	c #7D7D7D",
"* 	c #0D0D0D",
"+ 	c #171717",
", 	c #CCCCCC",
"- 	c #585858",
". 	c #040404",
"0 	c #686868",
"1 	c white",
"2 	c #DFDFDF",
"3 	c #303030",
"4 	c #83A7D6",
"5 	c #464646",
"6 	c #608ECA",
"7 	c #4E81C4",
"8 	c #3E73BA",
"9 	c #434343",
": 	c #F5F5F5",
"; 	c #BFBFBF",
"< 	c #1C1C1C",
"= 	c #2A4E7E",
"> 	c #181818",
"? 	c #070707",
"@ 	c #719AD0",
"A 	c #E1EAF5",
"B 	c #545454",
"C 	c #DCDCDC",
"D 	c #333333",
"E 	c #020202",
"F 	c #C5C5C5",
"G 	c #F1F1F1",
"H 	c #F3F3F3",
"I 	c #838383",
"J 	c #C2D4EB",
"K 	c #141414",
"L 	c #353535",
"M 	c #373737",
"N 	c #ABABAB",
"O 	c #1B1B1B",
"P 	c #E0E9F5",
"Q 	c #BFD2EA",
"R 	c #D7D7D7",
"S 	c #E9E9E9",
"T 	c #E8E8E8",
"U 	c #D2D2D2",
"V 	c #525252",
"W 	c #0E0E0E",
"X 	c #B5B5B5",
"Y 	c #252525",
"Z 	c #3E3E3E",
"[ 	c #A7A7A7",
"] 	c #121212",
"^ 	c #BCCFE9",
"_ 	c #B9CDE8",
"` 	c #A0A0A0",
"a 	c #EEEEEE",
"b 	c #DEDEDE",
"c 	c #EBEBEB",
"d 	c #DDDDDD",
"e 	c #727272",
"f 	c #A8A8A8",
"g 	c #FAFAFA",
"h 	c #D9D9D9",
"i 	c #0C0C0C",
"j 	c #DDE7F4",
"k 	c #B7CCE7",
"l 	c #9E9E9E",
"m 	c #B6CBE7",
"n 	c #B4CAE6",
"o 	c #808080",
"p 	c #EFEFEF",
"q 	c #E4E4E4",
"r 	c #EDEDED",
"s 	c #F7F7F7",
"t 	c #747474",
"u 	c #3868A8",
"v 	c #DBE5F3",
"w 	c #B1C7E5",
"x 	c #4C4C4C",
"y 	c #9A9A9A",
"z 	c #ADC5E4",
"{ 	c #D6D6D6",
"| 	c #E1E1E1",
"} 	c #E7E7E7",
"~ 	c #ECECEC",
" !	c #A9A9A9",
"!!	c #315B93",
"#!	c #D8E3F2",
"$!	c #ABC3E3",
"%!	c #515151",
"&!	c #595959",
"'!	c #E4E5E5",
"(!	c #5E5E5E",
")!	c #989898",
"*!	c #4E4E4E",
"+!	c #0A0A0A",
",!	c #CEDCEF",
"-!	c #A5BFE1",
".!	c #E0DFE0",
"0!	c #E7E6E6",
"1!	c #9A9795",
"2!	c #090909",
"3!	c #98B6DD",
"4!	c #030303",
"5!	c #959595",
"6!	c #234169",
"7!	c #C0D2EA",
"8!	c #9EBADF",
"9!	c #535353",
":!	c #C7C7C7",
";!	c #D1CFCE",
"<!	c #C8C8C8",
"=!	c #3A474E",
">!	c #90B0DA",
"?!	c #1B3251",
"@!	c #96B4DC",
"A!	c #E0E0E1",
"B!	c #B8B7B9",
"C!	c #DEDDDD",
"D!	c #C2C3C5",
"E!	c #80ACCF",
"F!	c #67BBF4",
"G!	c #28414F",
"H!	c #87AAD7",
"I!	c #132338",
"J!	c #6A6A6A",
"K!	c #F0EFF1",
"L!	c #D8D8DA",
"M!	c #CAC9C9",
"N!	c #B9B6B4",
"O!	c #608CB8",
"P!	c #2E87D7",
"Q!	c #4D9FE1",
"R!	c #64AEE1",
"S!	c #1E303A",
"T!	c #7EA3D4",
"U!	c #09101A",
"V!	c #8FAFDA",
"W!	c #777777",
"X!	c #EDEDEF",
"Y!	c #D3D3D5",
"Z!	c #E5E5E6",
"[!	c #494745",
"]!	c #001530",
"^!	c #115DAA",
"_!	c #317FC5",
"`!	c #4F9DDC",
"a!	c #61AADB",
"b!	c #243B48",
"c!	c #010202",
"d!	c #080808",
"e!	c #ECECEE",
"f!	c #D5D3D6",
"g!	c #E3E2E3",
"h!	c #757575",
"i!	c #759DD1",
"j!	c #01142B",
"k!	c #135CA7",
"l!	c #3180C9",
"m!	c #52A1E0",
"n!	c #5BA2D1",
"o!	c #1B2C37",
"p!	c #000101",
"q!	c #0E0D0E",
"r!	c #939393",
"s!	c #F6F6F7",
"t!	c #D4D4D5",
"u!	c #DEDEDF",
"v!	c #9F9F9F",
"w!	c #060606",
"x!	c #6E98CF",
"y!	c #6894CD",
"z!	c #001630",
"{!	c #135DAB",
"|!	c #317FC7",
"}!	c #53A3E3",
"~!	c #579AC8",
" #	c #172630",
"!#	c #F0F0F0",
"##	c #CECECF",
"$#	c #BCBCBC",
"%#	c #0B0B0B",
"&#	c #6692CC",
"'#	c #628FCB",
"(#	c #001B39",
")#	c #1360AF",
"*#	c #3280C8",
"+#	c #55A7E7",
",#	c #5598C5",
"-#	c #111D25",
".#	c #868686",
"0#	c #C8C8C9",
"1#	c #1A1A1A",
"2#	c #505050",
"3#	c #FEFEFE",
"4#	c #5C8BC9",
"5#	c #5687C7",
"6#	c #012145",
"7#	c #1562B4",
"8#	c #3481C8",
"9#	c #57AAE9",
":#	c #4F8CB7",
";#	c #0C1419",
"<#	c #1D1D1D",
"=#	c #858586",
">#	c #646464",
"?#	c #2D2D2D",
"@#	c #6591CC",
"A#	c #5D8CC9",
"B#	c #5183C5",
"C#	c #00254E",
"D#	c #1565B6",
"E#	c #3482C7",
"F#	c #4B87B1",
"G#	c #0B1319",
"H#	c #3B3B3B",
"I#	c #CDCDCD",
"J#	c #C4C4C4",
"K#	c #3C3C3C",
"L#	c #000002",
"M#	c #002956",
"N#	c #1562B1",
"O#	c #3282CC",
"P#	c #61C0FF",
"Q#	c #162835",
"R#	c #3A3A3A",
"S#	c #B7B7B7",
"T#	c #ACACAC",
"U#	c #000104",
"V#	c #01326A",
"W#	c #2077D1",
"X#	c #183754",
"Y#	c #030608",
"Z#	c #111111",
"[#	c #2B2B2B",
"]#	c #00060D",
"^#	c #020E1C",
"_#	c #000203",
"                                                ",
"    # $ %                   # & ' ( ) *         ",
"    + , - .               # 0 1 1 2 3           ",
"    4 5 1 ' % 6 6 7 7 8 8 9 1 : ; < = =   > ?   ",
"    @ A B C D A A A A A E F G H I % J ! K C L   ",
"    6 A A M N O A P P Q . R S T U V E W X 1 Y   ",
"    7 P P P Z [ ] ^ ^ _ % ` a b c d e f g h i   ",
"    8 j j j k 9 l * m n n o p b d q G r s t %   ",
"    u v v v w w x y ? z 5 { | } a ~ r r  !W     ",
"    !!#!#!#!$!$!$!%!' &!q } '!y (!l )!*!+!      ",
"    = ,!,!,!-!-!-!E )!{ .!0!1!2!3!4!E E 5!      ",
"    6!7!7!7!8!8!8!9!d :!;!<!=!>!>!>!>!! 5!      ",
"    ?!z z z @!@!0 A!B!C!D!E!F!G!H!H!H!! 5!      ",
"    I!@!@!@!E J!K!L!M!N!O!P!Q!R!S!T!T!! 5!      ",
"    U!V!V!# W!X!Y!Z!p [!]!^!_!`!a!b!c!! 5!      ",
"    ! H!d!) e!f!g!1 h!% i!j!k!l!m!n!o!p!5!      ",
"    ! q!r!s!t!u!1 v!w!x!x!y!z!{!|!}!~! #5!      ",
"    +!y !###2 g $#%#x!&#&#'#'#(#)#*#+#,#-#      ",
"  E .#0#1#2#3#R 1#y!y!'#'#4#4#5#6#7#8#9#:#;#    ",
"  <#1 =#? >#T ?#x!@#@#A#A#5#5#B#B#C#D#E#+#F#G#  ",
"  H#1 I#J#S K#! ! ! ! ! ! ! ! ! ! L#M#N#O#P#Q#  ",
"  + q 1 b R#S#S#S#T#T#` ` 5!5!5!5!5!U#V#W#X#Y#  ",
"    Z#[#*                             ]#^#_#    ",
"                                                "};