/* XPM */ 
static const char * add_xpm[] = {
"24 24 380 2",
"  	c None",
"! 	c black",
"# 	c #768E75",
"$ 	c #6F9869",
"% 	c #80B07A",
"& 	c #81B17C",
"' 	c #7FAE78",
"( 	c #739B6E",
") 	c #728C72",
"* 	c #5F865B",
"+ 	c #9CC690",
", 	c #CDE9B9",
"- 	c #E3F5CA",
". 	c #E2F2C6",
"0 	c #E1F1C3",
"1 	c #E1F1C5",
"2 	c #E1F3C8",
"3 	c #CEE9B9",
"4 	c #9EC691",
"5 	c #6E9569",
"6 	c #A0B1A0",
"7 	c #93C185",
"8 	c #DAF1BF",
"9 	c #D6ECB3",
": 	c #C8E49F",
"; 	c #C2E096",
"< 	c #C2E195",
"= 	c #C1E094",
"> 	c #C1DF95",
"? 	c #C1DF96",
"@ 	c #C6E39E",
"A 	c #D4EAB1",
"B 	c #D3ECB9",
"C 	c #9AC58D",
"D 	c #819D80",
"E 	c #779576",
"F 	c #B0D89A",
"G 	c #CFE9A9",
"H 	c #BBDC8F",
"I 	c #B8DB8A",
"J 	c #BADC8C",
"K 	c #BFDF8E",
"L 	c #C0E08C",
"M 	c #BEDF8B",
"N 	c #BDDE8D",
"O 	c #B9DA8B",
"P 	c #B8DA8B",
"Q 	c #BBDB90",
"R 	c #C9E5A5",
"S 	c #B3D69C",
"T 	c #6F966B",
"U 	c #A8D38F",
"V 	c #C0DF94",
"W 	c #B0D581",
"X 	c #B2D783",
"Y 	c #B4D883",
"Z 	c #B8DC85",
"[ 	c #9DC873",
"] 	c #83B56D",
"^ 	c #89B872",
"_ 	c #88B770",
"` 	c #9BC675",
"a 	c #B6DA84",
"b 	c #B1D682",
"c 	c #B0D582",
"d 	c #B9DB90",
"e 	c #AED394",
"f 	c #7A9A78",
"g 	c #81B76D",
"h 	c #B8DC8A",
"i 	c #A8D177",
"j 	c #ABD379",
"k 	c #ACD479",
"l 	c #ADD579",
"m 	c #B2D879",
"n 	c #89BB67",
"o 	c #D7E5DD",
"p 	c #F0F5F3",
"q 	c #DFEBE1",
"r 	c #9AC47C",
"s 	c #ADD576",
"t 	c #AAD279",
"u 	c #A9D179",
"v 	c #A8D179",
"w 	c #AFD684",
"x 	c #9ECA87",
"y 	c #5F8858",
"z 	c #ADD881",
"{ 	c #A2CD6F",
"| 	c #A3CE70",
"} 	c #A4CF70",
"~ 	c #A5D06F",
" !	c #A6D16F",
"!!	c #AAD46F",
"#!	c #88BA63",
"$!	c #E5EDE8",
"%!	c #FEFEFE",
"&!	c #EDF2EC",
"'!	c #9AC579",
"(!	c #A5D06B",
")!	c #A4CF6F",
"*!	c #A2CD70",
"+!	c #A1CC6F",
",!	c #A0CD71",
"-!	c #A3CE7A",
".!	c #709E65",
"0!	c #76B15C",
"1!	c #A1CE6C",
"2!	c #9AC966",
"3!	c #9CCA66",
"4!	c #9CCB66",
"5!	c #9ECC65",
"6!	c #9FCD65",
"7!	c #A3CF65",
"8!	c #83B75D",
"9!	c #E1E9E3",
":!	c #FDFBFE",
";!	c #E8EEE7",
"<!	c #95C173",
"=!	c #9ECC60",
">!	c #9DCB65",
"?!	c #9BC966",
"@!	c #9AC866",
"A!	c #99C866",
"B!	c #99C868",
"C!	c #8ABD6E",
"D!	c #7C937B",
"E!	c #88C25E",
"F!	c #94C55D",
"G!	c #93C45C",
"H!	c #97C75D",
"I!	c #97C95A",
"J!	c #98C95A",
"K!	c #9ACA5A",
"L!	c #9CCD58",
"M!	c #7EB554",
"N!	c #DEE7E1",
"O!	c #FAF8FB",
"P!	c #E4EBE4",
"Q!	c #91BF6A",
"R!	c #98CA54",
"S!	c #98C85A",
"T!	c #96C85A",
"U!	c #95C75A",
"V!	c #94C65C",
"W!	c #91C35C",
"X!	c #8FC25D",
"Y!	c #88BC60",
"Z!	c #547E4D",
"[!	c #55894A",
"]!	c #89C056",
"^!	c #89BE53",
"_!	c #8DC153",
"`!	c #7CB44D",
"a!	c #75AE50",
"b!	c #78B051",
"c!	c #79B151",
"d!	c #79B24F",
"e!	c #6DA753",
"f!	c #DFE6E1",
"g!	c #F8F5F8",
"h!	c #E4EAE3",
"i!	c #80B268",
"j!	c #75AF4B",
"k!	c #77B051",
"l!	c #76AF51",
"m!	c #75AF50",
"n!	c #7BB34E",
"o!	c #89BF53",
"p!	c #86BC53",
"q!	c #81B854",
"r!	c #5D964D",
"s!	c #589947",
"t!	c #7EB74A",
"u!	c #7FB849",
"v!	c #83BC46",
"w!	c #6CA652",
"x!	c #D0DBD6",
"y!	c #DBE3DE",
"z!	c #DAE2DC",
"{!	c #D9E2DC",
"|!	c #DCE4DE",
"}!	c #EFF0EF",
"~!	c #F1F1F1",
" #	c #EEEFEF",
"!#	c #DFE5E0",
"##	c #D8E1DB",
"$#	c #D2DDD5",
"%#	c #83B36E",
"&#	c #7AB642",
"'#	c #7CB549",
"(#	c #78B14A",
")#	c #5D9C4A",
"*#	c #549741",
"+#	c #72AF3E",
",#	c #72AF3D",
"-#	c #71B032",
".#	c #69A34D",
"0#	c #E9EAED",
"1#	c #F4F2F5",
"2#	c #F2F1F3",
"3#	c #EEEEEE",
"4#	c #EDEDED",
"5#	c #F2F0F2",
"6#	c #F3F1F4",
"7#	c #EAECEB",
"8#	c #84B46C",
"9#	c #68AB2F",
":#	c #70AD3D",
";#	c #6DAA3F",
"<#	c #5A9B43",
"=#	c #53963F",
">#	c #67A833",
"?#	c #64A72F",
"@#	c #62A724",
"A#	c #619F45",
"B#	c #D3DCD6",
"C#	c #DDE3DC",
"D#	c #DBE2DA",
"E#	c #DCE2DB",
"F#	c #E9EAE9",
"G#	c #ECEBEC",
"H#	c #E9EAEA",
"I#	c #DDE3DD",
"J#	c #DBE2DB",
"K#	c #D4DDD3",
"L#	c #79AD61",
"M#	c #5CA222",
"N#	c #61A42E",
"O#	c #62A434",
"P#	c #57993F",
"Q#	c #578E43",
"R#	c #61A72A",
"S#	c #5CA02A",
"T#	c #61A52A",
"U#	c #5B9F30",
"V#	c #6EA84D",
"W#	c #72AB4E",
"X#	c #73AB4D",
"Y#	c #73AC4B",
"Z#	c #6FA757",
"[#	c #D9DFDA",
"]#	c #DBE1DA",
"^#	c #80B06A",
"_#	c #70AA48",
"`#	c #72AB4D",
"a#	c #70AA4E",
"b#	c #6EA84C",
"c#	c #5EA035",
"d#	c #5DA229",
"e#	c #5A9F2A",
"f#	c #5A9F2D",
"g#	c #54913C",
"h#	c #748F6E",
"i#	c #60AA2C",
"j#	c #589E2C",
"k#	c #5CA12B",
"l#	c #60A42A",
"m#	c #5FA424",
"n#	c #60A624",
"o#	c #63A824",
"p#	c #64AA21",
"q#	c #5A9D30",
"r#	c #D1D9D3",
"s#	c #EAE8EA",
"t#	c #D5DCD4",
"u#	c #6DA847",
"v#	c #60A71D",
"w#	c #61A624",
"x#	c #5CA224",
"y#	c #5DA228",
"z#	c #599F2B",
"{#	c #579D2C",
"|#	c #5EA32E",
"}#	c #558442",
"~#	c #5BA12F",
" $	c #5A9F2B",
"!$	c #5DA12B",
"#$	c #5FA22B",
"$$	c #61A42B",
"%$	c #62A628",
"&$	c #5A9C36",
"'$	c #CFD7D1",
"($	c #E7E6E7",
")$	c #D3DAD2",
"*$	c #6DA74D",
"+$	c #5DA324",
",$	c #5FA32B",
"-$	c #5DA22B",
".$	c #5BA02B",
"0$	c #559B2C",
"1$	c #569C2C",
"2$	c #66A73A",
"3$	c #669451",
"4$	c #65AD2A",
"5$	c #53992D",
"6$	c #589D2C",
"7$	c #5CA128",
"8$	c #589937",
"9$	c #CED6D0",
":$	c #E5E3E6",
";$	c #D2D8D1",
"<$	c #6AA44C",
"=$	c #589F24",
">$	c #54992D",
"?$	c #5FA42C",
"@$	c #70A453",
"A$	c #66AA34",
"B$	c #5EA32A",
"C$	c #50962D",
"D$	c #569A2D",
"E$	c #579D28",
"F$	c #539738",
"G$	c #C5CFC7",
"H$	c #DBDCDA",
"I$	c #C8D1C7",
"J$	c #64A04B",
"K$	c #539A25",
"L$	c #549A2D",
"M$	c #51982D",
"N$	c #599F2C",
"O$	c #72B13E",
"P$	c #85A17F",
"Q$	c #6FB32E",
"R$	c #4F962E",
"S$	c #50972E",
"T$	c #52982D",
"U$	c #53992C",
"V$	c #509531",
"W$	c #6CA15D",
"X$	c #73A563",
"Y$	c #6DA25D",
"Z$	c #51982B",
"[$	c #51982E",
"]$	c #4E952E",
"^$	c #6DAF30",
"_$	c #7DA46E",
"`$	c #6E9761",
"a$	c #75B730",
"b$	c #50972F",
"c$	c #499125",
"d$	c #489124",
"e$	c #499225",
"f$	c #4E952D",
"g$	c #4E942E",
"h$	c #4D942F",
"i$	c #50962F",
"j$	c #5CA12A",
"k$	c #70B22F",
"l$	c #79A763",
"m$	c #7C9D75",
"n$	c #79B93E",
"o$	c #70B328",
"p$	c #5AA02A",
"q$	c #50982F",
"r$	c #4E9530",
"s$	c #4D9330",
"t$	c #4E9431",
"u$	c #509730",
"v$	c #6EB12A",
"w$	c #79B73E",
"x$	c #7CA46E",
"y$	c #689C49",
"z$	c #77B73B",
"{$	c #74B42A",
"|$	c #6BAE29",
"}$	c #65A82A",
"~$	c #63A72A",
" %	c #65A829",
"!%	c #6AAD29",
"#%	c #73B52A",
"$%	c #75B539",
"%%	c #73A752",
"&%	c #517F3E",
"'%	c #619C3A",
"(%	c #68A839",
")%	c #69A937",
"*%	c #67A738",
"+%	c #619B3A",
",%	c #578642",
"                # $ % & ' ( )                   ",
"            * + , - . 0 1 2 3 4 5               ",
"        6 7 8 9 : ; < = > ? @ A B C D           ",
"      E F G H I J K L M M N O P Q R S T         ",
"      U V W X Y Z [ ] ^ _ ` a X b c d e f       ",
"    g h i j k l m n o p q r s j t u v w x       ",
"  y z { | } ~  !!!#!$!%!&!'!(!)!| *!+!,!-!.!    ",
"  0!1!2!3!4!5!6!7!8!9!:!;!<!=!>!3!?!@!A!B!C!    ",
"D!E!F!G!H!I!J!K!L!M!N!O!P!Q!R!S!T!U!V!W!X!Y!Z!  ",
"[!]!^!_!`!a!b!c!d!e!f!g!h!i!j!k!l!m!n!o!p!q!r!  ",
"s!t!u!v!w!x!y!z!{!|!}!~! #!###z!z!$#%#&#'#(#)#  ",
"*#+#,#-#.#0#1#2#2#2#3#4#3#5#2#2#6#7#8#9#:#;#<#  ",
"=#>#?#@#A#B#C#D#D#E#F#G#H#I#D#D#J#K#L#M#N#O#P#  ",
"Q#R#S#T#U#V#W#X#Y#Z#[#G#]#^#_#`#a#b#c#d#e#f#g#  ",
"h#i#j#k#l#m#n#o#p#q#r#s#t#u#v#w#m#x#y#z#{#|#}#  ",
"  ~#z#{# $!$#$$$%$&$'$($)$*$+$,$-$.$j#0$1$2$    ",
"  3$4$5$0$6$ $.$7$8$9$:$;$<$=$ $6$1$>$5$?$@$    ",
"    A$B$C$>$D$1$E$F$G$H$I$J$K$D$L$M$C$N$O$      ",
"    P$Q$ $R$S$T$U$V$W$X$Y$F$Z$[$R$]${#^$_$      ",
"      `$a$B$b$]$]$C$c$d$e$f$g$h$i$j$k$l$        ",
"        m$n$o$p$q$r$s$s$s$t$u$N$v$w$x$          ",
"            y$z${$|$}$~$ %!%#%$%%%              ",
"                &%'%(%)%*%+%,%                  ",
"                                                "};