/* XPM */ 
static const char * back_xpm[] = {
"24 24 416 2",
"  	c None",
"! 	c black",
"# 	c #9DDF9C",
"$ 	c #51CB51",
"% 	c #1EBB1F",
"& 	c #07B308",
"' 	c #09B10A",
"( 	c #1EB51D",
") 	c #46BD45",
"* 	c #77CB76",
"+ 	c #D1EAD0",
", 	c #E4F3E4",
"- 	c #89DA88",
". 	c #22C022",
"0 	c #32C332",
"1 	c #64CD5E",
"2 	c #79D26E",
"3 	c #8AD576",
"4 	c #87D26B",
"5 	c #6BC84C",
"6 	c #4EBC2E",
"7 	c #2BAF16",
"8 	c #15A712",
"9 	c #59BC59",
": 	c #CCE9CC",
"; 	c #D6EFD6",
"< 	c #34C434",
"= 	c #3FC83F",
"> 	c #96DE93",
"? 	c #B1E2A6",
"@ 	c #A8DE95",
"A 	c #9FDA83",
"B 	c #93D46F",
"C 	c #87CF5B",
"D 	c #77C843",
"E 	c #6AC231",
"F 	c #65BF2A",
"G 	c #58BC25",
"H 	c #30AB17",
"I 	c #32A930",
"J 	c #A0D6A1",
"K 	c #BCE7BC",
"L 	c #2CC12C",
"M 	c #72D570",
"N 	c #AAE1A1",
"O 	c #B3E1A2",
"P 	c #A8DC8E",
"Q 	c #98D676",
"R 	c #89CF5F",
"S 	c #7ECA4D",
"T 	c #73C63C",
"U 	c #6CC12F",
"V 	c #6BC12D",
"W 	c #6BC22E",
"X 	c #64BE29",
"Y 	c #48B11E",
"Z 	c #39A72D",
"[ 	c #95CE94",
"] 	c #DDEFDD",
"^ 	c #21BC22",
"_ 	c #69D064",
"` 	c #ADE19E",
"a 	c #AEDF97",
"b 	c #9FD980",
"c 	c #8FD268",
"d 	c #80CB51",
"e 	c #7FCA4B",
"f 	c #A7DA83",
"g 	c #BAE29E",
"h 	c #88CF59",
"i 	c #65C026",
"j 	c #6AC12E",
"k 	c #6CC22E",
"l 	c #66C02B",
"m 	c #4AB020",
"n 	c #3CA430",
"o 	c #9ECF9E",
"p 	c #5DCC5F",
"q 	c #44C53F",
"r 	c #9EDC8C",
"s 	c #A6DB8B",
"t 	c #96D572",
"u 	c #77C741",
"v 	c #7CC846",
"w 	c #C0E4A4",
"x 	c #F1F9EC",
"y 	c #F2F9ED",
"z 	c #BEE4A3",
"{ 	c #70C436",
"| 	c #68C029",
"} 	c #65BF2B",
"~ 	c #46AB1F",
" !	c #4AA443",
"!!	c #D4E6D3",
"#!	c #C1E9C1",
"$!	c #1CB81C",
"%!	c #86D372",
"&!	c #9FD87F",
"'!	c #8DD165",
"(!	c #7ECA4E",
")!	c #78C741",
"*!	c #BFE4A5",
"+!	c #F6FBF2",
",!	c #FEFEFE",
"-!	c #F6FBF3",
".!	c #C2E5A7",
"0!	c #68C12A",
"1!	c #6BC22D",
"2!	c #6AC12D",
"3!	c #59B824",
"4!	c #379F1F",
"5!	c #68AD68",
"6!	c #4CC34C",
"7!	c #46C038",
"8!	c #8DD26A",
"9!	c #88CF5D",
":!	c #76C740",
";!	c #6BC22F",
"<!	c #76C63E",
"=!	c #C0E4A6",
">!	c #F7FBF3",
"?!	c #F8FCF5",
"@!	c #D8EFC8",
"A!	c #8CCF5C",
"B!	c #65BF25",
"C!	c #69C12B",
"D!	c #69C12C",
"E!	c #66C12A",
"F!	c #62C029",
"G!	c #5BBD26",
"H!	c #3FA91A",
"I!	c #3C9838",
"J!	c #BED8BD",
"K!	c #18B119",
"L!	c #6BC748",
"M!	c #7ECB4D",
"N!	c #71C538",
"O!	c #69C12A",
"P!	c #76C53D",
"Q!	c #C0E5A7",
"R!	c #F8FBF4",
"S!	c #FAFCF8",
"T!	c #D6EDC5",
"U!	c #8ED05F",
"V!	c #66C027",
"W!	c #67C028",
"X!	c #66C129",
"Y!	c #61C026",
"Z!	c #5DBF25",
"[!	c #59BE24",
"]!	c #55BD23",
"^!	c #44B01B",
"_!	c #349725",
"`!	c #64A562",
"a!	c #D6EBD6",
"b!	c #14AC0F",
"c!	c #6AC336",
"d!	c #70C334",
"e!	c #77C63F",
"f!	c #F8FBF5",
"g!	c white",
"h!	c #FEFEFD",
"i!	c #C2E6A9",
"j!	c #98D56F",
"k!	c #97D46D",
"l!	c #9BD672",
"m!	c #9AD670",
"n!	c #96D570",
"o!	c #92D46D",
"p!	c #83CF5B",
"q!	c #62C334",
"r!	c #4BBA1C",
"s!	c #42B21A",
"t!	c #349C1E",
"u!	c #3D8D3B",
"v!	c #B4DEB4",
"w!	c #1FAB13",
"x!	c #63BF2A",
"y!	c #6AC12A",
"z!	c #72C437",
"{!	c #C2E5AA",
"|!	c #F8FCF6",
"}!	c #F7FCF5",
"~!	c #E8F6E0",
" #	c #E5F4DA",
"!#	c #E9F6DF",
"##	c #E8F6DF",
"$#	c #E8F6DE",
"%#	c #E6F5DD",
"&#	c #E3F4DB",
"'#	c #C4E9B4",
"(#	c #73CB51",
")#	c #40B815",
"*#	c #3CB418",
"+#	c #2B9C14",
",#	c #187617",
"-#	c #B8DEB8",
".#	c #21A913",
"0#	c #78C740",
"1#	c #FDFEFC",
"2#	c #FAFDF9",
"3#	c #F6FBF4",
"4#	c #F5FBF3",
"5#	c #D7F0CF",
"6#	c #74CC58",
"7#	c #36B510",
"8#	c #35B415",
"9#	c #239A0D",
":#	c #086706",
";#	c #BBDEBB",
"<#	c #1EA412",
"=#	c #6BC22C",
">#	c #6EC332",
"?#	c #A5D97F",
"@#	c #E7F4DC",
"A#	c #ECF7E5",
"B#	c #CFECBF",
"C#	c #C3E8B1",
"D#	c #C5E8B4",
"E#	c #C3E8B4",
"F#	c #C1E8B3",
"G#	c #C0E8B3",
"H#	c #BCE6AF",
"I#	c #9FDD8E",
"J#	c #5BC43F",
"K#	c #30B50F",
"L#	c #2DB010",
"M#	c #20930D",
"N#	c #156A12",
"O#	c #D9ECD9",
"P#	c #159B10",
"Q#	c #62BE29",
"R#	c #6BC32F",
"S#	c #6CC22F",
"T#	c #A2D87C",
"U#	c #E6F4DC",
"V#	c #FCFDFB",
"W#	c #EAF6E3",
"X#	c #ABDE91",
"Y#	c #72C949",
"Z#	c #68C53F",
"[#	c #67C542",
"]#	c #62C540",
"^#	c #5EC43E",
"_#	c #59C33C",
"`#	c #4EC032",
"a#	c #39B91D",
"b#	c #2BB40F",
"c#	c #24AA0C",
"d#	c #208B13",
"e#	c #357832",
"f#	c #209B21",
"g#	c #56B824",
"h#	c #6AC22E",
"i#	c #67C12A",
"j#	c #9FD87B",
"k#	c #E3F3DA",
"l#	c #D1EDC4",
"m#	c #80CE5E",
"n#	c #44B917",
"o#	c #38B50E",
"p#	c #35B60F",
"q#	c #31B40D",
"r#	c #2BB30A",
"s#	c #28B30A",
"t#	c #26B40C",
"u#	c #24B30C",
"v#	c #1CA209",
"w#	c #298420",
"x#	c #6F996C",
"y#	c #5DB25C",
"z#	c #39A61B",
"{#	c #65BE2A",
"|#	c #6BC32E",
"}#	c #67C12C",
"~#	c #60BF26",
" $	c #5EBF27",
"!$	c #97D677",
"#$	c #E0F3D7",
"$$	c #FBFDFB",
"%$	c #FBFDFA",
"&$	c #D5EFCC",
"'$	c #79CD5D",
"($	c #39B715",
")$	c #33B513",
"*$	c #31B512",
"+$	c #2AB50F",
",$	c #25B40D",
"-$	c #21B30B",
".$	c #1AAF08",
"0$	c #159507",
"1$	c #3E7F3A",
"2$	c #C7D5C4",
"3$	c #C2DFC0",
"4$	c #25951E",
"5$	c #52B322",
"6$	c #66C12B",
"7$	c #60C028",
"8$	c #5ABE26",
"9$	c #52BC1F",
":$	c #51BC21",
";$	c #8ED473",
"<$	c #DDF3D6",
"=$	c #F8FCF7",
">$	c #BDE7B2",
"?$	c #47BD2A",
"@$	c #28B20A",
"A$	c #29B40E",
"B$	c #23B30C",
"C$	c #1DB209",
"D$	c #19B108",
"E$	c #13A306",
"F$	c #1C8313",
"G$	c #71966F",
"H$	c #59AA5B",
"I$	c #319B18",
"J$	c #51B721",
"K$	c #53BD22",
"L$	c #4DBB1F",
"M$	c #45B819",
"N$	c #44BA1C",
"O$	c #86D370",
"P$	c #DAF2D5",
"Q$	c #EFF9ED",
"R$	c #BCE7B2",
"S$	c #4CC035",
"T$	c #1DB104",
"U$	c #20B20A",
"V$	c #1BB108",
"W$	c #16B106",
"X$	c #0FA803",
"Y$	c #0F8907",
"Z$	c #447E40",
"[$	c #C9D7C8",
"]$	c #D1E5D0",
"^$	c #469D44",
"_$	c #319C17",
"`$	c #48B41C",
"a$	c #4BBB1E",
"b$	c #45BA1C",
"c$	c #40B919",
"d$	c #39B613",
"e$	c #3AB719",
"f$	c #78CE64",
"g$	c #9EDD94",
"h$	c #6CCC5D",
"i$	c #28B512",
"j$	c #1AB106",
"k$	c #19B007",
"l$	c #13B004",
"m$	c #0DA803",
"n$	c #098D03",
"o$	c #257322",
"p$	c #8FA58E",
"q$	c #CDE2CD",
"r$	c #509D4D",
"s$	c #2C9615",
"t$	c #36AA14",
"u$	c #3BB516",
"v$	c #37B616",
"w$	c #33B613",
"x$	c #2DB40F",
"y$	c #21B106",
"z$	c #18B003",
"{$	c #17B003",
"|$	c #18B106",
"}$	c #15AF06",
"~$	c #0FAC02",
" %	c #0A9E01",
"!%	c #0A8207",
"#%	c #2C752A",
"$%	c #8AA188",
"%%	c #C7DDC5",
"&%	c #5A9F54",
"'%	c #2D921F",
"(%	c #289B11",
")%	c #2AA910",
"*%	c #29B10E",
"+%	c #25B20C",
",%	c #20B00A",
"-%	c #1AB007",
".%	c #17AE06",
"0%	c #11AB03",
"1%	c #0CA202",
"2%	c #098E02",
"3%	c #137610",
"4%	c #407A40",
"5%	c #99AD97",
"6%	c #D0E1CE",
"7%	c #83B381",
"8%	c #4D9847",
"9%	c #2D8F20",
":%	c #1E8F0F",
";%	c #189309",
"<%	c #159208",
"=%	c #129007",
">%	c #0F8D05",
"?%	c #0D8406",
"@%	c #14790F",
"A%	c #2F752D",
"B%	c #6E8E6D",
"C%	c #B7C5B6",
"D%	c #C7D9C6",
"E%	c #8AB188",
"F%	c #689A66",
"G%	c #549050",
"H%	c #518E4C",
"I%	c #528D4D",
"J%	c #4F874B",
"K%	c #5F895E",
"L%	c #799578",
"M%	c #A5B8A4",
"N%	c #C8D5C6",
"O%	c #BFCDBC",
"P%	c #C0CEBC",
"Q%	c #BCCABA",
"                # $ % & ' ( ) * +               ",
"          , - . 0 1 2 3 4 5 6 7 8 9 :           ",
"        ; < = > ? @ A B C D E F G H I J         ",
"      K L M N O P Q R S T U V W V X Y Z [       ",
"    ] ^ _ ` a b c d e f g h i j W k l m n o     ",
"    p q r s t C u v w x y z { | W W W } ~  !!!  ",
"  #!$!%!&!'!(!{ )!*!+!,!-!.!W 0!W 1!W 2!3!4!5!  ",
"  6!7!8!9!:!;!<!=!>!,!?!@!A!B!C!D!C!E!F!G!H!I!J!",
"  K!L!M!N!O!P!Q!R!,!S!T!U!V!W!0!X!Y!Z![!]!^!_!`!",
"a!b!c!d!| e!*!f!g!h!x i!j!k!l!m!n!o!p!q!r!s!t!u!",
"v!w!x!y!z!{!|!g!g!,!}!~! #!###$#%#&#'#(#)#*#+#,#",
"-#.#x!y!0# #1#g!g!,!2#3#3#3#3#3#3#4#5#6#7#8#9#:#",
";#<#x!=#>#?#@#1#g!1#A#B#C#D#E#F#G#H#I#J#K#L#M#N#",
"O#P#Q#R#0!S#T#U#V#1#W#X#Y#Z#[#]#^#_#`#a#b#c#d#e#",
"  f#g#h#W i#2!j#k#V#2#l#m#n#o#p#q#r#s#t#u#v#w#x#",
"  y#z#{#|#}#~# $!$#$$$%$&$'$($)$*$+$,$-$.$0$1$2$",
"  3$4$5$6$7$8$9$:$;$<$$$=$>$?$@$A$B$C$D$E$F$G$  ",
"    H$I$J$[!K$L$M$N$O$P$Q$R$S$T$U$V$W$X$Y$Z$[$  ",
"    ]$^$_$`$a$b$c$d$e$f$g$h$i$j$k$l$m$n$o$p$    ",
"      q$r$s$t$u$v$w$x$y$z${$|$}$~$ %!%#%$%      ",
"        %%&%'%(%)%*%+%,%-%.%0%1%2%3%4%5%        ",
"          6%7%8%9%:%;%<%=%>%?%@%A%B%C%          ",
"              D%E%F%G%H%I%J%K%L%M%              ",
"                    N%O%P%Q%                    "};