/* XPM */ 
static const char * folder_xpm[] = {
"20 18 70 1",
" 	c None",
"!	c white",
"#	c #CEA221",
"$	c #DCDCDC",
"%	c #F4F4F4",
"&	c #C69A18",
"'	c #C4C4C4",
"(	c #FFFF9C",
")	c #FFF39C",
"*	c #FFF38C",
"+	c #9D7A19",
",	c #FFEB84",
"-	c #E2C14F",
".	c #B18918",
"0	c #FFD784",
"1	c #DABF6B",
"2	c #FFFBF7",
"3	c #FFE784",
"4	c #A17D18",
"5	c #888888",
"6	c #F9D069",
"7	c #C69A19",
"8	c #F8F18C",
"9	c #FFFE9B",
":	c #FCC559",
";	c #F5F18E",
"<	c #9C7916",
"=	c #707070",
">	c #DFB03E",
"?	c #CAA323",
"@	c #FFFFA3",
"A	c #FFF592",
"B	c #E8BD50",
"C	c #CDB752",
"D	c #9C7017",
"E	c #737373",
"F	c #CDA123",
"G	c #DABD46",
"H	c #FFEA82",
"I	c #FFE682",
"J	c #ECB942",
"K	c #C09618",
"L	c #646464",
"M	c #8E8E8E",
"N	c #F1E77D",
"O	c #FFFA95",
"P	c #FFE179",
"Q	c #FFDE79",
"R	c #DAAE3E",
"S	c #9E7917",
"T	c #656565",
"U	c #BBBBBB",
"V	c #C8A230",
"W	c #C29619",
"X	c #F3ED8A",
"Y	c #F3CA5F",
"Z	c #BB9424",
"[	c #D1D1D1",
"]	c #DFDFDF",
"^	c #A87C23",
"_	c #A1741B",
"`	c #9E7118",
"a	c #686868",
"b	c #8F8F8F",
"c	c #F5F5F5",
"d	c #CACACA",
"e	c #929292",
"f	c #7C7C7C",
"g	c #E0E0E0",
"h	c #D5D5D5",
"!!!!!!!!!!!!!!!!!!!!",
"!!!!!!!!!!!!!!!!!!!!",
"!!!!####$%!!!!!!!!!!",
"!!!#!!!!&'%!!!!!!!!!",
"!!&!((((!&&&&&&$%!!!",
"!!&)*****!!!!!&+'%!!",
"!!&,-&&&&&&&&&&&.'!!",
"!!&0&1!!2!!!!!3!45!!",
"!!&67899999999:;<=!!",
"!!&>?@AAAAAAAABCDE!!",
"!!&FG(HHHHHHHIJKLM!!",
"!!&7NOPPPPPPPQRSTU!!",
"!!VWXYYYYYYYYYZDE[!!",
"!!]^_``````````ab]!!",
"!!cdeffffffffffedc!!",
"!!!cghhhhhhhhhhgc!!!",
"!!!!!!!!!!!!!!!!!!!!",
"!!!!!!!!!!!!!!!!!!!!"};