/* XPM */ 
static const char * next_xpm[] = {
"24 24 413 2",
"  	c None",
"! 	c black",
"# 	c #BBE6B8",
"$ 	c #63D060",
"% 	c #39C237",
"& 	c #14B614",
"' 	c #06AF06",
"( 	c #0DAF0D",
") 	c #2CB62B",
"* 	c #69C768",
"+ 	c #BDE1B9",
", 	c #A9E2A6",
"- 	c #2DC22B",
". 	c #1CBD1D",
"0 	c #54CA52",
"1 	c #7BD473",
"2 	c #87D575",
"3 	c #8BD471",
"4 	c #73CB56",
"5 	c #53BE34",
"6 	c #39B520",
"7 	c #1AA80E",
"8 	c #33AF31",
"9 	c #B1DCAE",
": 	c #7BD779",
"; 	c #24C124",
"< 	c #71D570",
"= 	c #AAE2A1",
"> 	c #ACE19B",
"? 	c #A3DC89",
"@ 	c #98D777",
"A 	c #8BD162",
"B 	c #7DCA4C",
"C 	c #6EC436",
"D 	c #65C02A",
"E 	c #61BE28",
"F 	c #47B41F",
"G 	c #26A51D",
"H 	c #67BC66",
"I 	c #E2EEDF",
"J 	c #6CD36B",
"K 	c #3BC73B",
"L 	c #9EDF97",
"M 	c #B4E2A5",
"N 	c #ACDE95",
"O 	c #9FD980",
"P 	c #8FD368",
"Q 	c #83CD55",
"R 	c #76C741",
"S 	c #6DC331",
"T 	c #6AC22D",
"U 	c #6BC22E",
"V 	c #69C12D",
"W 	c #52B722",
"X 	c #31A519",
"Y 	c #51AF4E",
"Z 	c #CEE5CC",
"[ 	c #6ED26C",
"] 	c #38C236",
"^ 	c #98DD90",
"_ 	c #B3E1A0",
"` 	c #A4DB88",
"a 	c #95D571",
"b 	c #86CF5B",
"c 	c #78C743",
"d 	c #99D570",
"e 	c #BCE4A1",
"f 	c #95D36A",
"g 	c #68C12A",
"h 	c #69C12B",
"i 	c #69C02C",
"j 	c #58B824",
"k 	c #3DA622",
"l 	c #69B669",
"m 	c #A8DFA5",
"n 	c #1FB91D",
"o 	c #8CD77F",
"p 	c #ABDE92",
"q 	c #9CD77C",
"r 	c #8CD164",
"s 	c #7ECA4D",
"t 	c #70C437",
"u 	c #7FC949",
"v 	c #CFEBBB",
"w 	c #F7FBF4",
"x 	c #E4F4D9",
"y 	c #9CD675",
"z 	c #65BF26",
"{ 	c #54B424",
"| 	c #44A431",
"} 	c #9AC998",
"~ 	c #28BB28",
" !	c #5CC84E",
"!!	c #9EDA84",
"#!	c #95D470",
"$!	c #85CD57",
"%!	c #77C742",
"&!	c #6DC333",
"'!	c #69C12A",
"(!	c #7CC847",
")!	c #D7EEC6",
"*!	c #FDFEFC",
"+!	c #FCFEFC",
",!	c #E5F4DA",
"-!	c #9CD673",
".!	c #65C025",
"0!	c #6AC12E",
"1!	c #6AC22E",
"2!	c #62BE29",
"3!	c #41A81D",
"4!	c #489E42",
"5!	c #D9E7D5",
"6!	c #BBE2B8",
"7!	c #1FB51B",
"8!	c #86D267",
"9!	c #8CD163",
":!	c #7ECA4C",
";!	c #70C435",
"<!	c #6BC22D",
"=!	c #6BC22F",
">!	c #9CD674",
"?!	c #FCFDFA",
"@!	c #FCFEFB",
"A!	c #9DD674",
"B!	c #64BF25",
"C!	c #66C12B",
"D!	c #63C02A",
"E!	c #5FBF27",
"F!	c #4BB21E",
"G!	c #3A9C28",
"H!	c #90BF8D",
"I!	c #62C75F",
"J!	c #41BC2E",
"K!	c #7FCB53",
"L!	c #76C640",
"M!	c #6DC332",
"N!	c #68C129",
"O!	c #68C029",
"P!	c #66C027",
"Q!	c #6CC22F",
"R!	c #9DD675",
"S!	c #E3F3D7",
"T!	c #FEFEFD",
"U!	c #E4F4DA",
"V!	c #99D673",
"W!	c #5BBE20",
"X!	c #5ABE24",
"Y!	c #57BE24",
"Z!	c #4EB920",
"[!	c #38A21C",
"]!	c #5BA25A",
"^!	c #30B52D",
"_!	c #50BC2D",
"`!	c #6EC335",
"a!	c #7CC845",
"b!	c #97D46C",
"c!	c #9CD773",
"d!	c #9AD672",
"e!	c #97D46D",
"f!	c #9ED777",
"g!	c #CEEBBA",
"h!	c #F8FCF5",
"i!	c white",
"j!	c #E2F3D8",
"k!	c #88D062",
"l!	c #4FBB1C",
"m!	c #4FBB1F",
"n!	c #48BA1D",
"o!	c #33A415",
"p!	c #43933E",
"q!	c #E0EADD",
"r!	c #0FA60F",
"s!	c #59BC27",
"t!	c #69C12C",
"u!	c #9AD570",
"v!	c #E0F2D4",
"w!	c #E9F6E0",
"x!	c #E8F6DF",
"y!	c #E8F6DE",
"z!	c #E5F4DB",
"{!	c #EBF7E4",
"|!	c #FAFDF8",
"}!	c #D6EECA",
"~!	c #83CE62",
" #	c #45B81A",
"!#	c #40B819",
"##	c #30A613",
"$#	c #3F9237",
"%#	c #BDD4B8",
"&#	c #059F05",
"'#	c #A3D97D",
"(#	c #F5FBF1",
")#	c #F7FCF5",
"*#	c #F6FBF3",
"+#	c #F6FBF4",
",#	c #FBFDFA",
"-#	c #FEFEFE",
".#	c #F1FAEE",
"0#	c #ADE19E",
"1#	c #43BA20",
"2#	c #36B614",
"3#	c #2AA410",
"4#	c #42933A",
"5#	c #C3D6BE",
"6#	c #119F11",
"7#	c #56B925",
"8#	c #6AC12D",
"9#	c #67C029",
":#	c #90D061",
";#	c #C6E7AF",
"<#	c #CDEAB8",
"=#	c #CCEAB8",
">#	c #CBE9B8",
"?#	c #C9E9B6",
"@#	c #C5E8B3",
"A#	c #D2EDC5",
"B#	c #F0F9EC",
"C#	c #F7FCF6",
"D#	c #C3EAB9",
"E#	c #6CCA54",
"F#	c #39B919",
"G#	c #2FB510",
"H#	c #25A10E",
"I#	c #418D39",
"J#	c #C5D6C0",
"K#	c #32A731",
"L#	c #47B21F",
"M#	c #68C12D",
"N#	c #6AC22C",
"O#	c #74C53A",
"P#	c #81CB4D",
"Q#	c #83CC50",
"R#	c #80CB4F",
"S#	c #7DCA4D",
"T#	c #78C94A",
"U#	c #72C845",
"V#	c #7BCC55",
"W#	c #B7E3A3",
"X#	c #F2FAEF",
"Y#	c #CDEDC4",
"Z#	c #63C74A",
"[#	c #2DB40C",
"]#	c #2CB50E",
"^#	c #28B30D",
"_#	c #1D9A0B",
"`#	c #478843",
"a#	c #E2EADF",
"b#	c #6BBB68",
"c#	c #35A718",
"d#	c #66C02C",
"e#	c #6CC22E",
"f#	c #68C12B",
"g#	c #61BE23",
"h#	c #5DBD21",
"i#	c #57BC1E",
"j#	c #51BB1A",
"k#	c #59BE28",
"l#	c #94D676",
"m#	c #E0F2D6",
"n#	c #F6FBF5",
"o#	c #CBECC3",
"p#	c #6ACA54",
"q#	c #29B20A",
"r#	c #28B40D",
"s#	c #25B40D",
"t#	c #1FAC09",
"u#	c #1A8C0D",
"v#	c #5B8C58",
"w#	c #BDDDB9",
"x#	c #19950E",
"y#	c #5EBA27",
"z#	c #6CC12D",
"{#	c #64C02B",
"|#	c #60BF28",
"}#	c #5ABE25",
"~#	c #54BD21",
" $	c #5BBF2E",
"!$	c #98D87D",
"#$	c #E7F5E0",
"$$	c #C9EBC1",
"%$	c #68C953",
"&$	c #26B207",
"'$	c #25B30B",
"($	c #23B40C",
")$	c #1CB109",
"*$	c #159E07",
"+$	c #26801E",
",$	c #8BAB87",
"-$	c #329A2F",
".$	c #44A91D",
"0$	c #63BE29",
"1$	c #5CBF26",
"2$	c #57BD24",
"3$	c #52BC20",
"4$	c #4ABA1B",
"5$	c #72CA50",
"6$	c #DAF1D2",
"7$	c #C8EBC0",
"8$	c #66C851",
"9$	c #22B106",
":$	c #22B209",
";$	c #20B30A",
"<$	c #1BB108",
"=$	c #14AA05",
">$	c #128C08",
"?$	c #4C8448",
"@$	c #DBE3D8",
"A$	c #A3CFA0",
"B$	c #2A941E",
"C$	c #48AF1D",
"D$	c #59BD25",
"E$	c #55BE23",
"F$	c #4EBC20",
"G$	c #49BA1D",
"H$	c #42B817",
"I$	c #71CB55",
"J$	c #D3EFCC",
"K$	c #F0F9EE",
"L$	c #C8EBC1",
"M$	c #65C851",
"N$	c #20B105",
"O$	c #1FB208",
"P$	c #1DB209",
"Q$	c #17B107",
"R$	c #12AC04",
"S$	c #0D9603",
"T$	c #25791F",
"U$	c #8CA688",
"V$	c #5FA85F",
"W$	c #299516",
"X$	c #43AF1A",
"Y$	c #4BBA1E",
"Z$	c #47BB1C",
"[$	c #41B91A",
"]$	c #3BB716",
"^$	c #47BC26",
"_$	c #83D270",
"`$	c #9EDC93",
"a$	c #62C84F",
"b$	c #1FB106",
"c$	c #1CB107",
"d$	c #1AB208",
"e$	c #16B005",
"f$	c #0FAB03",
"g$	c #0B9802",
"h$	c #197716",
"i$	c #6A8F67",
"j$	c #E1E6DD",
"k$	c #E1ECDD",
"l$	c #67A865",
"m$	c #2F931E",
"n$	c #31A212",
"o$	c #3AB317",
"p$	c #38B715",
"q$	c #34B614",
"r$	c #2FB50F",
"s$	c #1AAF04",
"t$	c #1AB103",
"u$	c #1AB108",
"v$	c #16B007",
"w$	c #11AD04",
"x$	c #0CA702",
"y$	c #098D04",
"z$	c #21751E",
"{$	c #749371",
"|$	c #DAE0D8",
"}$	c #E2ECDF",
"~$	c #80B27D",
" %	c #349129",
"!%	c #249411",
"#%	c #28A20F",
"$%	c #29AD0E",
"%%	c #27B10C",
"&%	c #22B20B",
"'%	c #1CB008",
"(%	c #17AF07",
")%	c #13AE04",
"*%	c #0EA703",
"+%	c #0B9703",
",%	c #0C8107",
"-%	c #2D762A",
".%	c #7A9977",
"0%	c #DAE1D8",
"1%	c #99C197",
"2%	c #579952",
"3%	c #308B25",
"4%	c #1F8B10",
"5%	c #19900A",
"6%	c #169209",
"7%	c #139007",
"8%	c #108E06",
"9%	c #0E8906",
":%	c #12800C",
";%	c #267A21",
"<%	c #53824F",
"=%	c #9DAF9A",
">%	c #E1E7DF",
"?%	c #DAE5D6",
"@%	c #96B993",
"A%	c #6F9E6E",
"B%	c #5B9257",
"C%	c #4F8D49",
"D%	c #508C4B",
"E%	c #4F8A49",
"F%	c #5A8B58",
"G%	c #739371",
"H%	c #95AA92",
"I%	c #D3DBCF",
"J%	c #D8E0D3",
"K%	c #B9C9B2",
"L%	c #BFCCB8",
"M%	c #BCCAB4",
"N%	c #D9E0D5",
"              # $ % & ' ( ) * +                 ",
"          , - . 0 1 2 3 4 5 6 7 8 9             ",
"        : ; < = > ? @ A B C D E F G H I         ",
"      J K L M N O P Q R S T U U V W X Y Z       ",
"    [ ] ^ _ ` a b c d e f g h U U i j k l       ",
"  m n o p q r s t u v w x y z h U U V { | }     ",
"  ~  !!!#!$!%!&!'!(!)!*!+!,!-!.!h 0!1!2!3!4!5!  ",
"6!7!8!9!:!;!<!h g =!>!,!?!@!x A!B!C!D!E!F!G!H!  ",
"I!J!K!L!M!N!O!g g P!Q!R!S!T!+!U!V!W!X!Y!Z![!]!  ",
"^!_!`!i a!b!c!d!d!d!e!f!g!h!i!@!j!k!l!m!n!o!p!q!",
"r!s!t!z u!v!w!x!x!x!y!z!{!|!i!i!@!}!~! #!###$#%#",
"&#2!U B!'#(#h!h!)#)#w *#+#,#i!i!-#.#0#1#2#3#4#5#",
"6#7#8#9#:#;#g!<#=#>#?#@#A#B#i!-#C#D#E#F#G#H#I#J#",
"K#L#M#N#O#P#Q#R#S#T#U#V#W#X#-#)#Y#Z#[#]#^#_#`#a#",
"b#c#d#e#f#B!g#h#i#j#k#l#m#-#n#o#p#q#r#s#t#u#v#  ",
"w#x#y#z#V {#|#}#~# $!$#$-#+#$$%$&$'$($)$*$+$,$  ",
"  -$.$0$D!1$2$3$4$5$6$-#n#7$8$9$:$;$<$=$>$?$@$  ",
"  A$B$C$D$E$F$G$H$I$J$K$L$M$N$O$P$Q$R$S$T$U$    ",
"    V$W$X$Y$Z$[$]$^$_$`$a$b$c$d$e$f$g$h$i$j$    ",
"    k$l$m$n$o$p$q$r$9$s$t$u$v$w$x$y$z${$|$      ",
"      }$~$ %!%#%$%%%&%'%(%)%*%+%,%-%.%0%        ",
"          1%2%3%4%5%6%7%8%9%:%;%<%=%>%          ",
"            ?%@%A%B%C%D%E%F%G%H%I%              ",
"                  J%K%L%M%N%                    "};