/* XPM */ 
static const char * processing_xpm[] = {
"20 18 148 2",
"  	c None",
"! 	c white",
"# 	c #FBFBFB",
"$ 	c #E0E0E0",
"% 	c #BFC0BF",
"& 	c #D1CCD1",
"' 	c #FDFDFD",
"( 	c #FAFAFA",
") 	c #E6E6E6",
"* 	c #F2F2F2",
"+ 	c #F8F7F8",
", 	c #C4C0C4",
"- 	c #9B9C9B",
". 	c #B6B2B6",
"0 	c #D7D2D7",
"1 	c #D2CDD2",
"2 	c #B5B1B5",
"3 	c #D1D2D1",
"4 	c #FDFCFD",
"5 	c #F1EBF1",
"6 	c #EFEAEF",
"7 	c #E0DFE0",
"8 	c #BAB7BA",
"9 	c #A4A5A4",
": 	c #A4A0A4",
"; 	c #A5A7A5",
"< 	c #B6B7B6",
"= 	c #DCD7DC",
"> 	c #B3B4B3",
"? 	c #BCB9BC",
"@ 	c #D5D0D5",
"A 	c #C1BDC1",
"B 	c #7D7F7D",
"C 	c #7A7C7A",
"D 	c #D7D3D7",
"E 	c #E0E2E0",
"F 	c #AAACAA",
"G 	c #787B78",
"H 	c #B8BAB8",
"I 	c #E8E8E8",
"J 	c #FEFEFE",
"K 	c #EEE9EE",
"L 	c #878387",
"M 	c #6C6F6C",
"N 	c #CDCDCD",
"O 	c #FDF9FD",
"P 	c #F3EDF3",
"Q 	c #B2AEB2",
"R 	c #E1DCE1",
"S 	c #767876",
"T 	c #ABA6AB",
"U 	c #EBE7EB",
"V 	c #ECEBEC",
"W 	c #C9C4C9",
"X 	c #F2EDF2",
"Y 	c #F5F5F5",
"Z 	c #ADAEAD",
"[ 	c #9E999E",
"] 	c #E1DDE1",
"^ 	c #C9CAC9",
"_ 	c #B9B6B9",
"` 	c #B1B3B1",
"a 	c #C5C6C5",
"b 	c #FDF8FD",
"c 	c #D0D1D0",
"d 	c #A09DA0",
"e 	c #B9BAB9",
"f 	c #D8D9D8",
"g 	c #C6C7C6",
"h 	c #A7A8A7",
"i 	c #A3A5A3",
"j 	c #C4C5C4",
"k 	c #FBF6FB",
"l 	c #FBFAFB",
"m 	c #DBD7DB",
"n 	c #ADADAD",
"o 	c #C7C5C7",
"p 	c #E4E6E4",
"q 	c #C7C3C7",
"r 	c #898A89",
"s 	c #B9B9B9",
"t 	c #EFEBEF",
"u 	c #F9FAF9",
"v 	c #D3D5D3",
"w 	c #C4C2C4",
"x 	c #E2E3E2",
"y 	c #AAA6AA",
"z 	c #B7B4B7",
"{ 	c #FCFCFC",
"| 	c #F6F6F6",
"} 	c #D2D4D2",
"~ 	c #C5C5C5",
" !	c #E9E4E9",
"!!	c #E6E1E6",
"#!	c #C6C1C6",
"$!	c #BCB8BC",
"%!	c #BDBBBD",
"&!	c #E2E1E2",
"'!	c #FAF9FA",
"(!	c #F9F9F9",
")!	c #E7E8E7",
"*!	c #B9B5B9",
"+!	c #D8D4D8",
",!	c #C1C2C1",
"-!	c #B5B2B5",
".!	c #B4B6B4",
"0!	c #9A9B9A",
"1!	c #B0ADB0",
"2!	c #D3D0D3",
"3!	c #DEDDDE",
"4!	c #C7C7C7",
"5!	c #C1C3C1",
"6!	c #CBC7CB",
"7!	c #E4E1E4",
"8!	c #E5E4E5",
"9!	c #D4D0D4",
":!	c #DEDEDE",
";!	c #999A99",
"<!	c #868886",
"=!	c #ACA9AC",
">!	c #929392",
"?!	c #B0AEB0",
"@!	c #DADCDA",
"A!	c #F0F0F0",
"B!	c #B4B1B4",
"C!	c #8D8E8D",
"D!	c #ACADAC",
"E!	c #999B99",
"F!	c #575A57",
"G!	c #CFD0CF",
"H!	c #F1F1F1",
"I!	c #E4E5E4",
"J!	c #A4A2A4",
"K!	c #808180",
"L!	c #989798",
"M!	c #A6A3A6",
"N!	c #848684",
"O!	c #9F9B9F",
"P!	c #CACBCA",
"Q!	c #EAEAEA",
"R!	c #F5F4F5",
"S!	c #EFEFEF",
"T!	c #E3E3E3",
"U!	c #D5D6D5",
"V!	c #CCC7CC",
"W!	c #D8D3D8",
"X!	c #F2F1F2",
"Y!	c #FDF7FD",
"! ! ! ! ! ! ! ! ! ! ! ! ! ! ! ! ! ! ! ! ",
"! ! ! ! ! ! # $ % & ' ( ) * ! ! ! ! ! ! ",
"! ! ! ! ! ! + , - . 0 1 2 3 ! ! ! ! ! ! ",
"! ! ! ! 4 5 6 7 8 9 : ; < = ! ! ! ! ! ! ",
"! ! ! ! 8 ; > ? < @ A B C . D E ' ! ! ! ",
"! ! ! ! F G ; H I ! J K L M F N O ! ! ! ",
"! ! ! ! P Q . = ! ! ! 4 R S T U ! ! ! ! ",
"! ! ! ! V W , X ! ! ! ! Y Z [ ] ! ! ! ! ",
"! ! ' ^ _ ` a b ! ! ! ! ( c d e f ' ! ! ",
"! ! ' g h i j k ! ! ! ! l m n o p ! ! ! ",
"! ! ! ! q r s t ! ! ! J u v w x ! ! ! ! ",
"! ! ! ! 5 y z f { ! ! J | } ~  !J ! ! ! ",
"! ! ! ! !!#!$!%!&!'!# (!)!g *!+!' ! ! ! ",
"! ! ! ! ,!-!.!0!1!2!3!+!4!5!6!7!! ! ! ! ",
"! ! ! ! 8!9!:!;!<!` =!>!?!@!! ! ! ! ! ! ",
"! ! ! J ' # A!B!C!D!E!F!r G!{ ' J ! ! ! ",
"! ! ! ' H!I!} J!K!L!M!N!O!P!Q!R!O ! ! ! ",
"! ! ! ! # S!T!U!V!W!!!X!Y!' ' ! ! ! ! ! "};