/* XPM */ 
static const char * tab_xpm[] = {
"20 18 159 2",
"  	c None",
"! 	c white",
"# 	c #F3F3F8",
"$ 	c #E7E9F4",
"% 	c #E8EAF3",
"& 	c #E9EAF6",
"' 	c #E8EBF6",
"( 	c #E8EAF6",
") 	c #E9EBF5",
"* 	c #F2F2F6",
"+ 	c #C0C7DF",
", 	c #BCC5DD",
"- 	c #BCC4DD",
". 	c #BCC5DF",
"0 	c #BCC4DF",
"1 	c #BDC4DE",
"2 	c #BCC4DE",
"3 	c #BCC3DE",
"4 	c #BBC2DD",
"5 	c #C3CBE1",
"6 	c #EBECF5",
"7 	c #F6F6FB",
"8 	c #F5F5FB",
"9 	c #F5F5FA",
": 	c #F5F6FA",
"; 	c #F6F7FB",
"< 	c #FAFAFC",
"= 	c #ADB4C9",
"> 	c #E9CA87",
"? 	c #EAC97D",
"@ 	c #E9C67A",
"A 	c #E9C073",
"B 	c #E7BA6A",
"C 	c #E5B461",
"D 	c #E3AD55",
"E 	c #D7A661",
"F 	c #B1ADB7",
"G 	c #B7C4E2",
"H 	c #C0C9E1",
"I 	c #BDC7E0",
"J 	c #BAC4DD",
"K 	c #BEC5DF",
"L 	c #C0C8E0",
"M 	c #C0C8E1",
"N 	c #B2B7C9",
"O 	c #F4D07D",
"P 	c #F9CF6F",
"Q 	c #F6CA6E",
"R 	c #F5C466",
"S 	c #F3BD5C",
"T 	c #F1B64F",
"U 	c #EFAE43",
"V 	c #DEA64F",
"W 	c #B8B3B3",
"X 	c #CBD7EF",
"Y 	c #D5E0EE",
"Z 	c #C9D5E9",
"[ 	c #B5C3DD",
"] 	c #CBD5E9",
"^ 	c #D1DDEF",
"_ 	c #C2CEE6",
"` 	c #AEBBD9",
"a 	c #BEC8DE",
"b 	c #C7CAD4",
"c 	c #C7CAD2",
"d 	c #C7C9D2",
"e 	c #C7C8D1",
"f 	c #C6C8D0",
"g 	c #C6C7CC",
"h 	c #C6C6CB",
"i 	c #C4C5CE",
"j 	c #C1C8DC",
"k 	c #C9D2E8",
"l 	c #CDD5E8",
"m 	c #CAD2E9",
"n 	c #C3CCE5",
"o 	c #C9D1E7",
"p 	c #CCD5E9",
"q 	c #C6D1E6",
"r 	c #C0CBE4",
"s 	c #C0CAE1",
"t 	c #E4ECFB",
"u 	c #E5EBFB",
"v 	c #E4EBFB",
"w 	c #E5ECFB",
"x 	c #E4EDFC",
"y 	c #E4EDFD",
"z 	c #E5EDFC",
"{ 	c #E7ECF9",
"| 	c #E7EAF7",
"} 	c #E6EAF7",
"~ 	c #E7EBFA",
" !	c #E6EBF8",
"!!	c #E5EBF6",
"#!	c #D9E0F0",
"$!	c #C2CCE5",
"%!	c #B4BFDC",
"&!	c #DDE9F8",
"'!	c #E0E8F8",
"(!	c #DFE8F7",
")!	c #E2E8F7",
"*!	c #E1E8F6",
"+!	c #DFE8F5",
",!	c #DFE8F6",
"-!	c #DFE9F7",
".!	c #DEE8F6",
"0!	c #DEE8F8",
"1!	c #E0E9F8",
"2!	c #D2DBEE",
"3!	c #B8C2DD",
"4!	c #ADBADC",
"5!	c #D3E1F2",
"6!	c #D5E0F2",
"7!	c #D3E0F1",
"8!	c #D4E0F0",
"9!	c #D4E0F1",
":!	c #D4E0F2",
";!	c #D6E2F3",
"<!	c #C8D5EB",
"=!	c #B0BEDB",
">!	c #D0DFF0",
"?!	c #D3E0F0",
"@!	c #D0E0EF",
"A!	c #D1E0EF",
"B!	c #D1E0F0",
"C!	c #C6D5EA",
"D!	c #B0BDDA",
"E!	c #ADBADB",
"F!	c #D1E0F2",
"G!	c #CFDFF1",
"H!	c #D0DFF1",
"I!	c #D1E0F1",
"J!	c #D2E1F2",
"K!	c #C5D4E9",
"L!	c #AFBDDA",
"M!	c #ADBADA",
"N!	c #D0DFEE",
"O!	c #D0E0F1",
"P!	c #CEDFEF",
"Q!	c #CEDFF0",
"R!	c #D1E1F2",
"S!	c #C5D4E8",
"T!	c #AFBCD9",
"U!	c #ACB9D9",
"V!	c #CEDFED",
"W!	c #D0E0F0",
"X!	c #CDDFEF",
"Y!	c #C4D3E7",
"Z!	c #AEBBD8",
"[!	c #AAB7D7",
"]!	c #C5D5E8",
"^!	c #C6D6EA",
"_!	c #C4D5E9",
"`!	c #C5D5E9",
"a!	c #BDCBE2",
"b!	c #ABB8D6",
"c!	c #C3CCE1",
"d!	c #C1CAE1",
"e!	c #C2CBE1",
"! ! ! ! ! ! ! ! ! ! ! ! ! ! ! ! ! ! ! ! ",
"! ! ! ! ! ! ! ! ! ! ! ! ! ! ! ! ! ! ! ! ",
"! # $ % & ' ( & ( ) * ! ! ! ! ! ! ! ! ! ",
"! + , - . 0 1 2 3 4 5 6 7 8 9 9 : ; < ! ",
"! = > ? @ A B C D E F G H I J K L M H ! ",
"! N O P Q R S T U V W X Y Z [ ] ^ _ ` ! ",
"! a b c d e f g h i j k l m n o p q r ! ",
"! s t u v t w x y z { | } } ~  !!!#!$!! ",
"! %!&!'!(!)!*!+!+!,!(!,!-!-!.!0!1!2!3!! ",
"! 4!5!6!7!7!7!8!8!8!9!8!9!9!7!:!;!<!=!! ",
"! 4!>!?!@!@!@!@!@!@!@!@!@!@!A!B!5!C!D!! ",
"! E!>!F!G!H!H!H!H!H!H!H!H!H!H!I!J!K!L!! ",
"! M!N!O!P!P!P!P!P!P!P!P!P!P!P!Q!R!S!T!! ",
"! U!V!W!X!X!X!X!X!X!X!X!X!X!X!Q!O!Y!Z!! ",
"! [!]!^!_!_!_!_!_!_!_!_!_!_!_!`!^!a!b!! ",
"! c!d!d!d!d!d!d!d!d!d!d!d!d!d!d!d!e!c!! ",
"! ! ! ! ! ! ! ! ! ! ! ! ! ! ! ! ! ! ! ! ",
"! ! ! ! ! ! ! ! ! ! ! ! ! ! ! ! ! ! ! ! "};