/* XPM */ 
static const char * window_xpm[] = {
"20 18 77 1",
" 	c None",
"!	c white",
"#	c #FEFEFE",
"$	c #FDFDFD",
"%	c #373737",
"&	c #302F2E",
"'	c #313030",
"(	c #6D6D6F",
")	c #95A0B0",
"*	c #808DA0",
"+	c #8491A2",
",	c #8390A2",
"-	c #818EA5",
".	c #8D9094",
"0	c #7E9ECB",
"1	c #4E73A9",
"2	c #5C7EAF",
"3	c #5A7DAF",
"4	c #597CB0",
"5	c #5479B4",
"6	c #888A8D",
"7	c #B1C2DB",
"8	c #8FA3C0",
"9	c #97AAC5",
":	c #96A9C5",
";	c #91A8CB",
"<	c #8F8F8F",
"=	c #F9FBFE",
">	c #F3F5F8",
"?	c #F4F6F9",
"@	c #F3F6FB",
"A	c #909090",
"B	c #FFFFFD",
"C	c #ECECEC",
"D	c #EEEEEE",
"E	c #FAFAFA",
"F	c #ABABAB",
"G	c #FBFBFB",
"H	c #E7E7E7",
"I	c #E9E9E9",
"J	c #E8E8E8",
"K	c #F6F6F6",
"L	c #AAAAAA",
"M	c #8E8E8E",
"N	c #F8F8F8",
"O	c #E4E4E4",
"P	c #E6E6E6",
"Q	c #E5E5E5",
"R	c #F3F3F3",
"S	c #A9A9A9",
"T	c #8C8C8C",
"U	c #F4F4F4",
"V	c #E1E1E1",
"W	c #E3E3E3",
"X	c #EFEFEF",
"Y	c #A6A6A6",
"Z	c #8B8B8B",
"[	c #F1F1F1",
"]	c #DEDEDE",
"^	c #E0E0E0",
"_	c #A4A4A4",
"`	c #F7F7F7",
"a	c #676767",
"b	c #AFAFAF",
"c	c #ACACAC",
"d	c #797979",
"e	c #363636",
"f	c #2C2C2C",
"g	c #2D2D2D",
"h	c #333333",
"i	c #FCFCFC",
"j	c #DFDFDF",
"k	c #D1D1D1",
"l	c #D8D8D8",
"m	c #EDEDED",
"n	c #F2F2F2",
"o	c #F5F5F5",
"!!!!!!!!#$!!!!!#$!!!",
"!!%&'''''''''''''%!!",
"!!()*+,,,,,-,,,,,(!!",
"!!.01233334533333.!!",
"!!.01233334533333.!!",
"!!.01233334533333.!!",
"!!.01233334533333.!!",
"!!.01233334533333.!!",
"!!A!BBBBBBBB!BBBBA!!",
"!!<#CDDDDDDDDDDCEF!!",
"!!<GHIIIIIIIIIIJKL!!",
"!!MNOPPPPPPPPPPQRS!!",
"!!TUVWWWWWWWWWWVXY!!",
"!!Z[]^^^^^^^^^^]C_!!",
"!!A`PJJJJJJJJJJHRL!!",
"!#ab____________cd#!",
"!#efggggggggggggfhi!",
"!#$EUDHjklWmno`Ei#!!"};