/* XPM */ 
static const char * workflow_xpm[] = {
"20 18 288 2",
"  	c None",
"! 	c white",
"# 	c #FDFCFF",
"$ 	c #F6F7FD",
"% 	c #F0F3F9",
"& 	c #EDEEF5",
"' 	c #F4F5FB",
"( 	c #F9FBFF",
") 	c #F6F6F9",
"* 	c #D1D1D6",
"+ 	c #E7E8EE",
", 	c #F6F8FB",
"- 	c #FAFAFF",
". 	c #D8DAE3",
"0 	c #D5DAE4",
"1 	c #D5DBE4",
"2 	c #D8DEE8",
"3 	c #E0E5F0",
"4 	c #D1D6E0",
"5 	c #A7ACB5",
"6 	c #999EA6",
"7 	c #9FA4AC",
"8 	c #ADB3BB",
"9 	c #C2C7CD",
": 	c #D2D5DD",
"; 	c #C6CCD3",
"< 	c #D4DAE0",
"= 	c #DBDFE7",
"> 	c #E5E7EE",
"? 	c #FBFAFF",
"@ 	c #F8FBFF",
"A 	c #E1E8F3",
"B 	c #DEE3EF",
"C 	c #DCE3ED",
"D 	c #DEE5ED",
"E 	c #ADAFB6",
"F 	c #B6BAC4",
"G 	c #90959C",
"H 	c #B3B8C0",
"I 	c #B0B6BF",
"J 	c #9EA3AC",
"K 	c #959BA3",
"L 	c #BDC5CF",
"M 	c #CAD2DD",
"N 	c #D6DBE6",
"O 	c #D4DAE6",
"P 	c #DCE2EC",
"Q 	c #F0F5FD",
"R 	c #D7D9DF",
"S 	c #9CA2AC",
"T 	c #D9DFE8",
"U 	c #90969F",
"V 	c #B1B6BF",
"W 	c #AEB3BC",
"X 	c #72777F",
"Y 	c #B7BDC5",
"Z 	c #ABB2BA",
"[ 	c #9FA5AD",
"] 	c #999EA5",
"^ 	c #D9DEE8",
"_ 	c #DAE0EA",
"` 	c #D1D8E3",
"a 	c #BBC1CC",
"b 	c #ABB1BC",
"c 	c #B8BDC7",
"d 	c #DDDFE7",
"e 	c #DFDFE5",
"f 	c #61666D",
"g 	c #C3CAD4",
"h 	c #B9BFCA",
"i 	c #747881",
"j 	c #B3B8C3",
"k 	c #90949D",
"l 	c #ACB2BB",
"m 	c #8C919A",
"n 	c #979CA4",
"o 	c #E1E6F0",
"p 	c #D9E1EC",
"q 	c #C5CDDC",
"r 	c #B3BCCC",
"s 	c #ADB5C6",
"t 	c #A8B0C2",
"u 	c #B8BECD",
"v 	c #DBDEE8",
"w 	c #E4E4EA",
"x 	c #747984",
"y 	c #8C929E",
"z 	c #A5ABB7",
"{ 	c #6D7078",
"| 	c #5A5E64",
"} 	c #646870",
"~ 	c #696D73",
" !	c #ADB1BA",
"!!	c #D4DBE5",
"#!	c #DBE3EE",
"$!	c #C8D2E1",
"%!	c #BCC7DC",
"&!	c #CDD8F0",
"'!	c #D5E0F4",
"(!	c #E0E7F6",
")!	c #F4F8FF",
"*!	c #C0C1C9",
"+!	c #757C87",
",!	c #8A8F99",
"-!	c #797D86",
".!	c #65686E",
"0!	c #666A73",
"1!	c #A4ACB7",
"2!	c #BFC7D2",
"3!	c #9BA2AC",
"4!	c #D5DDE9",
"5!	c #D9E3F1",
"6!	c #C1CBDE",
"7!	c #CFD9EF",
"8!	c #D9E3F2",
"9!	c #D8E1ED",
":!	c #D5DEEB",
";!	c #DEE5F1",
"<!	c #F3F7FE",
"=!	c #C2C5CD",
">!	c #858C97",
"?!	c #959AA5",
"@!	c #787C86",
"A!	c #71757E",
"B!	c #555A60",
"C!	c #838992",
"D!	c #CBD1DD",
"E!	c #E8EEFB",
"F!	c #D5DFEC",
"G!	c #C9D3E2",
"H!	c #DCE4F0",
"I!	c #DEE5EE",
"J!	c #DCE2ED",
"K!	c #D6E0ED",
"L!	c #DDE7F3",
"M!	c #F3F8FF",
"N!	c #D1D3DB",
"O!	c #8F94A1",
"P!	c #818590",
"Q!	c #828791",
"R!	c #818690",
"S!	c #66696F",
"T!	c #9FA7B1",
"U!	c #AFB5C0",
"V!	c #E7EFFC",
"W!	c #D9E2F0",
"X!	c #D2DCEA",
"Y!	c #DFE8F5",
"Z!	c #DEE6F4",
"[!	c #DDE6F2",
"]!	c #C6C8CF",
"^!	c #ABAEB6",
"_!	c #A7AAB3",
"`!	c #A4A9B4",
"a!	c #757A81",
"b!	c #5F636B",
"c!	c #91979F",
"d!	c #BAC1CD",
"e!	c #D9E1ED",
"f!	c #ECF3FC",
"g!	c #DFE7F3",
"h!	c #D8E0EC",
"i!	c #E2ECF8",
"j!	c #DEE8F7",
"k!	c #DDE5F2",
"l!	c #D8E0ED",
"m!	c #F2F6FD",
"n!	c #DBDBE0",
"o!	c #EDEDF0",
"p!	c #F9FAFA",
"q!	c #CBCDD5",
"r!	c #7C818B",
"s!	c #60656C",
"t!	c #676B71",
"u!	c #5E6367",
"v!	c #9198A1",
"w!	c #E8F1FC",
"x!	c #E6EFFB",
"y!	c #DBE5F3",
"z!	c #E5EFFE",
"{!	c #E1ECFC",
"|!	c #DEE7F6",
"}!	c #D9E1EF",
"~!	c #DDE5F0",
" #	c #F0F4FC",
"!#	c #FEFEFE",
"##	c #F8F9FA",
"$#	c #727681",
"%#	c #6D727A",
"&#	c #B4BCC7",
"'#	c #E0EAF3",
"(#	c #DCE6F1",
")#	c #EDF7FB",
"*#	c #E9F3FC",
"+#	c #DDE7F6",
",#	c #E3EEFE",
"-#	c #DFEAFA",
".#	c #DAE3F1",
"0#	c #DAE2EC",
"1#	c #E7ECF4",
"2#	c #FEFDFD",
"3#	c #F9F9FA",
"4#	c #C5C8CF",
"5#	c #767C85",
"6#	c #878C97",
"7#	c #7F848F",
"8#	c #8B919B",
"9#	c #989EA8",
":#	c #CCD4DD",
";#	c #F0FAFD",
"<#	c #E0ECFB",
"=#	c #E3EFFE",
">#	c #E6F0FF",
"?#	c #E2EDFD",
"@#	c #D8E2F2",
"A#	c #D4DCE6",
"B#	c #E0E5ED",
"C#	c #FDFAFD",
"D#	c #F5F4F7",
"E#	c #B2B6BD",
"F#	c #858B95",
"G#	c #7C828C",
"H#	c #60646C",
"I#	c #7C8085",
"J#	c #B8BCC2",
"K#	c #F7FCFF",
"L#	c #E8F4FE",
"M#	c #E3EFFD",
"N#	c #E8F3FF",
"O#	c #E4EEFD",
"P#	c #D6E2F4",
"Q#	c #D1DAED",
"R#	c #E4E9F6",
"S#	c #F6F6F6",
"T#	c #F7F7F8",
"U#	c #D5D8DA",
"V#	c #838892",
"W#	c #6C717A",
"X#	c #666A74",
"Y#	c #ADB3C0",
"Z#	c #F2F2F4",
"[#	c #EFF0F1",
"]#	c #F1F5F6",
"^#	c #F0FAFF",
"_#	c #E7F1FF",
"`#	c #E9F5FF",
"a#	c #E5F1FE",
"b#	c #D7E2F5",
"c#	c #D1D9EC",
"d#	c #E3E8F3",
"e#	c #F4F5F4",
"f#	c #F7F8F6",
"g#	c #E0E1E4",
"h#	c #798089",
"i#	c #6A6F79",
"j#	c #808791",
"k#	c #8C929C",
"l#	c #7C818A",
"m#	c #A7ADB5",
"n#	c #EBF5FE",
"o#	c #E4F0FE",
"p#	c #E6F3FF",
"q#	c #D6E2F1",
"r#	c #CBD3E0",
"s#	c #DEE2E8",
"t#	c #F4F5F5",
"u#	c #C6C9CF",
"v#	c #878B95",
"w#	c #70767F",
"x#	c #676C72",
"y#	c #484B51",
"z#	c #676B72",
"{#	c #A5ABB4",
"|#	c #EFF9FF",
"}#	c #F2FAFE",
"~#	c #E4EFFE",
" $	c #E7F3FF",
"!$	c #E9EBF1",
"#$	c #FCFBFC",
"$$	c #E1E1E6",
"%$	c #BBBEC5",
"&$	c #BABDC4",
"'$	c #B2B3B9",
"($	c #B5B7BD",
")$	c #FDFFFF",
"*$	c #FBFFFF",
"+$	c #FCFDFF",
",$	c #FBFCFF",
"! ! # $ % & ' ( ) * + , ! ! ! ! ! ! ! ! ",
"! - . 0 1 2 3 4 5 6 7 8 9 : ; < = > ? ! ",
"! @ A B C D E F G H I J K L M N O P Q ! ",
"! R S T U V W X Y Z [ ] ^ _ ` a b c d ! ",
"! e f g h i j k l m n o p q r s t u v ! ",
"! w x y z { | } ~  !!!#!$!%!&!'!'!(!)!! ",
"! *!+!,!-!.!0!1!2!3!4!5!6!7!8!9!:!;!<!! ",
"! =!>!?!@!A!0!B!C!D!E!F!G!H!I!J!K!L!M!! ",
"! N!O!P!Q!R!S!8 T!U!V!W!X!Y!Z!H!K![!<!! ",
"! ]!^!_!`!a!b!c!d!e!f!g!h!i!j!k!l!;!m!! ",
"! n!o!p!q!r!s!t!u!v!w!x!y!z!{!|!}!~! #! ",
"! ! !###=!$#%#&#'#(#)#*#+#z!,#-#.#0#1#! ",
"! ! 2#3#4#5#6#7#8#9#:#;#<#=#>#?#@#A#B#! ",
"! ! C#D#E#F#G#H#| I#J#K#L#M#N#O#P#Q#R#! ",
"! ! S#T#U#V#W#X#Y#Z#[#]#^#_#`#a#b#c#d#! ",
"! ! e#f#g#U h#i#j#k#l#m#^#n#o#p#q#r#s#! ",
"! ! e#t#u#v#X w#x#y#z#{#|#}#~# $5!` !$! ",
"! ! ! ! #$$$%$&$'$($% ! ! ! )$*$+$,$! ! "};