/* XPM */ 
static const char * tavernarefresh_xpm[] = {
"24 22 289 2",
"  	c None",
"! 	c black",
"# 	c #3D6098",
"$ 	c #9CC6E5",
"% 	c #41659C",
"& 	c #133173",
"' 	c #8DBBE1",
"( 	c #8DC0E8",
") 	c #3F629C",
"* 	c #112F72",
"+ 	c #355691",
", 	c #597DAF",
"- 	c #5F85B6",
". 	c #6891C1",
"0 	c #85B6E1",
"1 	c #72AFE3",
"2 	c #85BAE9",
"3 	c #3F629D",
"4 	c #3F6199",
"5 	c #739DCA",
"6 	c #7DB0DD",
"7 	c #7CB3E1",
"8 	c #78B0E2",
"9 	c #74AEE3",
": 	c #6DA8DF",
"; 	c #6BA8E1",
"< 	c #6BABE6",
"= 	c #7CB5EC",
"> 	c #3B619F",
"? 	c #102E71",
"@ 	c #577BAF",
"A 	c #79ABD9",
"B 	c #6EA6D9",
"C 	c #69A1D7",
"D 	c #67A1D9",
"E 	c #67A1DB",
"F 	c #65A2DE",
"G 	c #65A2E0",
"H 	c #65A4E3",
"I 	c #62A3E5",
"J 	c #6CB0F2",
"K 	c #70A3DE",
"L 	c #0E265C",
"M 	c #6FA3D5",
"N 	c #649AD1",
"O 	c #639AD3",
"P 	c #639CD7",
"Q 	c #67A1DC",
"R 	c #68A2E0",
"S 	c #67A1DF",
"T 	c #629FDE",
"U 	c #5C9FE4",
"V 	c #64A8EE",
"W 	c #659BDD",
"X 	c #132751",
"Y 	c #3D5E98",
"Z 	c #699ACF",
"[ 	c #5D92CC",
"] 	c #5C93CE",
"^ 	c #5F97D3",
"_ 	c #5E8FCB",
"` 	c #456CA7",
"a 	c #2A487D",
"b 	c #2A4880",
"c 	c #6194D3",
"d 	c #5EA3EC",
"e 	c #5D93D7",
"f 	c #142853",
"g 	c #143274",
"h 	c #5A84BB",
"i 	c #588CC9",
"j 	c #568AC8",
"k 	c #598FCD",
"l 	c #4E79B7",
"m 	c #172E5E",
"n 	c #0A183A",
"o 	c #5E92D6",
"p 	c #548AD0",
"q 	c #132651",
"r 	c #335390",
"s 	c #5989C5",
"t 	c #4F83C2",
"u 	c #5086C7",
"v 	c #4C78B9",
"w 	c #102451",
"x 	c #4C78BD",
"y 	c #11254F",
"z 	c #4064A0",
"{ 	c #4D81C1",
"| 	c #487BBE",
"} 	c #4D80C3",
"~ 	c #2B4A86",
" !	c #11337F",
"!!	c #0E224F",
"#!	c #C6832D",
"$!	c #D88F2B",
"%!	c #CA8B2E",
"&!	c #C99132",
"'!	c #D39D36",
"(!	c #C49636",
")!	c #0D2A6E",
"*!	c #3E64A3",
"+!	c #4579BD",
",!	c #4276BB",
"-!	c #4476BD",
".!	c #132855",
"0!	c #875A28",
"1!	c #E9942C",
"2!	c #907546",
"3!	c #4F5F5E",
"4!	c #3C515D",
"5!	c #404243",
"6!	c #6A4E29",
"7!	c #B28634",
"8!	c #E9AE39",
"9!	c #83652D",
":!	c #0E2B71",
";!	c #3961A2",
"<!	c #3E72B9",
"=!	c #396EB7",
">!	c #3162AD",
"?!	c #10285F",
"@!	c #6F491F",
"A!	c #EF962D",
"B!	c #6A705E",
"C!	c #537578",
"D!	c #334E5A",
"E!	c #2A4A5B",
"F!	c #3E6675",
"G!	c #27527C",
"H!	c #3B3E45",
"I!	c #967432",
"J!	c #EEAC37",
"K!	c #081A44",
"L!	c #345A9E",
"M!	c #386CB5",
"N!	c #295EAC",
"O!	c #2A5DAA",
"P!	c #18377B",
"Q!	c #D68628",
"R!	c #917C50",
"S!	c #828A69",
"T!	c #9D6E27",
"U!	c #A86D25",
"V!	c #A9812E",
"W!	c #C18E27",
"X!	c #375C6F",
"Y!	c #2E5A83",
"Z!	c #393328",
"[!	c #D29836",
"]!	c #B17C2C",
"^!	c #2B4D90",
"_!	c #2F61AC",
"`!	c #2459A8",
"a!	c #2A61B1",
"b!	c #214488",
"c!	c #EF982C",
"d!	c #4F6D6F",
"e!	c #927843",
"f!	c #A16A23",
"g!	c #B57E38",
"h!	c #666A53",
"i!	c #554C34",
"j!	c #234D76",
"k!	c #3F6382",
"l!	c #965C26",
"m!	c #A77731",
"n!	c #DD9532",
"o!	c #183269",
"p!	c #2B5AA6",
"q!	c #255AAA",
"r!	c #2761B4",
"s!	c #2B5DA9",
"t!	c #163376",
"u!	c #4B3314",
"v!	c #F49E2E",
"w!	c #496C74",
"x!	c #233641",
"y!	c #6D4A22",
"z!	c #3F5158",
"{!	c #236A97",
"|!	c #646957",
"}!	c #406F98",
"~!	c #4E6170",
" #	c #B06A29",
"!#	c #8E672D",
"##	c #E59632",
"$#	c #061536",
"%#	c #264D95",
"&#	c #275DAC",
"'#	c #2760B2",
"(#	c #2B68BD",
")#	c #2A5DA9",
"*#	c #19397D",
"+#	c #0F2B6D",
",#	c #2B282A",
"-#	c #F7A730",
".#	c #7A7452",
"0#	c #144B7D",
"1#	c #2B4D74",
"2#	c #274C74",
"3#	c #9F883F",
"4#	c #947B39",
"5#	c #BA9241",
"6#	c #3B3E39",
"7#	c #553E28",
"8#	c #CA8831",
"9#	c #D88B31",
":#	c #132C64",
";#	c #2957A3",
"<#	c #2863B5",
"=#	c #2A66BA",
">#	c #2C6FC5",
"?#	c #2E6DC1",
"@#	c #2B5EAA",
"A#	c #255195",
"B#	c #CB9335",
"C#	c #D4972F",
"D#	c #385866",
"E#	c #1E5B90",
"F#	c #265C8F",
"G#	c #958346",
"H#	c #A0894B",
"I#	c #B58C41",
"J#	c #2E2413",
"K#	c #4C3E23",
"L#	c #EF9C34",
"M#	c #97662D",
"N#	c #173677",
"O#	c #2859A7",
"P#	c #2B6ABE",
"Q#	c #2C6EC4",
"R#	c #2E74CD",
"S#	c #317BD7",
"T#	c #3482E0",
"U#	c #4B565A",
"V#	c #FAB83A",
"W#	c #C59230",
"X#	c #545444",
"Y#	c #1E4262",
"Z#	c #283D50",
"[#	c #72592C",
"]#	c #56462C",
"^#	c #614825",
"_#	c #E69631",
"`#	c #DC8E35",
"a#	c #23201D",
"b#	c #132E6B",
"c#	c #2756A4",
"d#	c #3076D0",
"e#	c #307BD7",
"f#	c #3280DF",
"g#	c #317ED9",
"h#	c #6E5B3A",
"i#	c #ECAF3A",
"j#	c #EEB135",
"k#	c #B28B3B",
"l#	c #816A40",
"m#	c #946E31",
"n#	c #C48832",
"o#	c #FAA334",
"p#	c #D08835",
"q#	c #383028",
"r#	c #0A1D48",
"s#	c #1B3E82",
"t#	c #285AAA",
"u#	c #326FC5",
"v#	c #3578D0",
"w#	c #387FD9",
"x#	c #3778CB",
"y#	c #494549",
"z#	c #A17436",
"{#	c #D09638",
"|#	c #E09D38",
"}#	c #DB9535",
"~#	c #C08234",
" $	c #7B5831",
"!$	c #212121",
"#$	c #06122F",
"$$	c #102554",
"%$	c #173166",
"&$	c #19356C",
"'$	c #162D5E",
"($	c #091634",
")$	c #0F0C13",
"*$	c #30201E",
"+$	c #422E26",
",$	c #3A2B25",
"-$	c #1F1B1C",
"                          #                     ",
"                          $ %                   ",
"                        & ' ( )                 ",
"                * + , - . 0 1 2 3               ",
"              4 5 6 7 8 9 : ; < = >             ",
"          ? @ A B C D E F G H I J K L           ",
"          @ M N O P Q R S T U V W X             ",
"        Y Z [ ] ^ _ ` a b c d e f               ",
"      g h i j k l m     n o p q                 ",
"      r s t u v w         x y                   ",
"      z { | } ~          !!!  #!$!%!&!'!(!      ",
"    )!*!+!,!-!.!          0!1!2!3!4!5!6!7!8!9!  ",
"    :!;!<!=!>!?!        @!A!B!C!D!E!F!G!H!I!J!  ",
"    K!L!M!N!O!P!        Q!R!S!T!U!V!W!X!Y!Z![!]!",
"      ^!_!`!a!b!        c!d!e!f!g!h!i!j!k!l!m!n!",
"      o!p!q!r!s!t!    u!v!w!x!y!z!{!|!}!~! #!###",
"      $#%#&#'#(#)#*#+#,#-#.#0#1#2#3#4#5#6#7#8#9#",
"        :#;#<#=#>#?#@#A#B#C#D#E#F#G#H#I#J#K#L#M#",
"          N#O#P#Q#R#S#T#U#V#W#X#Y#Z#[#]#^#_#`#a#",
"            b#c#?#d#e#f#g#h#i#j#k#l#m#n#o#p#q#  ",
"              r#s#t#u#v#w#x#y#z#{#|#}#~# $!$    ",
"                  #$$$%$&$'$($)$*$+$,$-$        "};