/* XPM */ 
static const char * annotations_xpm[] = {
"24 24 238 2",
"  	c None",
"! 	c #ECE9D8",
"# 	c #EBE8D8",
"$ 	c #ECE9D7",
"% 	c #EBE8D7",
"& 	c #EBE8D6",
"' 	c #EEEAD8",
"( 	c #EEEBD9",
") 	c #EEEAD7",
"* 	c #EEECDB",
"+ 	c #ECEEDE",
", 	c #EEEFDF",
"- 	c #E8E6D8",
". 	c #E3E1D6",
"0 	c #E3E1D5",
"1 	c #E2DFD3",
"2 	c #E0E1D7",
"3 	c #E4DBCC",
"4 	c #E7D3BF",
"5 	c #E1CDB7",
"6 	c #EDECDB",
"7 	c #EBE7D6",
"8 	c #EAE7D8",
"9 	c #EEEAD6",
": 	c #D5D7DB",
"; 	c #DCE0EA",
"< 	c #E1E3EB",
"= 	c #E0E2EA",
"> 	c #DCDFE8",
"? 	c #D6D9E2",
"@ 	c #C6CCE6",
"A 	c #D1A352",
"B 	c #EDAC3C",
"C 	c #D9A48E",
"D 	c #D6B19A",
"E 	c #E8E2D1",
"F 	c #ECEAD9",
"G 	c #EDE9D7",
"H 	c #D7D9DC",
"I 	c #FDFDFE",
"J 	c white",
"K 	c #FEFEFC",
"L 	c #F8FEFF",
"M 	c #EDDEDA",
"N 	c #F1C112",
"O 	c #FFC814",
"P 	c #FFBA55",
"Q 	c #DA7B42",
"R 	c #DECEBC",
"S 	c #EEEFDE",
"T 	c #EAE7D6",
"U 	c #D6D8DB",
"V 	c #F7F8FB",
"W 	c #FCFCFD",
"X 	c #FDFEFE",
"Y 	c #FBFDFB",
"Z 	c #F5F6FE",
"[ 	c #F0CE88",
"] 	c #FBC300",
"^ 	c #FEA200",
"_ 	c #F96C00",
"` 	c #DB8B61",
"a 	c #EBEEDF",
"b 	c #EDE9D6",
"c 	c #F9F9FC",
"d 	c #FEFDFD",
"e 	c #FFFEFE",
"f 	c #FCFEFE",
"g 	c #F7F0F2",
"h 	c #F5C321",
"i 	c #FDC100",
"j 	c #FF9503",
"k 	c #E96816",
"l 	c #99838C",
"m 	c #BDC5C9",
"n 	c #EEE8D6",
"o 	c #FEFEFE",
"p 	c #FEFDFC",
"q 	c #FDFFFF",
"r 	c #F4CF97",
"s 	c #FBCD00",
"t 	c #FEB20A",
"u 	c #FC8306",
"v 	c #C76C44",
"w 	c #B1BDD1",
"x 	c #868996",
"y 	c #E8E5D5",
"z 	c #FFFFFE",
"{ 	c #FCF8F8",
"| 	c #F8CA3A",
"} 	c #FDC805",
"~ 	c #FEA715",
" !	c #F07617",
"!!	c #C5A9A9",
"#!	c #D3DDEA",
"$!	c #8D9099",
"%!	c #E7E4D3",
"&!	c #F8F9FC",
"'!	c #FEFFFF",
"(!	c #FDFCF9",
")!	c #F9DAAF",
"*!	c #FBD217",
"+!	c #FCC21F",
",!	c #FFA21F",
"-!	c #D17345",
".!	c #D3D9E5",
"0!	c #D7DAE5",
"1!	c #8E929C",
"2!	c #E7E4D2",
"3!	c #EDEAD9",
"4!	c #F9F8FB",
"5!	c #FEFEFD",
"6!	c #FDF7F8",
"7!	c #F9D667",
"8!	c #FCD01D",
"9!	c #FEBF33",
":!	c #F08623",
";!	c #D6B4AA",
"<!	c #DDE4F0",
"=!	c #DFE1EA",
">!	c #90939D",
"?!	c #D6D9DC",
"@!	c #FFFFFD",
"A!	c #F9E6C9",
"B!	c #FBD332",
"C!	c #FDD340",
"D!	c #FDB333",
"E!	c #DB864F",
"F!	c #DBD5DD",
"G!	c #E5EBF3",
"H!	c #E2E4ED",
"I!	c #8D909A",
"J!	c #D8D5C6",
"K!	c #D6D3C5",
"L!	c #D6D3C6",
"M!	c #FAFBFB",
"N!	c #F8F7FB",
"O!	c #F7D581",
"P!	c #FDDF49",
"Q!	c #FECD4D",
"R!	c #F3A243",
"S!	c #DBAE9B",
"T!	c #E8F2FF",
"U!	c #DADAE2",
"V!	c #D5D7E1",
"W!	c #838590",
"X!	c #CFCCBF",
"Y!	c #D2CFC3",
"Z!	c #DCD9CB",
"[!	c #D8D9DC",
"]!	c #F6F7FB",
"^!	c #F7F8FA",
"_!	c #F5F4F7",
"`!	c #F6D287",
"a!	c #FBDD67",
"b!	c #FFCE5C",
"c!	c #DF9357",
"d!	c #D3C9D0",
"e!	c #D8DCE4",
"f!	c #CDCED6",
"g!	c #D0D1DB",
"h!	c #838691",
"i!	c #D4D1C5",
"j!	c #D3D0C3",
"k!	c #DEDBCC",
"l!	c #EDEAD8",
"m!	c #EAE7D7",
"n!	c #F7F8FC",
"o!	c #F5F4F5",
"p!	c #F7CFA6",
"q!	c #FFF4CA",
"r!	c #E6A86B",
"s!	c #C4917F",
"t!	c #D6DEEA",
"u!	c #D2D3DA",
"v!	c #CFD2DA",
"w!	c #D1D3DD",
"x!	c #828490",
"y!	c #D2CFC1",
"z!	c #DDDBCB",
"{!	c #E5E2D2",
"|!	c #F5F3F5",
"}!	c #C0A28A",
"~!	c #D0AA90",
" #	c #CA9B8D",
"!#	c #D4D9E2",
"##	c #D5D7DF",
"$#	c #D3D5DD",
"%#	c #CED0D8",
"&#	c #8A8D98",
"'#	c #E2DFCF",
"(#	c #F3F5F9",
")#	c #F4F5F8",
"*#	c #F2F3F6",
"+#	c #9B6E60",
",#	c #B4938C",
"-#	c #DBE3EB",
".#	c #D4D6DD",
"0#	c #D1D3DB",
"1#	c #DADCE5",
"2#	c #E4E6EF",
"3#	c #91959E",
"4#	c #D7D8DB",
"5#	c #F3DFDB",
"6#	c #FBFFFF",
"7#	c #F3F3F8",
"8#	c #F3F5FB",
"9#	c #F8FAFF",
":#	c #F4F6FC",
";#	c #F6F8FF",
"<#	c #9497A0",
"=#	c #E6E3D2",
">#	c #D7DADC",
"?#	c #A7ABB6",
"@#	c #A5A8B0",
"A#	c #A5A9B2",
"B#	c #A7ADB8",
"C#	c #A5A8B2",
"D#	c #A4A7B1",
"E#	c #A3A7B1",
"F#	c #A2A5B1",
"G#	c #A0A4B0",
"H#	c #9EA2AD",
"I#	c #9DA1AE",
"J#	c #80838F",
"K#	c #E9E6D5",
"L#	c #E9E7D8",
"M#	c #CFCEC2",
"N#	c #CDCBC0",
"O#	c #CDCCC0",
"P#	c #CDCBBF",
"Q#	c #CECCC0",
"R#	c #CECCC1",
"S#	c #CFCDC1",
"T#	c #D9D7CA",
"U#	c #F3EFDD",
"V#	c #F3F0DD",
"W#	c #F0EDDB",
"! ! ! ! ! ! ! ! ! ! ! ! ! ! ! ! ! ! ! ! ! ! ! ! ",
"! ! ! # $ # # # # # # % # % & % % ! % ! ! ! ! ! ",
"! ! ! ! # $ ' ' ' ' ' ( ) * + , $ % ! % ! ! ! ! ",
"! ! ! # $ - . 0 0 . . 1 2 3 4 5 # 6 7 ! ! ! ! ! ",
"! ! ! 8 9 : ; < = < > ? @ A B C D E F % ! ! ! ! ",
"! ! ! # G H I J J J K L M N O P Q R S T ! ! ! ! ",
"! ! ! # ) U V I W X Y Z [ ] ^ _ ` a b T ! ! ! ! ",
"! ! ! # ) H c J d e f g h i j k l m n % ! ! ! ! ",
"! ! ! # ) H c J o p q r s t u v w x y ! ! ! ! ! ",
"! ! ! # ) H c z d d { | } ~  !!!#!$!%!! % ! % ! ",
"! ! ! # ) H &!'!(!J )!*!+!,!-!.!0!1!2!3!! % ! ! ",
"! ! ! # ) H 4!o 5!6!7!8!9!:!;!<!=!>!%!y %!! % % ",
"! ! ! # ) ?!&!@!J A!B!C!D!E!F!G!H!I!J!K!L!%!! % ",
"! ! ! # ) H V M!N!O!P!Q!R!S!T!U!V!W!X!L!Y!Z!3!T ",
"! ! ! # ) [!]!^!_!`!a!b!c!d!e!f!g!h!X!i!j!k!l!m!",
"! ! ! # ) H n!&!o!p!q!r!s!t!u!v!w!x!y!z!{!% % $ ",
"! ! ! # ) H n!&!|!}!~! #!###$#%#V!&#'#( ! % ! # ",
"! ! ! # ) [!(#)#*#+#,#-#.#0###1#2#3#%!! % ! % ! ",
"! ! ! # G 4#J J J 5#6#V 7#8#9#:#;#<#=#3!! % ! ! ",
"! ! ! 8 9 >#?#@#A#B#C#D#E#F#G#H#I#J#K#! ! ! ! ! ",
"! ! ! # $ L#M#N#O#P#Q#R#R#R#S#S#R#T#! % ! ! ! ! ",
"! ! ! ! # $ U#V#V#V#U#U#U#U#U#U#U#W#% ! ! ! ! ! ",
"! ! ! # $ # % % % % % % % % % % % % ! ! ! ! ! ! ",
"! ! ! ! ! ! ! ! ! ! ! ! ! ! ! ! ! ! ! ! ! ! ! ! "};