/* XPM */ 
static const char * config_xpm[] = {
"24 24 193 2",
"  	c None",
"! 	c black",
"# 	c #050505",
"$ 	c #131313",
"% 	c #010101",
"& 	c #1F1F1F",
"' 	c #707070",
"( 	c #D1D1D1",
") 	c #7D7D7D",
"* 	c #0D0D0D",
"+ 	c #171717",
", 	c #CCCCCC",
"- 	c #585858",
". 	c #040404",
"0 	c #686868",
"1 	c white",
"2 	c #DFDFDF",
"3 	c #303030",
"4 	c #464646",
"5 	c #434343",
"6 	c #F5F5F5",
"7 	c #BFBFBF",
"8 	c #1C1C1C",
"9 	c #181818",
": 	c #070707",
"; 	c #545454",
"< 	c #DCDCDC",
"= 	c #333333",
"> 	c #020202",
"? 	c #C5C5C5",
"@ 	c #F1F1F1",
"A 	c #F3F3F3",
"B 	c #838383",
"C 	c #141414",
"D 	c #353535",
"E 	c #373737",
"F 	c #ABABAB",
"G 	c #1B1B1B",
"H 	c #D7D7D7",
"I 	c #E9E9E9",
"J 	c #E8E8E8",
"K 	c #D2D2D2",
"L 	c #525252",
"M 	c #0E0E0E",
"N 	c #B5B5B5",
"O 	c #252525",
"P 	c #3E3E3E",
"Q 	c #A7A7A7",
"R 	c #121212",
"S 	c #A0A0A0",
"T 	c #EEEEEE",
"U 	c #DEDEDE",
"V 	c #EBEBEB",
"W 	c #DDDDDD",
"X 	c #727272",
"Y 	c #A8A8A8",
"Z 	c #FAFAFA",
"[ 	c #D9D9D9",
"] 	c #0C0C0C",
"^ 	c #9E9E9E",
"_ 	c #808080",
"` 	c #EFEFEF",
"a 	c #E4E4E4",
"b 	c #EDEDED",
"c 	c #F7F7F7",
"d 	c #747474",
"e 	c #4C4C4C",
"f 	c #9A9A9A",
"g 	c #D6D6D6",
"h 	c #E1E1E1",
"i 	c #E7E7E7",
"j 	c #ECECEC",
"k 	c #A9A9A9",
"l 	c #515151",
"m 	c #595959",
"n 	c #E4E5E5",
"o 	c #5E5E5E",
"p 	c #989898",
"q 	c #4E4E4E",
"r 	c #0A0A0A",
"s 	c #E0DFE0",
"t 	c #E7E6E6",
"u 	c #9A9795",
"v 	c #090909",
"w 	c #030303",
"x 	c #535353",
"y 	c #C7C7C7",
"z 	c #D1CFCE",
"{ 	c #C8C8C8",
"| 	c #3A474E",
"} 	c #E0E0E1",
"~ 	c #B8B7B9",
" !	c #DEDDDD",
"!!	c #C2C3C5",
"#!	c #80ACCF",
"$!	c #67BBF4",
"%!	c #28414F",
"&!	c #6A6A6A",
"'!	c #F0EFF1",
"(!	c #D8D8DA",
")!	c #CAC9C9",
"*!	c #B9B6B4",
"+!	c #608CB8",
",!	c #2E87D7",
"-!	c #4D9FE1",
".!	c #64AEE1",
"0!	c #1E303A",
"1!	c #777777",
"2!	c #EDEDEF",
"3!	c #D3D3D5",
"4!	c #E5E5E6",
"5!	c #494745",
"6!	c #001530",
"7!	c #115DAA",
"8!	c #317FC5",
"9!	c #4F9DDC",
":!	c #61AADB",
";!	c #243B48",
"<!	c #080808",
"=!	c #ECECEE",
">!	c #D5D3D6",
"?!	c #E3E2E3",
"@!	c #757575",
"A!	c #01142B",
"B!	c #135CA7",
"C!	c #3180C9",
"D!	c #52A1E0",
"E!	c #5BA2D1",
"F!	c #1B2C37",
"G!	c #0E0D0E",
"H!	c #939393",
"I!	c #F6F6F7",
"J!	c #D4D4D5",
"K!	c #DEDEDF",
"L!	c #9F9F9F",
"M!	c #060606",
"N!	c #001630",
"O!	c #135DAB",
"P!	c #317FC7",
"Q!	c #53A3E3",
"R!	c #579AC8",
"S!	c #172630",
"T!	c #F0F0F0",
"U!	c #CECECF",
"V!	c #BCBCBC",
"W!	c #0B0B0B",
"X!	c #001B39",
"Y!	c #1360AF",
"Z!	c #3280C8",
"[!	c #55A7E7",
"]!	c #5598C5",
"^!	c #111D25",
"_!	c #868686",
"`!	c #C8C8C9",
"a!	c #1A1A1A",
"b!	c #505050",
"c!	c #FEFEFE",
"d!	c #012145",
"e!	c #1562B4",
"f!	c #3481C8",
"g!	c #57AAE9",
"h!	c #4F8CB7",
"i!	c #0C1419",
"j!	c #1D1D1D",
"k!	c #858586",
"l!	c #646464",
"m!	c #2D2D2D",
"n!	c #00254E",
"o!	c #1565B6",
"p!	c #3482C7",
"q!	c #4B87B1",
"r!	c #0B1319",
"s!	c #3B3B3B",
"t!	c #CDCDCD",
"u!	c #C4C4C4",
"v!	c #3C3C3C",
"w!	c #000002",
"x!	c #002956",
"y!	c #1562B1",
"z!	c #3282CC",
"{!	c #61C0FF",
"|!	c #162835",
"}!	c #3A3A3A",
"~!	c #000104",
" #	c #01326A",
"!#	c #2077D1",
"##	c #183754",
"$#	c #030608",
"%#	c #111111",
"&#	c #2B2B2B",
"'#	c #00060D",
"(#	c #020E1C",
")#	c #000203",
"                                                ",
"    # $ %                   # & ' ( ) *         ",
"    + , - .               # 0 1 1 2 3           ",
"      4 1 ' %             5 1 6 7 8       9 :   ",
"        ; < =           > ? @ A B %   ! C < D   ",
"          E F G         . H I J K L > M N 1 O   ",
"            P Q R       % S T U V W X Y Z [ ]   ",
"              5 ^ *       _ ` U W a @ b c d %   ",
"                e f :   4 g h i T j b b k M     ",
"                  l ' m a i n f o ^ p q r       ",
"                  > p g s t u v   w > >         ",
"                  x W y z { |                   ",
"                0 } ~  !!!#!$!%!                ",
"            > &!'!(!)!*!+!,!-!.!0!              ",
"          # 1!2!3!4!` 5!6!7!8!9!:!;!            ",
"        <!) =!>!?!1 @!%   A!B!C!D!E!F!          ",
"      G!H!I!J!K!1 L!M!      N!O!P!Q!R!S!        ",
"      f T!U!2 Z V!W!          X!Y!Z![!]!^!      ",
"  > _!`!a!b!c!H a!              d!e!f!g!h!i!    ",
"  j!1 k!: l!J m!                  n!o!p![!q!r!  ",
"  s!1 t!u!I v!                    w!x!y!z!{!|!  ",
"  + a 1 U }!                        ~! #!###$#  ",
"    %#&#*                             '#(#)#    ",
"                                                "};