/* XPM */ 
static const char * filter_xpm[] = {
"24 24 82 1",
" 	c None",
"!	c #ECE9D8",
"#	c #F4F4F4",
"$	c #FCFCFC",
"%	c #FBFBFB",
"&	c #FDFDFD",
"'	c #FEFEFE",
"(	c #F9F9F9",
")	c #F3F3F3",
"*	c #EBEBEB",
"+	c #EDEDED",
",	c white",
"-	c #F8F8F8",
".	c #F7F7F7",
"0	c #EAEAEA",
"1	c #E4E4E4",
"2	c #F1F1F1",
"3	c #F0F0F0",
"4	c #E9E9E9",
"5	c #ECECEC",
"6	c #E0E0E0",
"7	c #F2F2F2",
"8	c #E7E7E7",
"9	c #DCDCDC",
":	c #DEDEDE",
";	c #EFEFEF",
"<	c #C6C6C6",
"=	c #B5B5B5",
">	c #CACACA",
"?	c #DADADA",
"@	c #D7D7D7",
"A	c #DBDBDB",
"B	c #E8E8E8",
"C	c #EEEEEE",
"D	c #E6E6E6",
"E	c #D1D1D1",
"F	c #B2B2B2",
"G	c #F6F6F6",
"H	c #F5F5F5",
"I	c #C4C4C4",
"J	c #E3E3E3",
"K	c #E2E2E2",
"L	c #E5E5E5",
"M	c #FAFAFA",
"N	c #D8D8D8",
"O	c #E1E1E1",
"P	c #C3C3C3",
"Q	c #C7C7C7",
"R	c #B7B7B7",
"S	c #C2C2C2",
"T	c #D3D3D3",
"U	c #787878",
"V	c #9E9E9E",
"W	c #CECECE",
"X	c #9D9D9D",
"Y	c #9F9F9F",
"Z	c #868686",
"[	c #A3A3A3",
"]	c #535353",
"^	c #939393",
"_	c #D2D2D2",
"`	c #838383",
"a	c #232323",
"b	c #707070",
"c	c #363636",
"d	c #888888",
"e	c #373737",
"f	c #0F0F0F",
"g	c #696969",
"h	c #DFDFDF",
"i	c #BABABA",
"j	c #2B2B2B",
"k	c #020202",
"l	c #6B6B6B",
"m	c #C9C9C9",
"n	c #D0D0D0",
"o	c #BFBFBF",
"p	c #B3B3B3",
"q	c #BCBCBC",
"r	c #A2A2A2",
"s	c #272727",
"t	c #858585",
"!!!!!!!!!!!!!!!!!!!!!!!!",
"!!!!!!!!!!!!!!!!!!!!!!!!",
"!!!!#$%&$''(%)*!!!!!!!!!",
"!!!!+,-%,''.$#01!!!!!!!!",
"!!!!2'&,-(&,%3456!!!!!!!",
"!!!!7,,.&-89%):,0)!!!!!!",
"!!!!;$-,<=-,9>?@A<7!!!!!",
"!!!!B,,CD&(3$)E+449!!!!!",
"!!!!7(,FG,7HH-%C.;A!!!!!",
"!!!!3'5I2,5.7$(J&H:!!!!!",
"!!!!1(0KH#7#)77L,MN!!!!!",
"!!!!CG8OB#C)3+*@7.N!!!!!",
"!!!!3%3P3HHH2C5Q3CN!!!!!",
"!!!!BH&R%3$.H72S;HN!!!!!",
"!!!!4HHHRH,,,TUV4#W!!!!!",
"!!!!D23;L=XYZ6[]^+_!!!!!",
"!!!!L;+5JL7,#L#`a`N!!!!!",
"!!!!D;+*C4+#+4*.bcd!!!!!",
"!!!!62JD000****D7efg!!!!",
"!!!!K4OK00088885hijkl!!!",
"!!!!>mTEnnnoooopqRrst!!!",
"!!!!!!!!!!!!!!!!!!!!!!!!",
"!!!!!!!!!!!!!!!!!!!!!!!!",
"!!!!!!!!!!!!!!!!!!!!!!!!"};