/* XPM */ 
static const char * signal_xpm[] = {
"24 24 124 2",
"  	c None",
"! 	c black",
"# 	c #6174AC",
"$ 	c #6779AF",
"% 	c #183589",
"& 	c #8E9ABA",
"' 	c #8E9DC4",
"( 	c #0F2F85",
") 	c #818EB3",
"* 	c #7A8CBA",
"+ 	c #0E2E85",
", 	c #7885AE",
"- 	c #5C70AA",
". 	c #113187",
"0 	c #6B7BA7",
"1 	c #415A9D",
"2 	c #17368B",
"3 	c #5C6EA0",
"4 	c #B1BCD6",
"5 	c #2F4B96",
"6 	c #1A398C",
"7 	c #4E629B",
"8 	c #96A3C9",
"9 	c #25408F",
": 	c #25408C",
"; 	c #425898",
"< 	c #A6B2D0",
"= 	c #8393BC",
"> 	c #A2ADCF",
"? 	c #243E8A",
"@ 	c #455994",
"A 	c #364F95",
"B 	c #C2C4CA",
"C 	c #7889B9",
"D 	c #99A5C7",
"E 	c #9FABCC",
"F 	c #667AB1",
"G 	c #697CB2",
"H 	c #7183B6",
"I 	c #334E97",
"J 	c #0E2E84",
"K 	c #9AA5C4",
"L 	c #8595C0",
"M 	c #334B8F",
"N 	c #6878A5",
"O 	c #2D4792",
"P 	c #AEB1BE",
"Q 	c #A4AFCF",
"R 	c #113085",
"S 	c #1C398B",
"T 	c #5C71AA",
"U 	c #6C7FB3",
"V 	c #6D7FB4",
"W 	c #7182B2",
"X 	c #2D468E",
"Y 	c #344D93",
"Z 	c #223E8B",
"[ 	c #2C4793",
"] 	c #455D9F",
"^ 	c #29438E",
"_ 	c #405694",
"` 	c #25408E",
"a 	c #344F97",
"b 	c #51649A",
"c 	c #8794B8",
"d 	c #223D8B",
"e 	c #BCC1D0",
"f 	c #3B559C",
"g 	c #3D5491",
"h 	c #6E7DA9",
"i 	c #334C94",
"j 	c #324B91",
"k 	c #2E478E",
"l 	c #A2A9BF",
"m 	c #D4D3D6",
"n 	c #C3C7D3",
"o 	c #5166A3",
"p 	c #0D2D83",
"q 	c #7783A6",
"r 	c #DDDEE4",
"s 	c #435B9E",
"t 	c #0D2E87",
"u 	c #6D7BA7",
"v 	c #A7B0CB",
"w 	c #25418E",
"x 	c #7C89AF",
"y 	c #3B559B",
"z 	c #344F98",
"{ 	c #36519A",
"| 	c #183687",
"} 	c #A2A9BB",
"~ 	c #D0D0D4",
" !	c #A1A9C2",
"!!	c #C1C7DB",
"#!	c #243F8C",
"$!	c #8592B2",
"%!	c #BEC5DA",
"&!	c #284390",
"'!	c #3C5292",
"(!	c #223E8D",
")!	c #57699D",
"*!	c #4E639D",
"+!	c #6C79A2",
",!	c #C9CBD7",
"-!	c #ADB7D3",
".!	c #2A4591",
"0!	c #203D8D",
"1!	c #374E91",
"2!	c #E2E1E1",
"3!	c #2C4893",
"4!	c #19398C",
"5!	c #596A9C",
"6!	c #18368A",
"7!	c #7D88AB",
"8!	c #395399",
"9!	c #1A3889",
":!	c #A3AAC1",
";!	c #425A9E",
"<!	c #243F8A",
"=!	c #C6C8D1",
">!	c #556AA7",
"?!	c #364E8F",
"@!	c #B8BFD4",
"A!	c #A8AEC1",
"                                                ",
"                                                ",
"                      #                         ",
"                    $ % &                       ",
"                    ' ( )                       ",
"                    * + ,                       ",
"                    - . 0                       ",
"                    1 2 3                       ",
"                  4 5 6 7                       ",
"                  8 9 : ;                       ",
"            < =   > ? @ A B         C D         ",
"E F G H     I J K L M N O P       Q R S T U V   ",
"W X Y Z [ ] ^ _ ` a b c d e       f g h i j k l ",
"    m n o p q r s t u v w x y z { | }     ~     ",
"           !    !!#!$!%!&!'!(!)!*!+!            ",
"                  ,!  -!.!0!1!2!                ",
"                        3!4!5!                  ",
"                        a 6!7!                  ",
"                        8!9!:!                  ",
"                        ;!<!=!                  ",
"                        >!?!                    ",
"                        @!A!                    ",
"                                                ",
"                                                "};