/* XPM */ 
static const char * synchronize_xpm[] = {
"24 24 340 2",
"  	c None",
"! 	c #ECE9D8",
"# 	c #ECE9D9",
"$ 	c #EBE8D8",
"% 	c #EAE7D7",
"& 	c #E5E2D2",
"' 	c #F3EED9",
"( 	c #FFFFE6",
") 	c #FFFEE5",
"* 	c #FFFEE4",
"+ 	c #EBE7D6",
", 	c #E8E5D6",
"- 	c #ECE9D7",
". 	c #ECE9D6",
"0 	c #EBE8D6",
"1 	c #EBE8D5",
"2 	c #EEEAD7",
"3 	c #F2EFDC",
"4 	c #E2E1D4",
"5 	c #CDCDC4",
"6 	c #CECEC5",
"7 	c #CFCEC6",
"8 	c #CFCEC5",
"9 	c #EBE8D7",
": 	c #EFECD9",
"; 	c #ECE8D6",
"< 	c #ECE9D5",
"= 	c #EBE8D3",
"> 	c #ECE9D4",
"? 	c #EBE8D4",
"@ 	c #ECE9D3",
"A 	c #EEEBDA",
"B 	c #D8D7C8",
"C 	c #C0BEAF",
"D 	c #D5C59B",
"E 	c #D8C183",
"F 	c #E2C885",
"G 	c #DEC780",
"H 	c #C8BC79",
"I 	c #BEB8A2",
"J 	c #DBD9CA",
"K 	c #EAE9D8",
"L 	c #EAE8D6",
"M 	c #F0EDD6",
"N 	c #EAE8D5",
"O 	c #EAE7D4",
"P 	c #EFECD6",
"Q 	c #E4E3D4",
"R 	c #C2BCA3",
"S 	c #C5B789",
"T 	c #EAD179",
"U 	c #FFDC6B",
"V 	c #FCD863",
"W 	c #F4D25B",
"X 	c #F7D558",
"Y 	c #FFDD5B",
"Z 	c #F6D56C",
"[ 	c #D7BE76",
"] 	c #BDB492",
"^ 	c #C4BFA4",
"_ 	c #DDDCD3",
"` 	c #C7BFA2",
"a 	c #B2A992",
"b 	c #ECEAD6",
"c 	c #EAE7D3",
"d 	c #EFEBD6",
"e 	c #E1E1D6",
"f 	c #CBC09A",
"g 	c #F8D763",
"h 	c #FFDD55",
"i 	c #FFDF65",
"j 	c #DDC47B",
"k 	c #D9C38E",
"l 	c #D2C199",
"m 	c #D2C494",
"n 	c #D4C285",
"o 	c #F6D560",
"p 	c #FCD658",
"q 	c #F5D85D",
"r 	c #C4AF7C",
"s 	c #EDD262",
"t 	c #BDB384",
"u 	c #E8E6D8",
"v 	c #EDEAD3",
"w 	c #E4E3D5",
"x 	c #CBC199",
"y 	c #F7D560",
"z 	c #FFDD63",
"{ 	c #EACF6A",
"| 	c #C8BD8F",
"} 	c #D2D2C7",
"~ 	c #E1E1D5",
" !	c #ECEBDB",
"!!	c #E7E6D8",
"#!	c #D8D7CF",
"$!	c #CAC4A1",
"%!	c #D4BD5E",
"&!	c #FDD54A",
"'!	c #F7CF40",
"(!	c #FFD543",
")!	c #FFD847",
"*!	c #BAAF85",
"+!	c #E9E7D7",
",!	c #EBE9D6",
"-!	c #C0BAA2",
".!	c #FBD65F",
"0!	c #FFE05A",
"1!	c #E1C880",
"2!	c #C6C0AC",
"3!	c #E4E2D4",
"4!	c #F0ECD6",
"5!	c #EDE9D4",
"6!	c #F0EBD4",
"7!	c #EDEBDA",
"8!	c #CFCEC7",
"9!	c #CFB45C",
":!	c #FDD13A",
";!	c #F0C938",
"<!	c #FCD139",
"=!	c #BAAE83",
">!	c #E8E7D8",
"?!	c #E5E3D5",
"@!	c #CABB8B",
"A!	c #FFDC58",
"B!	c #E9CC73",
"C!	c #C7C3AE",
"D!	c #EAE7D2",
"E!	c #EFEDD9",
"F!	c #C8C4A9",
"G!	c #E4C152",
"H!	c #FECF39",
"I!	c #F8CC35",
"J!	c #FFD432",
"K!	c #B9AE82",
"L!	c #E8E7D7",
"M!	c #E7E4D4",
"N!	c #EFECDA",
"O!	c #C6C3B3",
"P!	c #EED57D",
"Q!	c #FEE16B",
"R!	c #CABE97",
"S!	c #E5E4D5",
"T!	c #EDEAD4",
"U!	c #EFEBD8",
"V!	c #C1BAA4",
"W!	c #E4CB4A",
"X!	c #FFDA36",
"Y!	c #F9D03C",
"Z!	c #F8D038",
"[!	c #FAD838",
"]!	c #B9B081",
"^!	c #E9E7D8",
"_!	c #FDFAE4",
"`!	c #D3D1C6",
"a!	c #C5B988",
"b!	c #FDDD67",
"c!	c #D8C37A",
"d!	c #D3D4C8",
"e!	c #EBE7D4",
"f!	c #EEEBD7",
"g!	c #C5C2AF",
"h!	c #C5C0A3",
"i!	c #C3BEA6",
"j!	c #C4C0A7",
"k!	c #C4BFA7",
"l!	c #C1BDA4",
"m!	c #E1DEC9",
"n!	c #FFFFE4",
"o!	c #CDCBC5",
"p!	c #E1D37C",
"q!	c #FFDB48",
"r!	c #D5C57D",
"s!	c #E6E5DB",
"t!	c #EDE9D2",
"u!	c #EEECDA",
"v!	c #EEEBD9",
"w!	c #EFEDDA",
"x!	c #F3F0DD",
"y!	c #F1EED9",
"z!	c #EEEBD5",
"{!	c #F8F6E1",
"|!	c #D9D6C9",
"}!	c #BFB892",
"~!	c #BDAC75",
" #	c #C6C0A1",
"!#	c #E9E6D1",
"##	c #E9E6D2",
"$#	c #EDE9D5",
"%#	c #E0DDCA",
"&#	c #BFBEB1",
"'#	c #BFBEB3",
"(#	c #D6D4C3",
")#	c #EEEBD8",
"*#	c #EAE7D6",
"+#	c #E6E3D2",
",#	c #E9E7D9",
"-#	c #EEECDB",
".#	c #F1EEDA",
"0#	c #E9E6D3",
"1#	c #CFCDBC",
"2#	c #A5B2BA",
"3#	c #BAC7D3",
"4#	c #BCBBAF",
"5#	c #F1EEDB",
"6#	c #E8E5D5",
"7#	c #F0EDD7",
"8#	c #D4D0BC",
"9#	c #CECAB7",
":#	c #CDC9B6",
";#	c #CFCBB9",
"<#	c #F0EDD8",
"=#	c #D3D1C2",
">#	c #AEBCC8",
"?#	c #BCCCD8",
"@#	c #C1BFB1",
"A#	c #D0CEBE",
"B#	c #A7AFB4",
"C#	c #ABB5B9",
"D#	c #AEB7C0",
"E#	c #B3BCC3",
"F#	c #BBC6C9",
"G#	c #AEB5B2",
"H#	c #E5E3CF",
"I#	c #EDEAD6",
"J#	c #E4E0CC",
"K#	c #B3B9BA",
"L#	c #C0D0E1",
"M#	c #AFB6BC",
"N#	c #E2DECC",
"O#	c #EDEAD7",
"P#	c #E6E3D3",
"Q#	c #F0EDDA",
"R#	c #C7C4B5",
"S#	c #A5B1C1",
"T#	c #ABBDC8",
"U#	c #B4BECF",
"V#	c #BCC7D4",
"W#	c #B5BEC0",
"X#	c #CECEC0",
"Y#	c #BDBEB5",
"Z#	c #BAC9D9",
"[#	c #BCCADC",
"]#	c #B9B9B3",
"^#	c #EEE9D4",
"_#	c #E7E4D3",
"`#	c #C9C7B7",
"a#	c #AAB6C0",
"b#	c #B0BDCB",
"c#	c #B9C6D2",
"d#	c #B6C0C7",
"e#	c #C2C0B0",
"f#	c #F3F0DA",
"g#	c #E9E7D3",
"h#	c #CBC8B9",
"i#	c #B4BFC5",
"j#	c #BECDE0",
"k#	c #ACB3B9",
"l#	c #DDD9C6",
"m#	c #EDEBD6",
"n#	c #EBE7D5",
"o#	c #C8C6B7",
"p#	c #AFBBC3",
"q#	c #BECAD6",
"r#	c #BDCCD7",
"s#	c #C2CDD6",
"t#	c #B8BBB6",
"u#	c #DAD7C5",
"v#	c #F1EDD8",
"w#	c #F0EDD9",
"x#	c #E5E2CE",
"y#	c #C0C0B7",
"z#	c #B4BDC4",
"{#	c #BCCCD9",
"|#	c #B5C8DC",
"}#	c #CED3CE",
"~#	c #ECE8D1",
" $	c #E7E4D5",
"!$	c #C9C8B8",
"#$	c #B5BFC6",
"$$	c #A8B1BC",
"%$	c #BFCCD8",
"&$	c #C8D7E2",
"'$	c #C9D4DF",
"($	c #B7BDBF",
")$	c #CFCDBF",
"*$	c #D4D1BF",
"+$	c #D6D2BF",
",$	c #D5D1BF",
"-$	c #D6D2C2",
".$	c #B5BAB9",
"0$	c #B5C4D5",
"1$	c #B7CADE",
"2$	c #A9B8C5",
"3$	c #D4D3C7",
"4$	c #EAE6D3",
"5$	c #E6E3D4",
"6$	c #C6C6B6",
"7$	c #B0B4B4",
"8$	c #C4C4B8",
"9$	c #BDBFB8",
":$	c #B5BBBA",
";$	c #BAC6CF",
"<$	c #CADAE8",
"=$	c #B2BDC8",
">$	c #AFB8C0",
"?$	c #B1BBC1",
"@$	c #AEBAC2",
"A$	c #A8B7C3",
"B$	c #BBCDDD",
"C$	c #BDCDDE",
"D$	c #ACB3BA",
"E$	c #CBCFCC",
"F$	c #D5D5C8",
"G$	c #E6E2CE",
"H$	c #E9E6D6",
"I$	c #D6D3C3",
"J$	c #D2D0C0",
"K$	c #F8F4DE",
"L$	c #E6E2CC",
"M$	c #E1DCC8",
"N$	c #C9C8BD",
"O$	c #B2B6B5",
"P$	c #BECCD5",
"Q$	c #BFCEDA",
"R$	c #BDCBD7",
"S$	c #BBCBD8",
"T$	c #BACBDA",
"U$	c #B0BAC0",
"V$	c #B4B6B0",
"W$	c #D9D5C4",
"X$	c #ECE7D1",
"Y$	c #F1EDD7",
"Z$	c #C3C2B4",
"[$	c #B9B9AE",
"]$	c #BBBBB2",
"^$	c #BABAB0",
"_$	c #BAB9AD",
"`$	c #DCDAC7",
"a$	c #EEEBD6",
"b$	c #F2EFDB",
"! ! # ! ! $ # % & ' ( ) * ) + , # $ ! $ $ # $ ! ",
"! - . 0 . 0 1 2 3 4 5 6 7 8 9 : 1 . 0 . ; 0 - ! ",
"! < = > ? @ A B C D E F G H I J K L M N 1 @ 1 ! ",
"! 0 > O P Q R S T U V W X Y Z [ ] ^ _ ` a b 0 ! ",
"! . c d e f g h i j k l m n o Y p q r s t u . ! ",
"9 0 v w x y z { | } ~  !!!#!$!%!&!'!(!)!*!+!1 ! ",
"! 0 ,!-!.!0!1!2!3!4!5!= @ 6!7!8!9!:!;!<!=!>!. ! ",
"9 . ?!@!A!B!C!A 5!c ? ? ? D!E!F!G!H!I!J!K!L!< ! ",
"M!N!O!P!Q!R!S!T!c < ? ? c U!V!W!X!Y!Z![!]!^!1 ! ",
"_!`!a!b!c!d!4!e!? ? < < ? f!g!h!i!j!k!l!m!< 0 9 ",
"n!o!p!q!r!s!t!c < < < < < ? : 7!u!v!w!x!y!z!1 ! ",
"{!|!}!~! #A !###c ? < ? ? < ? = c $#%#&#'#(#)#*#",
"$ < +#,#-#.#.#.#.#< < < < < < < 0#y!1#2#3#4#5#6#",
"! 1 7#8#9#9#9#:#;#0#? ? < < ? ? c <#=#>#?#@#5#6#",
"6#v!A#B#C#D#E#F#G#H#< c < ? < c I#J#K#L#M#N#O#% ",
"P#Q#R#S#T#U#V#W#X#$#c ? ? < ? ? P Y#Z#[#]#^#L ! ",
"_#: `#a#b#c#d#e#f#g#c ? ? c . P h#i#j#k#l#m#n#9 ",
"M!Q#o#p#q#r#s#t#u#v#y!w#<#y!x#y#z#{#|#}#~#1 0 ! ",
" $: !$#$$$%$&$'$($)$*$+$,$-$.$0$j#1$2$3$v#4$. ! ",
"5$Q#6$7$8$9$:$;$<$=$>$?$@$A$B$C$D$E$F$G$< ? . ! ",
"H$)#I$J$K$L$M$N$O$P$Q$R$S$T$U$V$W$X$Y$. ? > . ! ",
"! 1 T!I#0#I#f!T!!#Z$[$]$^$_$`$T!a$< c ? > = < ! ",
"9 - 0 0 . 0 0 0 - 5#b$b$b$3 )#9 0 0 . 0 . . - ! ",
"! ! ! ! ! ! $ ! $ H$6#, 6#6#% ! $ ! ! ! ! ! ! ! "};