/* XPM */ 
static const char * s2dviewslefton_xpm[] = {
"24 24 74 1",
" 	c None",
"!	c black",
"#	c #4E81C4",
"$	c #3E73BA",
"%	c #3868A8",
"&	c #315B93",
"'	c #2A4E7E",
"(	c #234169",
")	c #1B3251",
"*	c #83A7D6",
"+	c #719AD0",
",	c #608ECA",
"-	c #E1EAF5",
".	c #B6CBE7",
"0	c #A5BFE1",
"1	c #98B6DD",
"2	c #ACACAC",
"3	c #C2D4EB",
"4	c #C2C2C2",
"5	c #BACEE8",
"6	c #8DAED9",
"7	c #7AA0D3",
"8	c #A0A0A0",
"9	c #E0E9F5",
":	c #BFD2EA",
";	c #BDD0E9",
"<	c #B7B7B7",
"=	c #959595",
">	c #DEE7F4",
"?	c #BCCFE9",
"@	c #B9CDE8",
"A	c #B7CCE7",
"B	c #DDE7F4",
"C	c #B4CAE6",
"D	c #B1C7E5",
"E	c #DBE5F3",
"F	c #B0C7E5",
"G	c #ADC5E4",
"H	c #ABC3E3",
"I	c #AAC3E3",
"J	c #D8E3F2",
"K	c #A8C1E2",
"L	c #A4BEE1",
"M	c #A1BCE0",
"N	c #CEDCEF",
"O	c #9EBADF",
"P	c #9BB8DE",
"Q	c #C0D2EA",
"R	c #96B4DC",
"S	c #92B1DB",
"T	c #90B0DA",
"U	c #89ABD8",
"V	c #87AAD7",
"W	c #132338",
"X	c #8FAFDA",
"Y	c #84A7D6",
"Z	c #81A5D5",
"[	c #7EA3D4",
"]	c #09101A",
"^	c #7DA3D4",
"_	c #789FD2",
"`	c #759DD1",
"a	c #80A5D5",
"b	c #6F98CF",
"c	c #6E98CF",
"d	c #749CD1",
"e	c #6894CD",
"f	c #6591CC",
"g	c #6692CC",
"h	c #628FCB",
"i	c #5D8CC9",
"j	c #5C8BC9",
"k	c #5687C7",
"l	c #5183C5",
"                        ",
"                        ",
"                        ",
"   #$%&'()   *+,#$%&'   ",
"   $--.01!2  +-----3!4  ",
"   %-5067!8  ,--9::;!<  ",
"   &!!!!!!=  #9>?@@A!2  ",
"    4<28==   $BA.CDD!8  ",
"             %EDFGHI!=  ",
"             &JHK0LM!=  ",
"   #$%&'()   'N0MOP1!=  ",
"   $--.01!2  (QO1RST!=  ",
"   %-5067!8  )GRT6UV!=  ",
"   &!!!!!!=  WRXUYZ[!=  ",
"    4<28==   ]XVZ^_`!=  ",
"             !Va7`bc!=  ",
"             !Z7dcef!=  ",
"   #$%&'()   !^`cghi!=  ",
"   $--.01!2  !_behjk!=  ",
"   %-5067!8  !`cfikl!=  ",
"   &!!!!!!=  !!!!!!!!=  ",
"    4<28==    4<28===   ",
"                        ",
"                        "};