/* XPM */ 
static const char * big3dviewon_xpm[] = {
"24 24 104 2",
"  	c None",
"! 	c black",
"# 	c #B3B3B3",
"$ 	c #A5A5A5",
"% 	c #9E9E9E",
"& 	c #979797",
"' 	c #8F8F8F",
"( 	c #888888",
") 	c #808080",
"* 	c #797979",
"+ 	c #707070",
", 	c #696969",
"- 	c #606060",
". 	c #575757",
"0 	c #4F4F4F",
"1 	c #454545",
"2 	c #3B3B3B",
"3 	c #313131",
"4 	c #262626",
"5 	c #1A1A1A",
"6 	c #0C0C0C",
"7 	c white",
"8 	c #FDFDFD",
"9 	c #FCFCFC",
": 	c #FAFAFA",
"; 	c #F9F9F9",
"< 	c #F7F7F7",
"= 	c #F5F5F5",
"> 	c #F3F3F3",
"? 	c #F1F1F1",
"@ 	c #F0F0F0",
"A 	c #EEEEEE",
"B 	c #EDEDED",
"C 	c #EBEBEB",
"D 	c #EAEAEA",
"E 	c #E9E9E9",
"F 	c #E8E8E8",
"G 	c #BDBAAD",
"H 	c #F8F8F8",
"I 	c #F6F6F6",
"J 	c #F4F4F4",
"K 	c #F2F2F2",
"L 	c #ECECEC",
"M 	c #E7E7E7",
"N 	c #E6E6E6",
"O 	c #E5E5E5",
"P 	c #E4E4E4",
"Q 	c #EFEFEF",
"R 	c #E3E3E3",
"S 	c #E2E2E2",
"T 	c #E1E1E1",
"U 	c #E0E0E0",
"V 	c #DFDFDF",
"W 	c #DEDEDE",
"X 	c #DCDCDC",
"Y 	c #DBDBDB",
"Z 	c #FBFBFB",
"[ 	c #9D0A0E",
"] 	c #D8D8D8",
"^ 	c #D7D7D7",
"_ 	c #D6D6D6",
"` 	c #ACACAC",
"a 	c #D2D2D2",
"b 	c #D1D1D1",
"c 	c #898989",
"d 	c #D4D4D4",
"e 	c #CCCCCC",
"f 	c #D3D3D3",
"g 	c #D0D0D0",
"h 	c #CDCDCD",
"i 	c #C7C7C7",
"j 	c #CFCFCF",
"k 	c #C9C9C9",
"l 	c #C3C3C3",
"m 	c #D5D5D5",
"n 	c #CBCBCB",
"o 	c #C8C8C8",
"p 	c #C5C5C5",
"q 	c #BEBEBE",
"r 	c #DDDDDD",
"s 	c #C4C4C4",
"t 	c #C1C1C1",
"u 	c #B9B9B9",
"v 	c #B7B7B7",
"w 	c #B5B5B5",
"x 	c #B4B4B4",
"y 	c #B2B2B2",
"z 	c #B1B1B1",
"{ 	c #AEAEAE",
"| 	c #ADADAD",
"} 	c #D9D9D9",
"~ 	c #BFBFBF",
" !	c #BBBBBB",
"!!	c #B0B0B0",
"#!	c #ABABAB",
"$!	c #A9A9A9",
"%!	c #CACACA",
"&!	c #BDBDBD",
"'!	c #B8B8B8",
"(!	c #AAAAAA",
")!	c #A8A8A8",
"*!	c #A6A6A6",
"+!	c #A3A3A3",
",!	c #A0A0A0",
"                                                ",
"                                                ",
"    # $ % & ' ( ) * + , - . 0 1 2 3 4 5 6 !     ",
"    $ 7 7 8 9 : ; < = > ? @ A B C D E E F ! G   ",
"    % 7 8 9 : H I J K @ A L C E M N O P P ! G   ",
"    & 8 9 : H I > ? Q B C E M O R S T U V ! G   ",
"    ' 9 : H : ; H < L E M K ? @ Q W X Y Y ! G   ",
"    ( : H Z [ [ [ [ E N [ [ [ [ [ L ] ^ _ ! G   ",
"    ) ; I [ ` ` ` J [ S [ ` ` ` ` [ E a b ! G   ",
"    * < J ` A C F K [ c [ ` ^ d a F [ c e ! G   ",
"    + = K Q L E K ? [ c [ ` f g h O [ c i ! G   ",
"    , > @ B E [ [ [ c ] [ ` j e k R [ c l ! G   ",
"    - ? A C M R U A [ m [ ` n o p T [ c q ! G   ",
"    . @ L J O T r L [ c [ ` i s t V [ c u ! G   ",
"    0 A C [ ? Q B C [ c [ R T U W [ c v w ! G   ",
"    1 B E c [ [ [ [ c e [ [ [ [ [ c x y z ! G   ",
"    2 C M R c c c c h k p c c c c # z { | ! G   ",
"    3 D N S W } m g n i l ~  !v # !!| #!$!! G   ",
"    4 E O T X ] f j %!p t &!'!x z | (!)!*!! G   ",
"    5 E P U Y ^ a h k s ~  !v y { #!)!$ +!! G   ",
"    6 F P V Y _ b e i l q u w z | $!*!+!,!! G   ",
"    ! ! ! ! ! ! ! ! ! ! ! ! ! ! ! ! ! ! ! ! G   ",
"      G G G G G G G G G G G G G G G G G G G G   ",
"                                                "};