/* XPM */ 
static const char * enableaxison_xpm[] = {
"24 24 92 1",
" 	c None",
"!	c black",
"#	c #0F0F0F",
"$	c #D6D6D6",
"%	c #D4D4D4",
"&	c #212121",
"'	c #D7D7D7",
"(	c #D1D1D1",
")	c #CACACA",
"*	c #C6C6C6",
"+	c #C4C4C4",
",	c #313131",
"-	c #CFCFCF",
".	c #B4B4B4",
"0	c #BBBBBB",
"1	c #4C4C4C",
"2	c #3F3F3F",
"3	c #BDBAAD",
"4	c #ECE9D8",
"5	c #A9A9A9",
"6	c #585858",
"7	c #999999",
"8	c #656565",
"9	c #8D8D8D",
":	c #A0A0A0",
";	c #707070",
"<	c #D3D3D3",
"=	c #898989",
">	c #9D9D9D",
"?	c #7C7C7C",
"@	c #FDC689",
"A	c #F9C387",
"B	c #F5C085",
"C	c #F1BD83",
"D	c #ECB980",
"E	c #E7B57D",
"F	c #E2B17A",
"G	c #DEAE78",
"H	c #DAAB76",
"I	c #D7A875",
"J	c #D5A774",
"K	c #D3A572",
"L	c #FAC487",
"M	c #626262",
"N	c #545454",
"O	c #464646",
"P	c #363636",
"Q	c #252525",
"R	c #111111",
"S	c #CA9E6E",
"T	c #F7C186",
"U	c #F2BD83",
"V	c #E6B47D",
"W	c #DFAF79",
"X	c #D9AA76",
"Y	c #CDA16F",
"Z	c #C99E6D",
"[	c #C49A6A",
"]	c #C19769",
"^	c #C09768",
"_	c #F4BF84",
"`	c #EEBA81",
"a	c #E0AF79",
"b	c #D2A572",
"c	c #CB9F6E",
"d	c #C59B6B",
"e	c #BC9366",
"f	c #B99064",
"g	c #B68E62",
"h	c #F0BC82",
"i	c #AD875D",
"j	c #EDBA80",
"k	c #D6A874",
"l	c #BE9467",
"m	c #B0895F",
"n	c #AA855C",
"o	c #A6825A",
"p	c #A37F58",
"q	c #EBB87F",
"r	c #E3B27B",
"s	c #D1A471",
"t	c #B89063",
"u	c #A8835B",
"v	c #A27F58",
"w	c #9D7B55",
"x	c #9A7853",
"y	c #E8B67E",
"z	c #92724F",
"{	c #AF895F",
"|	c #967551",
"}	c #8F704D",
"~	c #8B6D4B",
"                        ",
"                        ",
"          !!!!          ",
"        #!!$%!!!        ",
"       &#'()*+*!!       ",
"       ,'-!!!!.0!       ",
"      12(!!34!!5!!      ",
"      6$)!3444!75!      ",
"      8%*!3444!9:!      ",
"      ;<+!3444!=>!      ",
"     ??6622&&###!!!     ",
"     ;@ABCDEFGHIJK!3    ",
"     8L=?;MNOPQR!S!3    ",
"     6TUDVWXKYZ[]^!3    ",
"     1_`EaXbcd^efg!3    ",
"     2h=?;MNOPQR!i!3    ",
"     ,jVGkYdlgmnop!3    ",
"     &qrHsZ^tmuvwx!3    ",
"     #y=?;MNOPQR!z!3    ",
"     #EGJc]f{ow|}~!3    ",
"     !!!!!!!!!!!!!!3    ",
"      33333333333333    ",
"                        ",
"                        "};