/* XPM */ 
static const char * fitsceneon_xpm[] = {
"24 24 73 1",
" 	c None",
"!	c black",
"#	c #62A546",
"$	c #77BA5C",
"%	c #88C26F",
"&	c #4D8137",
"'	c #365D27",
"(	c #213818",
")	c #0F190B",
"*	c #030502",
"+	c #6EB551",
",	c #5D9D43",
"-	c #497C34",
".	c #355926",
"0	c #213718",
"1	c #0D170A",
"2	c #020301",
"3	c #AFACA5",
"4	c #51883A",
"5	c #3F6B2D",
"6	c #2D4C20",
"7	c #1B2D13",
"8	c #0A1107",
"9	c #B7B7B7",
":	c #ACACAC",
";	c #A0A0A0",
"<	c #959595",
"=	c #898989",
">	c #325424",
"?	c #121F0D",
"@	c #363636",
"A	c #252525",
"B	c #111111",
"C	c #15240F",
"D	c #BDBAAD",
"E	c #79BB5E",
"F	c #080E06",
"G	c #243E1A",
"H	c #14220E",
"I	c #70B653",
"J	c #60A345",
"K	c #477933",
"L	c #65AA48",
"M	c #56913E",
"N	c #457632",
"O	c #68B14B",
"P	c #56923E",
"Q	c #27431D",
"R	c #538B3B",
"S	c #4F8639",
"T	c #396129",
"U	c #2A461E",
"V	c #74B858",
"W	c #5D9C42",
"X	c #447331",
"Y	c #2B491F",
"Z	c #3E682C",
"[	c #3B642B",
"]	c #1E3215",
"^	c #111C0C",
"_	c #223A19",
"`	c #172711",
"a	c #152510",
"b	c #121E0D",
"c	c #0D1609",
"d	c #080D06",
"e	c #050804",
"f	c #060A05",
"g	c #65AB48",
"h	c #365C27",
"i	c #1E3115",
"j	c #030602",
"k	c #1A2C13",
"                        ",
"                        ",
"       #$%$#&'()*!      ",
"        +$+,-.0123      ",
"         #,456783       ",
"     9:;<=-5>(?@AB!     ",
"     :     6(C3   !D    ",
"  E  ;     3?3    !D F  ",
"  %E <      3     !DGH  ",
"  EIJ=            !K.0  ",
"  LJMN            OP5Q  ",
"  RSNTU3        3%VWXY  ",
"  Z[.U]^3      3OVOP5Q  ",
"  UQ_7^3        3WPK.0  ",
"  `abc3          35.GH  ",
"  Fde@      3     !0HF  ",
"  !!3A     343    !3f!  ",
"  !3 B     IP[3   !D3!  ",
"  3  !!!!!Ig4hi!!!!D 3  ",
"      DDD4P45UHj3DDD    ",
"        Uh[hUk8!!3      ",
"       8Hi0iH8!!!!3     ",
"                        ",
"                        "};