/* XPM */ 
static const char * initaxis_xpm[] = {
"24 24 43 1",
" 	c None",
"!	c black",
"#	c #FEF1F1",
"$	c #F71C21",
"%	c #466BF8",
"&	c #B4C3FC",
"'	c #D4DCFD",
"(	c #2954F7",
")	c #7490FA",
"*	c #B1C1FC",
"+	c #1A49F7",
",	c #A2B5FC",
"-	c #859EFB",
".	c #204DF7",
"0	c #C8D3FD",
"1	c #5A7CF9",
"2	c #3D65F8",
"3	c #E2E8FE",
"4	c #DB203A",
"5	c #345EF8",
"6	c #6080F9",
"7	c #5CF955",
"8	c #52F94A",
"9	c #40C872",
":	c #1049E2",
";	c #30A09B",
"<	c #D6FDD4",
"=	c #D4FDD2",
">	c #80ADE1",
"?	c #1748F3",
"@	c #96445C",
"A	c #6E8CFA",
"B	c #2C57F7",
"C	c #DBD7F2",
"D	c #EBEFFE",
"E	c #4E72F9",
"F	c #2652F7",
"G	c #7793FA",
"H	c #AEBEFC",
"I	c #839CFA",
"J	c #CBD5FD",
"K	c #E8EDFE",
"L	c #F6F8FF",
"           #$           ",
"           #$           ",
"           #$           ",
"           #$           ",
"           #$           ",
"           #$      %&   ",
"           #$    '()    ",
"           #$   *+,     ",
"           #$  -.0      ",
"           #$ 123       ",
"           #456         ",
"788888888889:;8888888888",
"<=========>?@===========",
"         ABC$           ",
"       D%E #$           ",
"      'FG  #$           ",
"     H+,   #$           ",
"    I.J    #$           ",
"   62K     #$           ",
"   0L      #$           ",
"           #$           ",
"           #$           ",
"           #$           ",
"           #$           "};