/* XPM */ 
static const char * lut_xpm[] = {
"24 24 8 1",
" 	c None",
"!	c black",
"#	c #00FFFF",
"$	c #FF00FF",
"%	c #0000FF",
"&	c #FFFF00",
"'	c #00FF00",
"(	c #FF0000",
"                        ",
"                        ",
"                        ",
"  !#####!               ",
"  !#####!               ",
"  !#####!               ",
"  !$$$$$!   !!!!!!!!!   ",
"  !$$$$$!   !!!!!!!!!   ",
"  !$$$$$!               ",
"  !%%%%%!               ",
"  !%%%%%!               ",
"  !%%%%%!   !!!!!!!!!   ",
"  !&&&&&!   !!!!!!!!!   ",
"  !&&&&&!               ",
"  !&&&&&!               ",
"  !'''''!               ",
"  !'''''!   !!!!!!!!!   ",
"  !'''''!   !!!!!!!!!   ",
"  !(((((!               ",
"  !(((((!               ",
"  !(((((!               ",
"                        ",
"                        ",
"                        "};