/* XPM */ 
static const char * standartlayouton_xpm[] = {
"24 24 40 1",
" 	c None",
"!	c black",
"#	c #608ECA",
"$	c #4E81C4",
"%	c #3E73BA",
"&	c #3868A8",
"'	c #315B93",
"(	c #2A4E7E",
")	c #234169",
"*	c #1B3251",
"+	c #E1EAF5",
",	c #E0E9F5",
"-	c #DDE7F4",
".	c #DAE5F3",
"0	c #D8E3F2",
"1	c #ADC5E4",
"2	c #C2C2C2",
"3	c #B7CCE7",
"4	c #B0C7E5",
"5	c #AAC3E3",
"6	c #A5BFE1",
"7	c #9FBBDF",
"8	c #B7B7B7",
"9	c #DBE5F3",
":	c #A7C0E2",
";	c #98B6DD",
"<	c #92B1DB",
"=	c #ACACAC",
">	c #9EBADF",
"?	c #93B2DB",
"@	c #8AACD8",
"A	c #84A7D6",
"B	c #A0A0A0",
"C	c #D5E1F1",
"D	c #87AAD7",
"E	c #7EA3D4",
"F	c #779ED2",
"G	c #959595",
"H	c #729BD0",
"I	c #6994CD",
"                        ",
"                        ",
"                        ",
"   #$%&'()*  #$%&'()*   ",
"   $+,-.01!2 $+,-.01!2  ",
"   %,34567!8 %,34567!8  ",
"   &94:7;<!= &94:7;<!=  ",
"   '0:>?@A!B '0:>?@A!B  ",
"   (C7?DEF!G (C7?DEF!G  ",
"   )6;@EHI!G )6;@EHI!G  ",
"   *!!!!!!!G *!!!!!!!G  ",
"    28=BGGG   28=BGGG   ",
"                        ",
"   #$%&'()*  #$%&'()*   ",
"   $+,-.01!2 $+,-.01!2  ",
"   %,34567!8 %,34567!8  ",
"   &94:7;<!= &94:7;<!=  ",
"   '0:>?@A!B '0:>?@A!B  ",
"   (C7?DEF!G (C7?DEF!G  ",
"   )6;@EHI!G )6;@EHI!G  ",
"   *!!!!!!!G *!!!!!!!G  ",
"    28=BGGG   28=BGGG   ",
"                        ",
"                        "};