/* XPM */ 
static const char * xyzplaneson_xpm[] = {
"24 24 156 2",
"  	c None",
"! 	c black",
"# 	c #B0B179",
"$ 	c #8A8B33",
"% 	c #686919",
"& 	c #656719",
"' 	c #86872F",
"( 	c #ACAE6C",
") 	c #CFD0AE",
"* 	c #70711F",
"+ 	c #494B0B",
", 	c #666719",
"- 	c #878832",
". 	c #878A34",
"0 	c #888933",
"1 	c #8C8F39",
"2 	c #6E6F1F",
"3 	c #65681A",
"4 	c #696A1A",
"5 	c #A9AA56",
"6 	c #454709",
"7 	c #6A6D1D",
"8 	c #B4B486",
"9 	c #8B8C34",
": 	c #606016",
"; 	c #737422",
"< 	c #787D27",
"= 	c #626517",
"> 	c #8C8D35",
"? 	c #B8B88C",
"@ 	c #838630",
"A 	c #535711",
"B 	c #9E9F45",
"C 	c #6D6E1C",
"D 	c #4B4D0B",
"E 	c #91923A",
"F 	c #EFEFE3",
"G 	c #8D8E34",
"H 	c #646517",
"I 	c #BFBF97",
"J 	c #D1D0AF",
"K 	c #C9C9A5",
"L 	c #CECFAD",
"M 	c #7A7B27",
"N 	c #7B7C26",
"O 	c #F2F2E8",
"P 	c #A4A551",
"Q 	c #666717",
"R 	c #E0E0C8",
"S 	c #4D4E0C",
"T 	c #4D500C",
"U 	c #AFB07A",
"V 	c #B7B88C",
"W 	c #434709",
"X 	c #D8D9BB",
"Y 	c #A5A64E",
"Z 	c #B0B17B",
"[ 	c #505210",
"] 	c #5F6014",
"^ 	c #D5D6B6",
"_ 	c #6F7020",
"` 	c #ACAD67",
"a 	c #F3F4EA",
"b 	c #C5C59F",
"c 	c #52550F",
"d 	c #CECEAC",
"e 	c #54550F",
"f 	c #565911",
"g 	c #F8F8F2",
"h 	c #7F802A",
"i 	c #83842E",
"j 	c #AEAF71",
"k 	c #2D2E04",
"l 	c #5B5B13",
"m 	c #5C5D13",
"n 	c #727521",
"o 	c #A2A34D",
"p 	c #80812B",
"q 	c #F1F2E6",
"r 	c #F6F6F0",
"s 	c #626317",
"t 	c #D4D4B4",
"u 	c #F3F3E9",
"v 	c #989941",
"w 	c #58590F",
"x 	c #4D4D0D",
"y 	c #56590F",
"z 	c #AEAD64",
"{ 	c #6E6F1D",
"| 	c #F1F1E5",
"} 	c #A5A650",
"~ 	c #5A5B11",
" !	c #717220",
"!!	c #4B4E0C",
"#!	c #ABAC60",
"$!	c #F9F8F3",
"%!	c #85862E",
"&!	c #A1A24A",
"'!	c #B4B488",
"(!	c #ACAC6C",
")!	c #47490B",
"*!	c #878830",
"+!	c #93943C",
",!	c #787923",
"-!	c #BEBF95",
".!	c #353606",
"0!	c #DFDFC5",
"1!	c #616214",
"2!	c #383706",
"3!	c #AAAB57",
"4!	c #F0F0E4",
"5!	c #BDBE94",
"6!	c #383806",
"7!	c #D6D6B8",
"8!	c #757622",
"9!	c #414309",
":!	c #737420",
";!	c #DFDFC7",
"<!	c #3E3F07",
"=!	c #101200",
">!	c #4F500C",
"?!	c #D2D3B1",
"@!	c #70701E",
"A!	c #343604",
"B!	c #EDEDDF",
"C!	c #404107",
"D!	c #ADAE6A",
"E!	c #E1E1C9",
"F!	c #BCBC92",
"G!	c #343404",
"H!	c #737321",
"I!	c #8C8B32",
"J!	c #2A2A02",
"K!	c #4F520C",
"L!	c #DBDCC0",
"M!	c #ABAC62",
"N!	c #82832D",
"O!	c #3C3D07",
"P!	c #1E1E00",
"Q!	c #242402",
"R!	c #262602",
"S!	c #7C7D29",
"T!	c #524F0C",
"U!	c #181A00",
"V!	c #6B6C1C",
"W!	c #323204",
"X!	c #222200",
"Y!	c #49490B",
"Z!	c #565610",
"[!	c #222400",
"]!	c #52540E",
"^!	c #CDCDAB",
"_!	c #D0D1AF",
"`!	c #B1B27C",
"a!	c #767723",
"b!	c #C8C8A4",
"                                                ",
"                                                ",
"                                                ",
"                                                ",
"                                                ",
"                  # $ % & ' ( )                 ",
"              * + , - . 0 1 2 3 4               ",
"          5 6 7 8 9 : ; < = > ? @ A B           ",
"        C D E F G H I J K L M N O P 3 Q R       ",
"      S T U O V W X Y Z [ ] ^ _ ` a b c : d     ",
"    e f 8 g O h G i j k l m n o p q r d s l t   ",
"  m D i q u q ; v w x c y y m z { | u a } T ~   ",
"     !!!#!$!O %!p &!'!(!y )!*!+!,!| r -!.!m 0!  ",
"      1!2!3!4!5!6!7!8!h 9!:!;!<!` q V =!>!?!    ",
"        @!A!* B!v C!D!E!E!F!G!H!q I!J!K!L!      ",
"          } G!C!M!N!O!P!Q!R!S!j T!U!G           ",
"              V!W!X!Y!w Z!e [!J!]!^!            ",
"                _!`!+!,!a!G D!b!                ",
"                                                ",
"                                                ",
"                                                ",
"                                                ",
"                                                ",
"                                                "};