/* XPM */ 
static const char * yplaneiconseton_xpm[] = {
"24 24 126 2",
"  	c None",
"! 	c black",
"# 	c #B3B3B3",
"$ 	c #A5A5A5",
"% 	c #9E9E9E",
"& 	c #979797",
"' 	c #8F8F8F",
"( 	c #888888",
") 	c #808080",
"* 	c #797979",
"+ 	c #707070",
", 	c #696969",
"- 	c #606060",
". 	c #575757",
"0 	c #4F4F4F",
"1 	c #454545",
"2 	c #3B3B3B",
"3 	c #313131",
"4 	c #262626",
"5 	c #1A1A1A",
"6 	c #0C0C0C",
"7 	c white",
"8 	c #FDFDFD",
"9 	c #FCFCFC",
": 	c #FAFAFA",
"; 	c #F9F9F9",
"< 	c #F7F7F7",
"= 	c #F5F5F5",
"> 	c #F3F3F3",
"? 	c #F1F1F1",
"@ 	c #F0F0F0",
"A 	c #EEEEEE",
"B 	c #EDEDED",
"C 	c #EBEBEB",
"D 	c #EAEAEA",
"E 	c #E9E9E9",
"F 	c #E8E8E8",
"G 	c #BDBAAD",
"H 	c #F8F8F8",
"I 	c #F6F6F6",
"J 	c #F4F4F4",
"K 	c #F2F2F2",
"L 	c #ECECEC",
"M 	c #E7E7E7",
"N 	c #E6E6E6",
"O 	c #E5E5E5",
"P 	c #E4E4E4",
"Q 	c #EFEFEF",
"R 	c #E3E3E3",
"S 	c #E2E2E2",
"T 	c #E1E1E1",
"U 	c #E0E0E0",
"V 	c #DFDFDF",
"W 	c #B36F6F",
"X 	c #959595",
"Y 	c #DBDBDB",
"Z 	c #B37070",
"[ 	c #B26F6F",
"] 	c #B16E6E",
"^ 	c #DDDDDD",
"_ 	c #D8D8D8",
"` 	c #D7D7D7",
"a 	c #D6D6D6",
"b 	c #D5D5D5",
"c 	c #D3D3D3",
"d 	c #D2D2D2",
"e 	c #D1D1D1",
"f 	c #B06C6C",
"g 	c #D0D0D0",
"h 	c #CFCFCF",
"i 	c #CDCDCD",
"j 	c #CCCCCC",
"k 	c #AF6C6C",
"l 	c #CBCBCB",
"m 	c #CACACA",
"n 	c #C9C9C9",
"o 	c #C7C7C7",
"p 	c #AE6B6B",
"q 	c #C5C5C5",
"r 	c #C4C4C4",
"s 	c #C3C3C3",
"t 	c #AD6969",
"u 	c #DCDCDC",
"v 	c #CECECE",
"w 	c #C8C8C8",
"x 	c #C1C1C1",
"y 	c #BFBFBF",
"z 	c #BEBEBE",
"{ 	c #AC6969",
"| 	c #D9D9D9",
"} 	c #BDBDBD",
"~ 	c #BBBBBB",
" !	c #B9B9B9",
"!!	c #AB6868",
"#!	c #C0C0C0",
"$!	c #B8B8B8",
"%!	c #B7B7B7",
"&!	c #B5B5B5",
"'!	c #AA6767",
"(!	c #D4D4D4",
")!	c #B4B4B4",
"*!	c #B2B2B2",
"+!	c #B1B1B1",
",!	c #AA6666",
"-!	c #985555",
".!	c #AEAEAE",
"0!	c #ADADAD",
"1!	c #A96666",
"2!	c #A76363",
"3!	c #A56262",
"4!	c #A36060",
"5!	c #A15E5E",
"6!	c #9F5C5C",
"7!	c #9E5A5A",
"8!	c #9C5959",
"9!	c #9B5757",
":!	c #995656",
";!	c #975454",
"<!	c #965353",
"=!	c #ABABAB",
">!	c #A9A9A9",
"?!	c #AAAAAA",
"@!	c #A8A8A8",
"A!	c #A6A6A6",
"B!	c #A3A3A3",
"C!	c #A0A0A0",
"                                                ",
"                                                ",
"    # $ % & ' ( ) * + , - . 0 1 2 3 4 5 6 !     ",
"    $ 7 7 8 9 : ; < = > ? @ A B C D E E F ! G   ",
"    % 7 8 9 : H I J K @ A L C E M N O P P ! G   ",
"    & 8 9 : H I > ? Q B C E M O R S T U V ! G   ",
"    ' 9 : H W > ? A ! E M O R T V ! X Y Y ! G   ",
"    ( : H Z [ ] A C X ! R T V ^ ! X _ ` a ! G   ",
"    ) ; I > ] A C F O X ! ^ Y ! X b c d e ! G   ",
"    * < J ? f C F O S V X ! ! X d g h i j ! G   ",
"    + = K Q k E O S V Y _ ! X g i l m n o ! G   ",
"    , > @ B p N S V Y _ ! X h j n o q r s ! G   ",
"    - ? A C t R U u _ ! X v l w q s x y z ! G   ",
"    . @ L E { T ^ | ! X v m o r x y } ~  !! G   ",
"    0 A C M !!V Y ` X h l o s #!} ~ $!%!&!! G   ",
"    1 B E O '!^ _ (!g j w r #!}  !%!)!*!+!! G   ",
"    2 C M R ,!Y a d i n q x }  !-!# +!.!0!! G   ",
"    3 D N S 1!2!3!4!5!6!7!8!9!:!;!<!0!=!>!! G   ",
"    4 E O '!u _ c h m q x } $!)!<!0!?!@!A!! G   ",
"    5 E !!U Y ` d i n r y ~ %!*!.!=!@!$ B!! G   ",
"    6 F P V Y a e j o s z  !&!+!0!>!A!B!C!! G   ",
"    ! ! ! ! ! ! ! ! ! ! ! ! ! ! ! ! ! ! ! ! G   ",
"      G G G G G G G G G G G G G G G G G G G G   ",
"                                                "};