/* XPM */ 
static const char * contourtoolon_xpm[] = {
"24 24 132 2",
"  	c None",
"! 	c black",
"# 	c #232323",
"$ 	c #0C0C0C",
"% 	c #6A6A6A",
"& 	c #333333",
"' 	c #8E8E8E",
"( 	c #C7C7C7",
") 	c #CCCCCC",
"* 	c #888888",
"+ 	c #282828",
", 	c #686868",
"- 	c #3D3D3D",
". 	c #474747",
"0 	c #848484",
"1 	c #F0F0F0",
"2 	c #D7D7D7",
"3 	c #989898",
"4 	c #A5A5A5",
"5 	c #EFEFEF",
"6 	c #3A3A3A",
"7 	c #787878",
"8 	c #2A2A2A",
"9 	c #A7A7A7",
": 	c white",
"; 	c #DFDFDF",
"< 	c #D6D6D6",
"= 	c #525252",
"> 	c #0E0E0E",
"? 	c #515151",
"@ 	c #F4F4F4",
"A 	c #5A5A5A",
"B 	c #323232",
"C 	c #222222",
"D 	c #C0C0C0",
"E 	c #ACACAC",
"F 	c #070707",
"G 	c #050505",
"H 	c #707070",
"I 	c #6F6F6F",
"J 	c #B7B7B7",
"K 	c #B0B0B0",
"L 	c #1C1C1C",
"M 	c #4B4B4B",
"N 	c #464646",
"O 	c #BEBEBE",
"P 	c #7D7D7D",
"Q 	c #383838",
"R 	c #444444",
"S 	c #6C6C6C",
"T 	c #646464",
"U 	c #010101",
"V 	c #B5B5B5",
"W 	c #C3C3C3",
"X 	c #535353",
"Y 	c #8A8A8A",
"Z 	c #999999",
"[ 	c #191919",
"] 	c #7A7A7A",
"^ 	c #7B7B7B",
"_ 	c #AEAEAE",
"` 	c #0B0B0B",
"a 	c #BDBDBD",
"b 	c #8B8B8B",
"c 	c #141414",
"d 	c #4D4D4D",
"e 	c #CACACA",
"f 	c #F1F1F1",
"g 	c #7F7F7F",
"h 	c #303030",
"i 	c #0A0A0A",
"j 	c #8D8D8D",
"k 	c #505050",
"l 	c #C9C9C9",
"m 	c #BFBFBF",
"n 	c #161616",
"o 	c #020202",
"p 	c #5D5D5D",
"q 	c #5F5F5F",
"r 	c #101010",
"s 	c #6E6E6E",
"t 	c #D1D1D1",
"u 	c #D3D3D3",
"v 	c #878787",
"w 	c #373737",
"x 	c #606060",
"y 	c #808080",
"z 	c #A3A3A3",
"{ 	c #909090",
"| 	c #757575",
"} 	c #404040",
"~ 	c #595959",
" !	c #626262",
"!!	c #737373",
"#!	c #868686",
"$!	c #828282",
"%!	c #E3E3E3",
"&!	c #8C8C8C",
"'!	c #2B2B2B",
"(!	c #414141",
")!	c #565656",
"*!	c #454545",
"+!	c #3C3C3C",
",!	c #DBDBDB",
"-!	c #BABABA",
".!	c #131313",
"0!	c #A1A1A1",
"1!	c #CBCBCB",
"2!	c #111111",
"3!	c #767676",
"4!	c #949494",
"5!	c #D0D0D0",
"6!	c #171717",
"7!	c #040404",
"8!	c #0F0F0F",
"9!	c #939393",
":!	c #E6E6E6",
";!	c #4F4F4F",
"<!	c #898989",
"=!	c #7C7C7C",
">!	c #1A1A1A",
"?!	c #747474",
"@!	c #6D6D6D",
"A!	c #3F3F3F",
"B!	c #0D0D0D",
"C!	c #ABABAB",
"D!	c #ADADAD",
"E!	c #424242",
"F!	c #AAAAAA",
"G!	c #919191",
"H!	c #3E3E3E",
"I!	c #6B6B6B",
"                                                ",
"                                                ",
"                # ! $ $ $ $ $ $ $ $ ! #         ",
"          % ! & ' ( ) ( ( ( ( ( ( ) ( * +       ",
"        , - . 0 1 2 3 4 4 4 4 4 4 3 2 5 0 6     ",
"      7 8 9 : ; < = ! > > > > > > ! ? ; @ A B   ",
"    , C D : E F G H                 I F $ J K L ",
"  M N O P Q R S ,                     T U V W $ ",
", X Y Z [ ! ]                     ^ Q , * : _ ` ",
"$ W a ! L                       b = c d e f g h ",
"$ W K i j                 k ! i G 3 : l h ! k   ",
"$ W m ! n o p     q ! r $ s ) t u v . B o w     ",
"x A y z { | d } ~  !!!#!$!%!%!#!&!'!! (!)!      ",
"  *!+!< ,!: -!.!! 0!: l 1!) s ` > 2!3!          ",
"    ^ ! ! 4!: 5!6!Z a 7!i ! k                   ",
"      s 8!! 9!:!8 ! ;!&!<!=!                    ",
"        >!8 g ?!@!A!]                           ",
"        B!_ C!2!                                ",
"        > _ _ B!                                ",
"        r D!_ B!                                ",
"    =!E!F!G!` 6!                                ",
"    3!H!V I!i A                                 ",
"      3 >!T                                     ",
"                                                "};