/* XPM */ 
static const char * linkplaneson_xpm[] = {
"24 24 60 1",
" 	c None",
"!	c black",
"#	c #4E81C4",
"$	c #83A7D6",
"%	c #81A5D5",
"&	c #80A5D5",
"'	c #7BA1D3",
"(	c #789FD2",
")	c #759DD1",
"*	c #729BD0",
"+	c #6C96CE",
",	c #6994CD",
"-	c #6E98CF",
".	c #6692CC",
"0	c #5F8DCA",
"1	c #5C8BC9",
"2	c #6390CB",
"3	c #5A89C8",
"4	c #5385C6",
"5	c #4D80C4",
"6	c #457AC1",
"7	c #4077BF",
"8	c #E9BCBC",
"9	c #E6B3B3",
":	c #E3AAAA",
";	c #3E73B9",
"<	c #EBC3C3",
"=	c #E8BABA",
">	c #E5B0B0",
"?	c #E2A7A7",
"@	c #E0A2A2",
"A	c #DF9F9F",
"B	c #959595",
"C	c #DD9898",
"D	c #E7B7B7",
"E	c #DE9B9B",
"F	c #DA8F8F",
"G	c #D78787",
"H	c #D68484",
"I	c #EABFBF",
"J	c #DB9393",
"K	c #4B7FC3",
"L	c #DC9696",
"M	c #D17575",
"N	c #CD6969",
"O	c #D07272",
"P	c #EAC0C0",
"Q	c #CF6E6E",
"R	c #C85959",
"S	c #C2C2C2",
"T	c #B7B7B7",
"U	c #ACACAC",
"V	c #A0A0A0",
"W	c #7DA3D4",
"X	c #779ED2",
"Y	c #719AD0",
"Z	c #6894CD",
"[	c #628FCB",
"]	c #5787C7",
"^	c #487DC2",
"                        ",
"                        ",
"             !!      #  ",
"            !$!     #   ",
"           !%&!    #    ",
"          !'()!   #     ",
"         !(*+,!  #      ",
"         !-.01! #       ",
"         !2345!#        ",
"      !!!!3#67!!!!!!!!  ",
"     !89:!46;!<=>?@A@!B ",
"    !8>@C!57!<D:EFGH!B  ",
"   !I9@JH!K!<=:LHMN!B   ",
"  !<=:CHO!!<P>EHQR!B    ",
"  !!!!!!!!!!!!!!!!B     ",
"   STUVB#!$WX*!BBB      ",
"       # !'YZ[!B        ",
"      #  !Y2]#!B        ",
"     #   !Z]^!B         ",
"    #    ![#!B          ",
"   #     !0!B           ",
"  #      !!B            ",
"          B             ",
"                        "};