/* XPM */ 
static const char * link_xpm[] = {
"24 24 17 1",
" 	c None",
"!	c black",
"#	c #CCD2DF",
"$	c #B2BBCD",
"%	c #97A7C4",
"&	c #93A3B5",
"'	c #C7CBCF",
"(	c #D0DFF4",
")	c #F6FCFE",
"*	c #B2C7E2",
"+	c #748CA2",
",	c #A4B3C9",
"-	c #42536F",
".	c #53637D",
"0	c #6E798F",
"1	c #172F4C",
"2	c #8698AE",
"                        ",
"                        ",
"                        ",
"                        ",
"                        ",
"                        ",
"                        ",
"    #$%&%%' #$%%&&$     ",
"  ##$())**+,$()))*+$    ",
"  ##$())**+,$()))*+$    ",
"  $$(&-.,,,,*,--.&,0    ",
"  %%)-'$))))((00'&(-    ",
"  ,,#&+&11111-++&,%.    ",
"  ##&$(#22.&&$((#2.&    ",
"    '2.-00, '2..-0&     ",
"    '2.-00, '2..-0&     ",
"                        ",
"                        ",
"                        ",
"                        ",
"                        ",
"                        ",
"                        ",
"                        "};