/* XPM */ 
static const char * measurementinteractoron_xpm[] = {
"24 24 191 2",
"  	c None",
"! 	c black",
"# 	c #D8D1A3",
"$ 	c #E1DAAC",
"% 	c #79714A",
"& 	c #57522D",
"' 	c #38330E",
"( 	c #AEA886",
") 	c #8C8761",
"* 	c #F7F2D0",
"+ 	c #DCD7B5",
", 	c #605B3B",
"- 	c #DEDAB4",
". 	c #433F19",
"0 	c #BDB994",
"1 	c #3C380D",
"2 	c #BEBA8F",
"3 	c #787147",
"4 	c #0B0100",
"5 	c #CACA9E",
"6 	c #D3CFA0",
"7 	c #565447",
"8 	c #373528",
"9 	c #5F5D50",
": 	c #656155",
"; 	c #615D51",
"< 	c #6B6859",
"= 	c #696657",
"> 	c #646152",
"? 	c #666354",
"@ 	c #656052",
"A 	c #686355",
"B 	c #645F4F",
"C 	c #686353",
"D 	c #656050",
"E 	c #676252",
"F 	c #5F5A4A",
"G 	c #666151",
"H 	c #615C4C",
"I 	c #6E6959",
"J 	c #1F1A0A",
"K 	c #716C5C",
"L 	c #D4D3B5",
"M 	c #868567",
"N 	c #C5C4A6",
"O 	c #D0CEAF",
"P 	c #CBC9AA",
"Q 	c #C3C1A2",
"R 	c #C6C4A5",
"S 	c #C7C5A6",
"T 	c #C8C6A7",
"U 	c #C9C4A4",
"V 	c #CAC5A5",
"W 	c #C8C3A3",
"X 	c #CAC5A3",
"Y 	c #D1CCAA",
"Z 	c #C8C3A1",
"[ 	c #C7C2A0",
"] 	c #CCC7A5",
"^ 	c #484321",
"_ 	c #AFAA88",
"` 	c #807D6E",
"a 	c #6E6B5C",
"b 	c #787566",
"c 	c #747162",
"d 	c #737061",
"e 	c #777465",
"f 	c #736E5E",
"g 	c #7A7565",
"h 	c #7F7A6A",
"i 	c #6D6858",
"j 	c #7E7969",
"k 	c #736E5C",
"l 	c #7A7563",
"m 	c #706D5A",
"n 	c #787562",
"o 	c #767360",
"p 	c #75725F",
"q 	c #74715E",
"r 	c #6D6A57",
"s 	c #817E6B",
"t 	c #685C2A",
"u 	c #9E9260",
"v 	c #ECE29A",
"w 	c #978D45",
"x 	c #F7EB8B",
"y 	c #A89C3C",
"z 	c #CDBE59",
"{ 	c #CBBC57",
"| 	c #B19E44",
"} 	c #F9E68C",
"~ 	c #9F8A3B",
" !	c #F8E394",
"!!	c #A0903B",
"#!	c #F9E994",
"$!	c #A49838",
"%!	c #F5E989",
"&!	c #9C8D3F",
"'!	c #D2C375",
"(!	c #C7BA6C",
")!	c #CCBF73",
"*!	c #9E9145",
"+!	c #F1E39A",
",!	c #AEA057",
"-!	c #6E6518",
".!	c #D0C77A",
"0!	c #F5EB8A",
"1!	c #C0B655",
"2!	c #F2E771",
"3!	c #CBC04A",
"4!	c #E2D258",
"5!	c #E7D75D",
"6!	c #D6C553",
"7!	c #F7E674",
"8!	c #C8B54C",
"9!	c #F5E279",
":!	c #CCBF51",
";!	c #F7EA7C",
"<!	c #CABF49",
"=!	c #C3B749",
">!	c #E4D86A",
"?!	c #DFD267",
"@!	c #E6D96E",
"A!	c #E2D56A",
"B!	c #C0B348",
"C!	c #F4EA7F",
"D!	c #D3C95E",
"E!	c #745600",
"F!	c #FEE066",
"G!	c #FFE55C",
"H!	c #F6D84F",
"I!	c #FFE347",
"J!	c #FCDE42",
"K!	c #FFE241",
"L!	c #FFE544",
"M!	c #FFE149",
"N!	c #FFE048",
"O!	c #FFDB49",
"P!	c #FFDF4D",
"Q!	c #FFE049",
"R!	c #FFE14A",
"S!	c #FEE044",
"T!	c #FFE246",
"U!	c #FBDC43",
"V!	c #FFE148",
"W!	c #FFE74E",
"X!	c #FFE34A",
"Y!	c #F9DA41",
"Z!	c #FCDF46",
"[!	c #806300",
"]!	c #F6D94D",
"^!	c #F7DC43",
"_!	c #FBE047",
"`!	c #FEE13D",
"a!	c #FDE03C",
"b!	c #FFE43C",
"c!	c #FCDD35",
"d!	c #FFE13E",
"e!	c #FADA37",
"f!	c #FFE243",
"g!	c #FFDE3F",
"h!	c #FFE341",
"i!	c #F8DB39",
"j!	c #FFE33D",
"k!	c #FBDE38",
"l!	c #FFE33F",
"m!	c #F8DB37",
"n!	c #FCDF3B",
"o!	c #FFE842",
"p!	c #F9DC36",
"q!	c #FADD37",
"r!	c #2D2400",
"s!	c #61582F",
"t!	c #605827",
"u!	c #615928",
"v!	c #615922",
"w!	c #5D551E",
"x!	c #665F23",
"y!	c #5E571B",
"z!	c #61571C",
"{!	c #63591E",
"|!	c #635820",
"}!	c #655A22",
"~!	c #60581F",
" #	c #615920",
"!#	c #60591D",
"##	c #635C20",
"$#	c #5F571E",
"%#	c #645C23",
"&#	c #5D551C",
"'#	c #635B22",
"                                                ",
"                        # $                     ",
"                      % & ' (                   ",
"                      ) * + ,                   ",
"                        - . 0                   ",
"                        1 2                     ",
"                        3                       ",
"                        4                       ",
"                                                ",
"    5                                       6   ",
"  7 8 9 : ; < = > ? @ A B C D C E B F G H I J K ",
"  L M N O P Q R S T U V W U U V X X Y Z [ ] ^ _ ",
"                                                ",
"                                                ",
"                                                ",
"= = ` a b c d e f g I h i j k l m n o p q r s r ",
"t u v w x y z { | } ~  !!!#!$!%!&!'!(!(!)!*!+!,!",
"-!.!0!1!2!3!4!5!6!7!8!9!:!;!<!2!=!>!?!@!A!B!C!D!",
"E!F!G!H!I!J!K!L!M!N!O!P!Q!R!S!T!U!V!U!W!X!Y!W!Z!",
"[!]!^!_!`!a!b!c!d!e!f!g!h!i!j!k!l!a!m!n!k!o!p!q!",
"r!s!t!u!v!w!x!y!z!{!|!}!~! #!###$#%#%#~!&#%#&#'#",
"                                                ",
"                                                ",
"                                                "};