/* XPM */ 
static const char * openfile_xpm[] = {
"24 24 320 2",
"  	c None",
"! 	c black",
"# 	c #E7E3D9",
"$ 	c #DCD4BD",
"% 	c #DECFA0",
"& 	c #EBD692",
"' 	c #DCD5BF",
"( 	c #EED996",
") 	c #D0C293",
"* 	c #D1C287",
"+ 	c #DDCB80",
", 	c #EAD47B",
"- 	c #CEBE89",
". 	c #C1B282",
"0 	c #F8E778",
"1 	c #FFF795",
"2 	c #FFFA9D",
"3 	c #FFFCA7",
"4 	c #FEFBA7",
"5 	c #F2E17F",
"6 	c #B7A672",
"7 	c #E8E7E2",
"8 	c #D6D2C4",
"9 	c #CDC3A6",
": 	c #CEBD8A",
"; 	c #D9C177",
"< 	c #DAD1B4",
"= 	c #DBC157",
"> 	c #FFFFB2",
"? 	c #FFFCAE",
"@ 	c #FFFAAB",
"A 	c #FEF8A8",
"B 	c #FEF8A5",
"C 	c #F2E07C",
"D 	c #CAB157",
"E 	c #DDC059",
"F 	c #EBCB53",
"G 	c #E8CD5F",
"H 	c #EBD56E",
"I 	c #F2E07F",
"J 	c #F7E88D",
"K 	c #F5E384",
"L 	c #C6B067",
"M 	c #E9E9E9",
"N 	c #F3DE6E",
"O 	c #FEF6A4",
"P 	c #FEF5A2",
"Q 	c #FEF5A1",
"R 	c #FFF7A3",
"S 	c #FFF9A4",
"T 	c #FFF6A3",
"U 	c #FFF6A2",
"V 	c #FFF5A1",
"W 	c #FFF5A2",
"X 	c #F7ED98",
"Y 	c #C8B36A",
"Z 	c #E8E7E7",
"[ 	c #F4DF77",
"] 	c #FFF7A6",
"^ 	c #FEF29F",
"_ 	c #FEF39F",
"` 	c #FEF29D",
"a 	c #FEF19C",
"b 	c #FEF29C",
"c 	c #FDEF99",
"d 	c #FCED91",
"e 	c #FCEC92",
"f 	c #F3DE7D",
"g 	c #C3A64C",
"h 	c #C7BB9A",
"i 	c #EEDDA8",
"j 	c #EDD68E",
"k 	c #F4E7C1",
"l 	c #F7EFD6",
"m 	c #F4DC6F",
"n 	c #FFF4A1",
"o 	c #FEF09B",
"p 	c #FEF09A",
"q 	c #FEEF99",
"r 	c #FDEF97",
"s 	c #FDEE97",
"t 	c #FDEF98",
"u 	c #FBEA8F",
"v 	c #F1DA76",
"w 	c #EED676",
"x 	c #EED77C",
"y 	c #EFD885",
"z 	c #F1DD95",
"{ 	c #EFDEA5",
"| 	c #F4EBC6",
"} 	c #FBF2CD",
"~ 	c #FAEEC1",
" !	c #F5E5AB",
"!!	c #F3E6BB",
"#!	c #F8F1DD",
"$!	c #F3D664",
"%!	c #FFF19E",
"&!	c #FDED96",
"'!	c #FDED95",
"(!	c #FEEE96",
")!	c #FEED98",
"*!	c #FEEE97",
"+!	c #FEEF97",
",!	c #F9E68A",
"-!	c #EED36D",
".!	c #F5E5AA",
"0!	c #FCF5D6",
"1!	c #FBF4D3",
"2!	c #FCF3CC",
"3!	c #FCF1C7",
"4!	c #FAEEC0",
"5!	c #FAF0C4",
"6!	c #FDF1C2",
"7!	c #FBEEB7",
"8!	c #F5E4A8",
"9!	c #F8F0DB",
":!	c #F0D05B",
";!	c #FFEF99",
"<!	c #FDEB91",
"=!	c #FDEA92",
">!	c #FBE88A",
"?!	c #F6DE7B",
"@!	c #F1D66D",
"A!	c #EED164",
"B!	c #EDD36D",
"C!	c #F0D779",
"D!	c #F5E4A4",
"E!	c #FCF3CD",
"F!	c #FDF2C5",
"G!	c #FDF0BF",
"H!	c #FCEFB9",
"I!	c #FCEEB3",
"J!	c #F8E8AA",
"K!	c #F8EAAF",
"L!	c #FCECAB",
"M!	c #F8E69D",
"N!	c #F3E3AD",
"O!	c #EECB53",
"P!	c #FFEB94",
"Q!	c #FDE990",
"R!	c #F8E17E",
"S!	c #EDD16C",
"T!	c #F2DD91",
"U!	c #F8E7A9",
"V!	c #F9ECB5",
"W!	c #F9EBB4",
"X!	c #FAEBB3",
"Y!	c #FCEEB8",
"Z!	c #FCEDB4",
"[!	c #FCECAD",
"]!	c #FCEAA6",
"^!	c #FBE9A1",
"_!	c #FBE79B",
"`!	c #F6E394",
"a!	c #F7E59A",
"b!	c #FAE58F",
"c!	c #F6E18D",
"d!	c #F7F0D8",
"e!	c #E9C54F",
"f!	c #FFE88F",
"g!	c #FEE78B",
"h!	c #EFD164",
"i!	c #F6E5A7",
"j!	c #FCEDB3",
"k!	c #FBECAC",
"l!	c #FCEBA7",
"m!	c #FCE9A0",
"n!	c #FBE89A",
"o!	c #FBE794",
"p!	c #FBE58F",
"q!	c #FBE58B",
"r!	c #FBE17D",
"s!	c #F3D765",
"t!	c #F3D866",
"u!	c #F8DA60",
"v!	c #F0D77F",
"w!	c #E8C149",
"x!	c #FFE68C",
"y!	c #F7DB76",
"z!	c #EED16A",
"{!	c #FCEBAB",
"|!	c #FCECA8",
"}!	c #FCEAA0",
"~!	c #FCE899",
" #	c #FBE68E",
"!#	c #FBE487",
"##	c #FAE383",
"$#	c #FAE27C",
"%#	c #FADE6C",
"&#	c #FAD853",
"'#	c #F9D342",
"(#	c #F1CA33",
")#	c #F0CE41",
"*#	c #F7D758",
"+#	c #F5EAC6",
",#	c #E2BC49",
"-#	c #FFE489",
".#	c #F5D46A",
"0#	c #EED067",
"1#	c #FDEB9B",
"2#	c #FBE58D",
"3#	c #FBE488",
"4#	c #FBE281",
"5#	c #FBE17C",
"6#	c #FAE076",
"7#	c #FBDE71",
"8#	c #FADC64",
"9#	c #F9D64D",
":#	c #F9D23A",
";#	c #FAD034",
"<#	c #F9CF31",
"=#	c #F2C92D",
">#	c #EFCD42",
"?#	c #F2D66F",
"@#	c #D1AE4B",
"A#	c #FFE282",
"B#	c #F1CD5F",
"C#	c #F3D767",
"D#	c #FCE27F",
"E#	c #FBDF75",
"F#	c #FADD6F",
"G#	c #FADB69",
"H#	c #FADB65",
"I#	c #FADA5D",
"J#	c #F9D64E",
"K#	c #F9D23C",
"L#	c #F9D032",
"M#	c #F9D033",
"N#	c #FAD032",
"O#	c #F9CF32",
"P#	c #F0C827",
"Q#	c #EBCB44",
"R#	c #F6E8B6",
"S#	c #CEAC4C",
"T#	c #FFDC7A",
"U#	c #EBC54A",
"V#	c #FBDE6A",
"W#	c #FBDA64",
"X#	c #FADA5F",
"Y#	c #FAD959",
"Z#	c #FAD753",
"[#	c #FAD54A",
"]#	c #FAD23D",
"^#	c #F9CF33",
"_#	c #FACF33",
"`#	c #F2C929",
"a#	c #ECCF5F",
"b#	c #D0AD53",
"c#	c #FED871",
"d#	c #EBC33C",
"e#	c #FCD957",
"f#	c #FAD54D",
"g#	c #F9D448",
"h#	c #F9D341",
"i#	c #F9D039",
"j#	c #FACF31",
"k#	c #FCD333",
"l#	c #FED734",
"m#	c #FED82F",
"n#	c #F5CC2E",
"o#	c #E4CF88",
"p#	c #CBAA5A",
"q#	c #F8CC5A",
"r#	c #F2C936",
"s#	c #FAD33F",
"t#	c #F9D139",
"u#	c #F9D035",
"v#	c #FBD031",
"w#	c #FDD232",
"x#	c #FDD532",
"y#	c #FDD22B",
"z#	c #F5C926",
"{#	c #D9B127",
"|#	c #C0A136",
"}#	c #BCA75E",
"~#	c #DCD5C0",
" $	c #C1A461",
"!$	c #F5C541",
"#$	c #F7CD30",
"$$	c #FACF32",
"%$	c #FCD132",
"&$	c #FDD332",
"'$	c #FDD431",
"($	c #FDD330",
")$	c #FACD2D",
"*$	c #EFC325",
"+$	c #DBB223",
",$	c #BC9E35",
"-$	c #AF9B51",
".$	c #B8A974",
"0$	c #C4B995",
"1$	c #D3CCB6",
"2$	c #BEA260",
"3$	c #FBCA34",
"4$	c #FDD731",
"5$	c #FDD62E",
"6$	c #FBCD2A",
"7$	c #E7BD26",
"8$	c #D2AD2A",
"9$	c #B19A52",
":$	c #B4A676",
";$	c #C8BD9A",
"<$	c #D6CFB9",
"=$	c #E1DED3",
">$	c #E8E7E3",
"?$	c #BBA15C",
"@$	c #F3C01F",
"A$	c #CDAA2A",
"B$	c #B79D3C",
"C$	c #B49F59",
"D$	c #B6A779",
"E$	c #C6BD9E",
"F$	c #DAD3BD",
"G$	c #E3DFD5",
"H$	c #E7E6E4",
"I$	c #D5CCB7",
"J$	c #BEAE7C",
"K$	c #C4BB9D",
"L$	c #D6D1BF",
"M$	c #E5E2D9",
"                                                ",
"      # $ % & '                                 ",
"    ( ) * + , -                                 ",
"  . 0 1 2 3 4 5 6       7 8 9 : ; <             ",
"  = > ? @ A A B C D E F G H I J K L M           ",
"  N @ O P P Q Q R S P P T U V W X Y Z           ",
"  [ ] ^ _ ` ` ` a a b ` c d d e f g h i j ( k l ",
"  m n o p p q q r s t u v w x y z { | } ~  !!!#!",
"  $!%!s &!'!(!)!*!+!,!-!.!0!1!2!3!4!5!6!7!8!9!  ",
"  :!;!<!=!>!?!@!A!B!C!D!E!F!G!H!I!J!K!L!M!N!    ",
"  O!P!Q!R!S!T!U!V!W!X!Y!Z![!]!^!_!`!a!b!c!d!    ",
"  e!f!g!h!i!6!Y!j!k!l!m!n!o!p!q!r!s!t!u!v!      ",
"  w!x!y!z!{!|!}!~!o! #!###$#%#&#'#(#)#*#+#      ",
"  ,#-#.#0#1#2#3#4#5#6#7#8#9#:#;#<#=#>#?#        ",
"  @#A#B#C#D#E#F#G#H#I#J#K#L#M#N#O#P#Q#R#        ",
"  S#T#U#V#W#X#Y#Z#[#]#^#<#N#_#_#O#`#a#          ",
"  b#c#d#e#f#g#h#i#_#N#j#j#N#k#l#m#n#o#          ",
"  p#q#r#s#t#u#M#O#j#v#w#x#y#z#{#|#}#~#          ",
"   $!$#$$$%$&$'$($)$*$+$,$-$.$0$1$              ",
"  2$3$4$5$6$7$8$|#9$:$;$<$=$>$                  ",
"  ?$@$A$B$C$D$E$F$G$H$                          ",
"  I$J$K$L$M$                                    ",
"                                                ",
"                                                "};