/* XPM */ 
static const char * openfolder_xpm[] = {
"24 24 275 2",
"  	c None",
"! 	c black",
"# 	c #853B02",
"$ 	c #8B3F04",
"% 	c #8C4205",
"& 	c #8A3F03",
"' 	c #883C02",
"( 	c #833800",
") 	c #89420D",
"* 	c #D3975B",
"+ 	c #DFA66C",
", 	c #E9B47B",
"- 	c #F1C08A",
". 	c #F9CB97",
"0 	c #C4874F",
"1 	c #853A01",
"2 	c #853A00",
"3 	c #863B02",
"4 	c #843901",
"5 	c #C07C3B",
"6 	c #FFC37D",
"7 	c #FFC27A",
"8 	c #FFC178",
"9 	c #FFC076",
": 	c #FFBF73",
"; 	c #F3B165",
"< 	c #8E4206",
"= 	c #A65812",
"> 	c #B5651A",
"? 	c #BD6D1E",
"@ 	c #863F09",
"A 	c #96531C",
"B 	c #A56631",
"C 	c #B47944",
"D 	c #C18854",
"E 	c #CC9864",
"F 	c #E9BC86",
"G 	c #EEC492",
"H 	c #EDCAA1",
"I 	c #EACDAB",
"J 	c #E7D1B6",
"K 	c #E5D4C1",
"L 	c #E3D7CA",
"M 	c #E1DAD2",
"N 	c #DEDBD7",
"O 	c #DCDCDC",
"P 	c #F69F3A",
"Q 	c #873B02",
"R 	c #B8ADA4",
"S 	c #BABABA",
"T 	c #C4C0B9",
"U 	c #C9C4BE",
"V 	c #CFCAC4",
"W 	c #D4CFCB",
"X 	c #DAD8D5",
"Y 	c #E1E1E1",
"Z 	c #E7E7E7",
"[ 	c #ECECEC",
"] 	c #F2F2F2",
"^ 	c #F7F7F7",
"_ 	c #F9F9F9",
"` 	c #FBFBFB",
"a 	c #FCFCFC",
"b 	c #F09A38",
"c 	c #893D03",
"d 	c #823700",
"e 	c #873C00",
"f 	c #AF977E",
"g 	c #C2A586",
"h 	c #C49B6D",
"i 	c #BF874A",
"j 	c #BD7D37",
"k 	c #BC782D",
"l 	c #BA7223",
"m 	c #B76C18",
"n 	c #B56510",
"o 	c #B16008",
"p 	c #AE5B00",
"q 	c #EEE7DE",
"r 	c #FDFDFD",
"s 	c #E1DAD1",
"t 	c #E99434",
"u 	c #DFB48B",
"v 	c #FCD19F",
"w 	c #F9D09F",
"x 	c #F8D2A5",
"y 	c #F6D2A8",
"z 	c #F5D2A9",
"{ 	c #F5D5B1",
"| 	c #F6D7B3",
"} 	c #F8DAB7",
"~ 	c #FADEBD",
" !	c #FBDFBF",
"!!	c #FCE2C3",
"#!	c #FEE5C8",
"$!	c #EBC396",
"%!	c #B97C3A",
"&!	c #CCCCCC",
"'!	c #E3E3E3",
"(!	c #F0F0F0",
")!	c #DFD4C6",
"*!	c #E48F31",
"+!	c #8C3F05",
",!	c #8B4004",
"-!	c #FBF3EA",
".!	c #FFDEB7",
"0!	c #FFD4A0",
"1!	c #FFD099",
"2!	c #FFCD92",
"3!	c #FFCB8D",
"4!	c #FFC886",
"5!	c #FFC581",
"6!	c #FFBD6F",
"7!	c #FFBB6B",
"8!	c #FED8AC",
"9!	c #C28139",
":!	c #BBAEA0",
";!	c #C9C9C9",
"<!	c #E2E2E2",
"=!	c #DBCAB6",
">!	c #DF8A2F",
"?!	c #8D4105",
"@!	c #DDBA99",
"A!	c #FECE94",
"B!	c #FFB762",
"C!	c #FFC37B",
"D!	c #E7B883",
"E!	c #B38551",
"F!	c #B9B9B9",
"G!	c #D2D2D2",
"H!	c #DBBD99",
"I!	c #D37F29",
"J!	c #8C3F04",
"K!	c #BC8B64",
"L!	c #FED4A4",
"M!	c #FFB45C",
"N!	c #FFB45D",
"O!	c #F6CA96",
"P!	c #B67227",
"Q!	c #AEAEAE",
"R!	c #BDBBBA",
"S!	c #E0B17B",
"T!	c #C57322",
"U!	c #873902",
"V!	c #A06538",
"W!	c #FDD8AD",
"X!	c #FFB257",
"Y!	c #FFB256",
"Z!	c #FEC684",
"[!	c #BD792E",
"]!	c #A5A09B",
"^!	c #AEAAA6",
"_!	c #E7AB64",
"`!	c #B6651A",
"a!	c #843800",
"b!	c #995826",
"c!	c #FAD6AD",
"d!	c #FFAF51",
"e!	c #FFAF50",
"f!	c #FFAD4D",
"g!	c #FFAB49",
"h!	c #FFAC4A",
"i!	c #FFAD4C",
"j!	c #CB904E",
"k!	c #9F8B75",
"l!	c #9E9C99",
"m!	c #F4A74C",
"n!	c #A55712",
"o!	c #934C15",
"p!	c #F5D2AB",
"q!	c #F6A344",
"r!	c #F7A341",
"s!	c #F7A03B",
"t!	c #F79F39",
"u!	c #F79F3A",
"v!	c #F7A13E",
"w!	c #F7A443",
"x!	c #F8A545",
"y!	c #F8A94E",
"z!	c #D89E5C",
"{!	c #9C7953",
"|!	c #99958F",
"}!	c #FFA73F",
"~!	c #97490A",
" #	c #8C4004",
"!#	c #EECAA5",
"##	c #ED9435",
"$#	c #F09634",
"%#	c #F09736",
"&#	c #F0993A",
"'#	c #F0993B",
"(#	c #DFA05A",
")#	c #A06C35",
"*#	c #A3927E",
"+#	c #F49E38",
",#	c #8A3E03",
"-#	c #883C03",
".#	c #E1B88D",
"0#	c #E58F33",
"1#	c #E88E2E",
"2#	c #E88E2F",
"3#	c #DF9548",
"4#	c #AA6922",
"5#	c #AC8A61",
"6#	c #E18E2E",
"7#	c #863A01",
"8#	c #863B00",
"9#	c #D2A373",
":#	c #DD8A35",
";#	c #E18528",
"<#	c #DF8F3F",
"=#	c #B26919",
">#	c #B68247",
"?#	c #C5741F",
"@#	c #8A3F04",
"A#	c #833900",
"B#	c #BC824B",
"C#	c #E1AA73",
"D#	c #E0A163",
"E#	c #E09A54",
"F#	c #E0944A",
"G#	c #DE8D3E",
"H#	c #DC8633",
"I#	c #DA8129",
"J#	c #D97D23",
"K#	c #DC8836",
"L#	c #B76F21",
"M#	c #BA7423",
"N#	c #AE6013",
"O#	c #833A01",
"P#	c #9F5413",
"Q#	c #B2681F",
"R#	c #BC7327",
"S#	c #BD782B",
"T#	c #C27D33",
"U#	c #C8843C",
"V#	c #CE8943",
"W#	c #D28B45",
"X#	c #D5893F",
"Y#	c #D8873C",
"Z#	c #D78436",
"[#	c #D68130",
"]#	c #D57D2A",
"^#	c #D57F2E",
"_#	c #BF7A32",
"`#	c #B36811",
"a#	c #984D09",
"b#	c #823800",
"c#	c #813700",
"d#	c #843C01",
"e#	c #883D01",
"f#	c #8E4100",
"g#	c #984A02",
"h#	c #A45404",
"i#	c #AE5C06",
"j#	c #B2610B",
"k#	c #B46510",
"l#	c #B96C1A",
"m#	c #BF7223",
"n#	c #C5782D",
"o#	c #CB8038",
"p#	c #C7813A",
"q#	c #B1620B",
"r#	c #6F3100",
"s#	c #7A3600",
"t#	c #863B01",
"u#	c #8D3F01",
"v#	c #994C03",
"w#	c #A55605",
"x#	c #AE5C05",
"y#	c #AF5C02",
"z#	c #793400",
"{#	c #823B01",
"|#	c #863C01",
"}#	c #823A02",
"                                                ",
"                                                ",
"                        # $ % & ' (             ",
"                      ) * + , - . 0 1   ( 2 3   ",
"                  ( 4 5 6 7 8 9 : ; < = > ? (   ",
"          @ A B C D E F G H I J K L M N O P Q   ",
"          R S T U V W X Y Z [ ] ^ _ ` a N b c   ",
"      d e f g h i j k l m n o p q _ r ` s t $   ",
"  ) u v w x y z { | } ~  !!!#!$!%!&!'!(!)!*!+!  ",
"  ,!-!.!0!1!2!3!4!5!6 9 : 6!7!8!9!:!;!<!=!>!?!  ",
"  ( @!A!B!B!B!B!B!B!B!B!B!B!B!C!D!E!F!G!H!I!J!  ",
"    K!L!M!M!M!M!M!M!M!M!M!M!M!N!O!P!Q!R!S!T!U!  ",
"    V!W!X!X!X!X!X!Y!Y!Y!Y!Y!Y!Y!Z![!]!^!_!`!a!  ",
"    b!c!d!d!e!f!g!h!i!e!d!d!d!d!7!j!k!l!m!n!    ",
"    o!p!q!r!s!t!t!t!t!u!v!w!x!x!y!z!{!|!}!~!    ",
"     #!###$#$#$#$#$#$#$#$#$#%#&#'#(#)#*#+#,#    ",
"    -#.#0#1#1#1#1#1#1#1#1#1#1#1#2#3#4#5#6#7#    ",
"    8#9#:#;#;#;#;#;#;#;#;#;#;#;#;#<#=#>#?#@#    ",
"    A#B#C#D#E#F#G#H#I#J#J#J#J#J#J#K#L#M#N##     ",
"      O#P#Q#R#S#T#U#V#W#X#Y#Z#[#]#^#_#`#a#b#    ",
"          c#d#e#f#g#h#i#j#k#l#m#n#o#p#q#,#      ",
"                    r#s#O#t#u#v#w#x#y#p t#      ",
"                                z#{#|#( }#      ",
"                                                "};