/* XPM */ 
static const char * pointinteractoron_xpm[] = {
"24 24 96 2",
"  	c None",
"! 	c black",
"# 	c #2A4E7E",
"$ 	c #234169",
"% 	c #1B3251",
"& 	c #132338",
"' 	c #09101A",
"( 	c #3868A8",
") 	c #315B93",
"* 	c #E6EDF7",
"+ 	c #E4ECF6",
", 	c #E3EBF6",
"- 	c #B3C9E6",
". 	c #B0C7E5",
"0 	c #4E81C4",
"1 	c #3E73BA",
"2 	c #B9CDE8",
"3 	c #B7CCE7",
"4 	c #ABC3E3",
"5 	c #A7C0E2",
"6 	c #A4BEE1",
"7 	c #E7EEF7",
"8 	c #BDD0E9",
"9 	c #9FBBDF",
": 	c #9BB8DE",
"; 	c #96B4DC",
"< 	c #92B1DB",
"= 	c #959595",
"> 	c #692323",
"? 	c #511B1B",
"@ 	c #381313",
"A 	c #1A0909",
"B 	c #8FAFDA",
"C 	c #8AACD8",
"D 	c #7E2A2A",
"E 	c #E6B4B4",
"F 	c #E5B0B0",
"G 	c #D07171",
"H 	c #86A9D7",
"I 	c #D37B7B",
"J 	c #D07272",
"K 	c #CC6666",
"L 	c #C85A5A",
"M 	c #3D72B7",
"N 	c #81A5D5",
"O 	c #7EA3D4",
"P 	c #D47D7D",
"Q 	c #D17474",
"R 	c #CD6868",
"S 	c #C95C5C",
"T 	c #C55050",
"U 	c #C14444",
"V 	c #3D71B6",
"W 	c #3A6CAE",
"X 	c #D47E7E",
"Y 	c #D17575",
"Z 	c #CE6B6B",
"[ 	c #CA5F5F",
"] 	c #C65353",
"^ 	c #C24747",
"_ 	c #812B2B",
"` 	c #3C70B4",
"a 	c #7AA0D3",
"b 	c #396AAB",
"c 	c #E5B1B1",
"d 	c #D27777",
"e 	c #CE6C6C",
"f 	c #CA6060",
"g 	c #C65454",
"h 	c #C24848",
"i 	c #BC3F3F",
"j 	c #7B2929",
"k 	c #3C6FB3",
"l 	c #779ED2",
"m 	c #D27878",
"n 	c #CF6F6F",
"o 	c #CB6262",
"p 	c #C75656",
"q 	c #C34A4A",
"r 	c #BD3F3F",
"s 	c #742727",
"t 	c #3B6EB1",
"u 	c #729BD0",
"v 	c #3868A7",
"w 	c #CC6565",
"x 	c #C85959",
"y 	c #C44D4D",
"z 	c #BF4040",
"{ 	c #7D2A2A",
"| 	c #772828",
"} 	c #3766A5",
"~ 	c #C44E4E",
" !	c #872D2D",
"!!	c #6F98CF",
"#!	c #3664A1",
"$!	c #6C96CE",
"                                                ",
"                                                ",
"                  # $ % & ' !                   ",
"              ( ) * + , , - . ! !               ",
"          0 1 * * + 2 3 - . 4 5 6 ! !           ",
"        0 7 * * 8 2 3 - . 4 5 6 9 : ; !         ",
"        1 * * 8 2 3 - . 4 5 6 9 : ; < ! =       ",
"      ( * * 8 2 3 - > ? @ A 9 : ; < B C ! =     ",
"      ) * 8 2 3 - D E E F G ! 1 < B C H ! =     ",
"    # * + 2 3 - D E E I J K L ! M C H N O ! =   ",
"    $ + 2 3 - > E E P Q R S T U ! V N O W ! =   ",
"    % , 3 - . ? E X Y Z [ ] ^ _ ! ` O a b ! =   ",
"    & , - . 4 @ c d e f g h i j ! k a l ( ! =   ",
"    ' - . 4 5 A m n o p q r j s ! t l u v ! =   ",
"    ! . 4 5 6 9 ! w x y z { | ! t l u v } ! =   ",
"      ! 5 6 9 : 1 ! ~  !D | ! t l u !!} ! =     ",
"      ! 6 9 : ; < M ! ! ! ! t l u !!} #!! =     ",
"        ! : ; < B C V ` k t l u !!$!#!! =       ",
"        ! ; < B C H N O a l u !!} #!#!! =       ",
"          ! ! C H N O a l u v } #!! ! =         ",
"            = ! ! O W b ( v } ! ! = =           ",
"              = = ! ! ! ! ! ! = =               ",
"                  = = = = = =                   ",
"                                                "};