/* XPM */ 
static const char * saveimageon_xpm[] = {
"24 24 94 2",
"  	c None",
"! 	c black",
"# 	c #545454",
"$ 	c #464646",
"% 	c #363636",
"& 	c #252525",
"' 	c #111111",
"( 	c #FFFF00",
") 	c #D1D1D1",
"* 	c #C2C2C2",
"+ 	c #F26D7D",
", 	c #FFFFB3",
"- 	c #898989",
". 	c #7C7C7C",
"0 	c #707070",
"1 	c #626262",
"2 	c #C0C0C0",
"3 	c #BFBFBF",
"4 	c #CFCFCF",
"5 	c #BBBBBB",
"6 	c #BABABA",
"7 	c #B8B8B8",
"8 	c #B6B6B6",
"9 	c #B4B4B4",
": 	c #B3B3B3",
"; 	c #D0D0D0",
"< 	c #BDBDBD",
"= 	c #AFAFAF",
"> 	c #ADADAD",
"? 	c #ACACAC",
"@ 	c #CDCDCD",
"A 	c #CCCCCC",
"B 	c #CBCBCB",
"C 	c #C9C9C9",
"D 	c #C8C8C8",
"E 	c #C7C7C7",
"F 	c #AAAAAA",
"G 	c #A7A7A7",
"H 	c #C6C6C6",
"I 	c #A0A0A0",
"J 	c #A4A4A4",
"K 	c #A2A2A2",
"L 	c #B7B7B7",
"M 	c #9E9E9E",
"N 	c #9A9A9A",
"O 	c #C3C3C3",
"P 	c #C1C1C1",
"Q 	c #9D9D9D",
"R 	c #C4C4C4",
"S 	c #848484",
"T 	c #999999",
"U 	c #969696",
"V 	c #BEBEBE",
"W 	c #BCBCBC",
"X 	c #7F7F7F",
"Y 	c #757575",
"Z 	c #6E6E6E",
"[ 	c #949494",
"] 	c #939393",
"^ 	c #919191",
"_ 	c #959595",
"` 	c #989898",
"a 	c #7B7B7B",
"b 	c #6B6B6B",
"c 	c #5F5F5F",
"d 	c #555555",
"e 	c #909090",
"f 	c #8E8E8E",
"g 	c #8D8D8D",
"h 	c #B9B9B9",
"i 	c #585858",
"j 	c #484848",
"k 	c #3D3D3D",
"l 	c #8B8B8B",
"m 	c #8A8A8A",
"n 	c #888888",
"o 	c #353535",
"p 	c #878787",
"q 	c #858585",
"r 	c #868686",
"s 	c #838383",
"t 	c #818181",
"u 	c #B5B5B5",
"v 	c #B1B1B1",
"w 	c #828282",
"x 	c #7D7D7D",
"y 	c #7A7A7A",
"z 	c #B0B0B0",
"{ 	c #7E7E7E",
"| 	c #797979",
"} 	c #777777",
"~ 	c #AEAEAE",
" !	c #787878",
"!!	c #737373",
"                                                ",
"                                                ",
"                  # $ % & ' !         (         ",
"                # ) * ) * * * !       +         ",
"                $ * $ % & ' * !       (         ",
"              % ) ) * * ) * * * ! ,   +   ,     ",
"      - . 0 1 # $ % & ' ! ! ! ! ! ! ( + (       ",
"    - ) * ) * 2 3 4 5 6 7 8 9 : ( , + , + , (   ",
"    . * # * 2 ; < $ % & ' ! ! = > ? ( + ( !     ",
"    0 ) # # 3 < # @ A B C D E ! F + G , ! + *   ",
"    1 * 2 ; < # @ A % & ' ! H I ! J K ( I ! L   ",
"    # ; 3 < $ @ A % I I M N ! O P ! Q + N ! ?   ",
"    $ 2 < 4 % A % I I R * - S ! I ! T ( U ! I   ",
"    % V W 6 & B & I R 2 X Y Z ! < ! [ ] ^ ! _   ",
"    & 4 6 7 ' C ' ` 2 a b c d ! I ! e f g ! _   ",
"    ' W h 8 ! D ! e X b i j k ! h ! l m n ! _   ",
"    ! 6 L 9 ! E H ! Y c j o ! I L ! p q S ! _   ",
"    ! h 8 : = ! I O ! ! ! ! h L ! r s t X ! _   ",
"    ! 7 u v > F ! P I < I h I ! q w X x y ! _   ",
"    ! L 9 z ? G J ! ! ! ! ! ! r w { a | } ! _   ",
"    ! 8 : ~ F G K Q T [ e l p s X a  !Y !!! _   ",
"      ! ! ! ! ! ! ! ! ! ! ! ! ! ! ! ! ! ! _     ",
"        * L ? I _ _ _ _ _ _ _ _ _ _ _ _ _       ",
"                                                "};