/* XPM */ 
static const char * savefile_xpm[] = {
"24 24 187 2",
"  	c None",
"! 	c black",
"# 	c #4C7BC3",
"$ 	c #648ECC",
"% 	c #658ECB",
"& 	c #668FCC",
"' 	c #6A91CD",
"( 	c #6991CD",
") 	c #6A90CC",
"* 	c #678FCC",
"+ 	c #658ECD",
", 	c #769BD2",
"- 	c #DCE5F3",
". 	c #638DCB",
"0 	c #CADEF9",
"1 	c #A6C5F0",
"2 	c #C2D8F6",
"3 	c white",
"4 	c #FDFFFF",
"5 	c #FBFDFF",
"6 	c #FEFEFF",
"7 	c #FBFEFF",
"8 	c #FBFFFF",
"9 	c #F3F9FC",
": 	c #BBD0EC",
"; 	c #9CBAE3",
"< 	c #87A7D8",
"= 	c #D6E1F1",
"> 	c #ABC8F1",
"? 	c #6D9DE6",
"@ 	c #98BBED",
"A 	c #FCFEFF",
"B 	c #9FB8DE",
"C 	c #E0E9F7",
"D 	c #EFF4FC",
"E 	c #F6F9FE",
"F 	c #ECF1FB",
"G 	c #E7F0FA",
"H 	c #E5EFFA",
"I 	c #DBE7F7",
"J 	c #90AEDA",
"K 	c #648FCF",
"L 	c #99B7E3",
"M 	c #88A9D9",
"N 	c #D9E3F1",
"O 	c #AECAF2",
"P 	c #74A2E7",
"Q 	c #9DBEEE",
"R 	c #7D9ED2",
"S 	c #E8F0F9",
"T 	c #F7FAFF",
"U 	c #EDF3FC",
"V 	c #E8F0FA",
"W 	c #E6EEF9",
"X 	c #D8E5F6",
"Y 	c #95B2DC",
"Z 	c #638ECF",
"[ 	c #6E96D2",
"] 	c #8FAFDB",
"^ 	c #80A2D6",
"_ 	c #C3D2EA",
"` 	c #9EBEEE",
"a 	c #FDFEFF",
"b 	c #C1D1EB",
"c 	c #F2F7FC",
"d 	c #EEF4FC",
"e 	c #EAF1FB",
"f 	c #DAE6F6",
"g 	c #D9E5F6",
"h 	c #DAE5F6",
"i 	c #6590CF",
"j 	c #6B94D2",
"k 	c #658DC9",
"l 	c #A6C1E6",
"m 	c #5F8ACA",
"n 	c #75A3E7",
"o 	c #97BAEC",
"p 	c #E4ECF7",
"q 	c #E8F1FA",
"r 	c #E0EAF7",
"s 	c #DCE8F6",
"t 	c #DDE8F6",
"u 	c #DAE6F5",
"v 	c #D8E5F5",
"w 	c #6C95D2",
"x 	c #688FCB",
"y 	c #A3BEE4",
"z 	c #658ECC",
"{ 	c #7BA7E9",
"| 	c #7BA5E3",
"} 	c #6D95D0",
"~ 	c #6E95D0",
" !	c #6F96D0",
"!!	c #6A92CD",
"#!	c #6E97D4",
"$!	c #7AA6E8",
"%!	c #80AAE9",
"&!	c #81ABEB",
"'!	c #7DA6E5",
"(!	c #7CA5E4",
")!	c #769FDC",
"*!	c #6F98D5",
"+!	c #6B95D2",
",!	c #7BA4E2",
"-!	c #7AA3E0",
".!	c #729BD8",
"0!	c #7099D6",
"1!	c #668ECB",
"2!	c #6990CC",
"3!	c #80AAEA",
"4!	c #7EA7E6",
"5!	c #7BA3E1",
"6!	c #79A2E0",
"7!	c #648CC9",
"8!	c #7FA9E9",
"9!	c #7CA6E5",
":!	c #7AA2E0",
";!	c #7AA3E1",
"<!	c #7AA3E2",
"=!	c #749EDC",
">!	c #6F98D6",
"?!	c #6992D0",
"@!	c #638BC9",
"A!	c #7DA7E7",
"B!	c #79A3E2",
"C!	c #79A2E1",
"D!	c #79A3E1",
"E!	c #709AD7",
"F!	c #6D97D4",
"G!	c #6D97D5",
"H!	c #658DCB",
"I!	c #618AC8",
"J!	c #6990CB",
"K!	c #ADC9F2",
"L!	c #7BA7E8",
"M!	c #A6C3EE",
"N!	c #A5C2EB",
"O!	c #A5C1EB",
"P!	c #9FBBE4",
"Q!	c #9DB9E2",
"R!	c #9EBAE3",
"S!	c #99B4DC",
"T!	c #84A4D5",
"U!	c #668ECA",
"V!	c #F5F9FC",
"W!	c #EDF3FB",
"X!	c #EDF4FB",
"Y!	c #EEF4FB",
"Z!	c #EFF5FC",
"[!	c #F3F7FD",
"]!	c #C9D8ED",
"^!	c #608AC9",
"_!	c #EAF1FA",
"`!	c #EBF2FB",
"a!	c #EEF3FB",
"b!	c #C5D5EC",
"c!	c #618AC9",
"d!	c #ACC8F2",
"e!	c #E5EEF9",
"f!	c #E6EFF9",
"g!	c #EAF0F9",
"h!	c #C4D4EB",
"i!	c #6089C9",
"j!	c #648CCA",
"k!	c #83ABE9",
"l!	c #F0F5FB",
"m!	c #E9F1FA",
"n!	c #EDF2FB",
"o!	c #C6D5EC",
"p!	c #A4BFE5",
"q!	c #648CCB",
"r!	c #5984C8",
"s!	c #B6CEEE",
"t!	c #AAC4EA",
"u!	c #DBE5F5",
"v!	c #D6E2F3",
"w!	c #D6E3F3",
"x!	c #D8E4F3",
"y!	c #CADAEF",
"z!	c #A0BCE4",
"{!	c #A2BEE5",
"|!	c #5985C7",
"}!	c #5A84C8",
"~!	c #628CCB",
" #	c #678ECB",
"!#	c #608ACB",
"##	c #678ECC",
"                                                ",
"                                                ",
"    # $ % & ' ' ' ' ( ( ' ) * + , -             ",
"    . 0 1 2 3 3 4 5 3 6 7 8 9 : ; < =           ",
"    % > ? @ A B C D E F G H I J K L M N         ",
"    % O P Q 3 R S T U V W I X Y Z [ ] ^ _ _     ",
"    % O P ` a b c d e W f g h Y i j k l m m     ",
"    % O n o p q r s t u v u u Y i w x y z z     ",
"    % O { | } } } ~ ~ ~  ! !~ !!#!w x y z z     ",
"    % O $!%!&!'!| | | | | | (!)!*!+!x y z z     ",
"    % O $!%!%!(!,!,!,!,!,!-!.!0!#!1!2!y z z     ",
"    % O $!3!4!5!,!,!,!,!,!6!*!0!#!7!2!y z z     ",
"    % O $!8!9!:!;!;!;!<!<!=!*!>!?!@!2!y z z     ",
"    % O $!A!B!C!B!B!B!B!D!E!F!G!H!I!J!y z z     ",
"    % K!L!M!N!O!O!O!O!O!O!P!Q!R!S!T!U!y z z     ",
"    % K!8!V!W!W!W!W!W!W!W!X!Y!Z![!]!^!y z z     ",
"    % K!8!Z!_!_!_!_!_!_!_!_!_!`!a!b!c!y z z     ",
"    % d!8!Z!e!e!e!e!e!e!e!e!e!f!g!h!i!y z z     ",
"    j!O k!l!S S S S S S S S S m!n!o!H!p!q!q!    ",
"    r!s!t!u!v!v!v!v!v!v!v!v!v!w!x!y!z!{!|!|!    ",
"    }!~!q!H! # # # # # # # # #1!H!H!H!!#####    ",
"    }!~!q!H! # # # # # # # # #1!H!H!H!!#####    ",
"                                                ",
"                                                "};