/* XPM */ 
static const char * showlabelson_xpm[] = {
"24 24 92 1",
" 	c None",
"!	c black",
"#	c #B7B7B7",
"$	c #ACACAC",
"%	c #A0A0A0",
"&	c #959595",
"'	c #898989",
"(	c #7C7C7C",
")	c #707070",
"*	c #626262",
"+	c #545454",
",	c #464646",
"-	c #363636",
".	c #252525",
"0	c #111111",
"1	c #FCEAAC",
"2	c #FAE8AB",
"3	c #F9E7AA",
"4	c #F7E5A9",
"5	c #F6E4A8",
"6	c #F4E3A7",
"7	c #F2E1A5",
"8	c #F1E0A5",
"9	c #F0DFA4",
":	c #EFDEA3",
";	c #C2C2C2",
"<	c #F8E6A9",
"=	c #EEDDA3",
">	c #ECDBA1",
"?	c #EBDAA1",
"@	c #EAD9A0",
"A	c #E4D49C",
"B	c #E8D89F",
"C	c #E6D69D",
"D	c #E2D29A",
"E	c #E0D099",
"F	c #DFCF98",
"G	c #DECE98",
"H	c #EDDCA2",
"I	c #E1D19A",
"J	c #DCCD96",
"K	c #DACB95",
"L	c #D9CA94",
"M	c #D8C994",
"N	c #D2C390",
"O	c #E9D99F",
"P	c #E5D59C",
"Q	c #DDCE97",
"R	c #D6C792",
"S	c #D3C490",
"T	c #D1C28E",
"U	c #CFC08D",
"V	c #CDBE8C",
"W	c #CCBD8B",
"X	c #D4C591",
"Y	c #CEBF8C",
"Z	c #CBBC8A",
"[	c #C9BA89",
"]	c #C7B888",
"^	c #C6B887",
"_	c #C5B786",
"`	c #BFB182",
"a	c #D0C18E",
"b	c #C3B585",
"c	c #BCAE80",
"d	c #BAAD7F",
"e	c #B9AC7E",
"f	c #DBCC96",
"g	c #C2B484",
"h	c #B1AD9F",
"i	c #A8A496",
"j	c #9F9B8E",
"k	c #969285",
"l	c #8C897B",
"m	c #848073",
"n	c #C8B988",
"o	c #BEB082",
"p	c #A7A496",
"q	c #9F9B8D",
"r	c #E7CE75",
"s	c #D0B969",
"t	c #BAA55E",
"u	c #AA9756",
"v	c #B7AA7D",
"w	c #959184",
"x	c #AF9C59",
"y	c #92814A",
"z	c #C1B384",
"{	c #B4A77B",
"|	c #8B877B",
"}	c #B3A67A",
"~	c #827F72",
"                        ",
"                        ",
"                        ",
"     #$%&'()*+,-.0!     ",
"     $1234567899::!;    ",
"     %2<5679=>?@@@!#    ",
"     &4*+,-.0!!!!A!$    ",
"     '68=?BCADEFGG!%    ",
"     (9H@CAIGJKLMM!&    ",
"     )>*+,-.0!!!!N!&    ",
"     *OPIQLRSTUVWW!&    ",
"     +PIJMXTYZ[]^_!&    ",
"     ,D*+,-.0!!!!`!&    ",
"     -GLXaZ]b`cdee!&    ",
"     .fRTW]ghijklm!&    ",
"     0MSYnbop+,-.0!&    ",
"     !RTZ_`dq,rstu!&    ",
"     !XU[gcvw-sxy!&     ",
"     !SV]zd{|.ty!&      ",
"     !NW^`e}~0u!&       ",
"     !!!!!!!!!!&        ",
"      ;#$%&&&&&         ",
"                        ",
"                        "};