/* XPM */ 
static const char * unlink_xpm[] = {
"24 24 17 1",
" 	c None",
"!	c black",
"#	c #CECECE",
"$	c #436181",
"%	c #D4D6D8",
"&	c #BBC2CE",
"'	c #9BA7B9",
"(	c #8FA2B8",
")	c #687D99",
"*	c #AAB7CA",
"+	c #D2DFF2",
",	c #F9FCFE",
"-	c #527292",
".	c #BDCAE2",
"0	c #8396AB",
"1	c #364B6D",
"2	c #53647D",
"                        ",
"                 #$     ",
"       $%%  $   %$      ",
"       $%%  $   %$      ",
"        $$% $ %%$       ",
"          $ $ $$        ",
"                        ",
"    %&'('')  %))('&     ",
"  %%*+,,--% %),,,.0*    ",
"  %%*+,,--% %),,,.0*    ",
"  **+(12%%  -2112'*)    ",
"  '',1#         #(+1    ",
"  **%()(111  %))(*(2    ",
"  ##(*+.11% %-++.02'    ",
"    #02$%%  $$22$)'     ",
"    #02$%%  $$22$)'     ",
"                        ",
"        $$%$ $          ",
"       $%% $ %$$        ",
"      $%   $  %%$       ",
"                        ",
"                        ",
"                        ",
"                        "};