/* XPM */ 
static const char * add_xpm[] = {
"24 24 179 2",
"  	c None",
"! 	c white",
"# 	c #FBFCFD",
"$ 	c #FAFBFD",
"% 	c #FBFCFE",
"& 	c #FBFCFF",
"' 	c #FCFCFE",
"( 	c #F9FAFD",
") 	c #FBFBFE",
"* 	c #ACBEE0",
"+ 	c #6583BF",
", 	c #6684C0",
"- 	c #6584C0",
". 	c #B3C3E3",
"0 	c #6F8CC4",
"1 	c #053389",
"2 	c #09368B",
"3 	c #09378B",
"4 	c #06348B",
"5 	c #7793C8",
"6 	c #FAFBFE",
"7 	c #718FC6",
"8 	c #0F3D90",
"9 	c #144092",
": 	c #144091",
"; 	c #103E91",
"< 	c #7C98CA",
"= 	c #174396",
"> 	c #1D4898",
"? 	c #174496",
"@ 	c #809BCC",
"A 	c #FAFAFD",
"B 	c #7B96CA",
"C 	c #1E499B",
"D 	c #244F9E",
"E 	c #25509E",
"F 	c #204C9C",
"G 	c #859FCF",
"H 	c #FCFDFF",
"I 	c #FAFBFF",
"J 	c #26519F",
"K 	c #2D56A3",
"L 	c #2E57A3",
"M 	c #2852A0",
"N 	c #89A2D1",
"O 	c #ABBEDF",
"P 	c #6C8BC3",
"Q 	c #718EC5",
"R 	c #7692C7",
"S 	c #7995CA",
"T 	c #7E99CB",
"U 	c #4D71B5",
"V 	c #2F59A4",
"W 	c #375FA9",
"X 	c #395FA9",
"Y 	c #335BA6",
"Z 	c #5579B8",
"[ 	c #819CCD",
"] 	c #7D98CB",
"^ 	c #7894C9",
"_ 	c #7591C7",
"` 	c #708DC5",
"a 	c #B3C3E2",
"b 	c #FCFDFE",
"c 	c #6282BE",
"d 	c #023188",
"e 	c #0D3A8E",
"f 	c #164294",
"g 	c #1D489A",
"h 	c #244E9D",
"i 	c #2E57A4",
"j 	c #3A61AA",
"k 	c #4067AF",
"l 	c #4269B0",
"m 	c #3E65AD",
"n 	c #335DA7",
"o 	c #2B54A1",
"p 	c #234D9D",
"q 	c #1A4698",
"r 	c #113E92",
"s 	c #08358B",
"t 	c #6D8BC4",
"u 	c #6383BE",
"v 	c #063388",
"w 	c #103C90",
"x 	c #194496",
"y 	c #224B9C",
"z 	c #2A54A1",
"{ 	c #345DA7",
"| 	c #3D64AD",
"} 	c #476DB3",
"~ 	c #446AB1",
" !	c #3B62AB",
"!!	c #325AA5",
"#!	c #27519F",
"$!	c #204A9A",
"%!	c #164293",
"&!	c #0B398D",
"'!	c #6E8CC4",
"(!	c #FCFCFF",
")!	c #6081BC",
"*!	c #012F86",
"+!	c #0B388D",
",!	c #144093",
"-!	c #1C4799",
".!	c #25509F",
"0!	c #315AA5",
"1!	c #3E64AD",
"2!	c #466CB2",
"3!	c #4A6FB4",
"4!	c #385FA9",
"5!	c #224C9D",
"6!	c #1B4698",
"7!	c #113E91",
"8!	c #6B8AC2",
"9!	c #859FCE",
":!	c #315AA4",
";!	c #3A60A8",
"<!	c #4066AD",
"=!	c #466CB1",
">!	c #365EA8",
"?!	c #3E65AE",
"@!	c #4167AF",
"A!	c #4369AF",
"B!	c #5175B7",
"C!	c #4B70B4",
"D!	c #446AAF",
"E!	c #3D65AB",
"F!	c #355DA7",
"G!	c #90A8D3",
"H!	c #FBFBFD",
"I!	c #E6EBF6",
"J!	c #D5DEF1",
"K!	c #D6DFF1",
"L!	c #D9E1F2",
"M!	c #DBE3F2",
"N!	c #DCE4F4",
"O!	c #7492C8",
"P!	c #2D57A2",
"Q!	c #3059A4",
"R!	c #7D98CC",
"S!	c #DDE5F4",
"T!	c #DCE4F3",
"U!	c #DAE2F2",
"V!	c #D8E1F2",
"W!	c #D5DFF1",
"X!	c #E8EDF7",
"Y!	c #7F9ACD",
"Z!	c #254F9E",
"[!	c #2B55A2",
"]!	c #2C55A2",
"^!	c #2751A0",
"_!	c #8BA3D1",
"`!	c #7895CA",
"a!	c #1C4899",
"b!	c #1F4B9B",
"c!	c #859ECF",
"d!	c #154194",
"e!	c #1B4697",
"f!	c #1C4798",
"g!	c #184496",
"h!	c #7F9BCC",
"i!	c #728FC6",
"j!	c #0D3B8E",
"k!	c #123E90",
"l!	c #143F91",
"m!	c #0F3B8F",
"n!	c #7C97C9",
"o!	c #6D8BC3",
"p!	c #033288",
"q!	c #08368A",
"r!	c #09368A",
"s!	c #043389",
"t!	c #7693C7",
"u!	c #B0C1E1",
"v!	c #6C89C2",
"w!	c #6E8CC3",
"x!	c #6D8AC3",
"y!	c #B5C5E4",
"! ! ! ! ! ! ! ! ! ! ! ! ! ! ! ! ! ! ! ! ! ! ! ! ",
"! ! ! ! ! ! ! ! ! ! ! ! ! ! ! ! ! ! ! ! ! ! ! ! ",
"! ! # $ $ $ $ $ $ % & & & & ' $ $ $ $ $ $ # ! ! ",
"! ! $ ( ( ( ( ( ) * + , - - . % ( ( ( ( ( $ ! ! ",
"! ! $ ( ( ( ( $ & 0 1 2 3 4 5 & $ ( ( ( ( $ ! ! ",
"! ! $ ( ( ( ( $ 6 7 8 9 : ; < & $ ( ( ( ( $ ! ! ",
"! ! $ ( ( ( ( $ 6 5 = > > ? @ & $ ( ( ( ( $ ! ! ",
"! ! $ A $ $ $ # % B C D E F G H # $ $ $ ( $ ! ! ",
"! ! $ ) I 6 6 % & @ J K L M N H % 6 6 I ) $ ! ! ",
"! ! ' O P Q R S T U V W X Y Z [ ] ^ _ ` a b ! ! ",
"! ! & c d e f g h i j k l m n o p q r s t H ! ! ",
"! ! & u v w x y z { | } U ~  !!!#!$!%!&!'!(!! ! ",
"! ! & )!*!+!,!-!.!0!1!2!3!~ 4!z 5!6!7!4 8!(!! ! ",
"! ! (!9!:!;!<!=!U m >!?!@! !A!B!C!D!E!F!G!H ! ! ",
"! ! H!I!J!K!L!M!N!O!P!F!>!Q!R!S!T!U!V!W!X!$ ! ! ",
"! ! $ b ! ! ! ! ! Y!Z![!]!^!_!! ! ! ! ! ' $ ! ! ",
"! ! $ ( ( ( ( $ 6 `!a!h h b!c!& $ ( ( ( ( $ ! ! ",
"! ! $ ( ( ( ( $ 6 _ d!e!f!g!h!& $ ( ( ( ( $ ! ! ",
"! ! $ ( ( ( ( $ 6 i!j!k!l!m!n!& $ ( ( ( ( $ ! ! ",
"! ! $ ( ( ( ( $ 6 o!p!q!r!s!t!& $ ( ( ( ( $ ! ! ",
"! ! $ ( ( ( ( ( 6 u!v!w!o!x!y!% ( ( ( ( ( $ ! ! ",
"! ! # $ $ $ $ $ H!b H H (!H ' $ $ $ $ $ $ # ! ! ",
"! ! ! ! ! ! ! ! ! ! ! ! ! ! ! ! ! ! ! ! ! ! ! ! ",
"! ! ! ! ! ! ! ! ! ! ! ! ! ! ! ! ! ! ! ! ! ! ! ! "};