/* XPM */ 
static const char * contrast_xpm[] = {
"24 24 72 1",
" 	c None",
"!	c black",
"#	c #CBCBCB",
"$	c #ABABAB",
"%	c #404040",
"&	c #080808",
"'	c #121212",
"(	c #0F0F0F",
")	c #0B0B0B",
"*	c #CCCCCC",
"+	c #C3C3C3",
",	c #030303",
"-	c #0D0D0D",
".	c #101010",
"0	c #060606",
"1	c #111111",
"2	c #BBBBBB",
"3	c #3C3C3C",
"4	c #4F4F4F",
"5	c #BCBCBC",
"6	c #F4F4F4",
"7	c #F3F3F3",
"8	c #A3A3A3",
"9	c #010101",
":	c #040404",
";	c #414141",
"<	c #EFEFEF",
"=	c #3D3D3D",
">	c #AFAFAF",
"?	c white",
"@	c #ADADAD",
"A	c #020202",
"B	c #C7C7C7",
"C	c #383838",
"D	c #F5F5F5",
"E	c #FBFBFB",
"F	c #FEFEFE",
"G	c #C8C8C8",
"H	c #B2B2B2",
"I	c #F9F9F9",
"J	c #FCFCFC",
"K	c #070707",
"L	c #090909",
"M	c #BEBEBE",
"N	c #ACACAC",
"O	c #454545",
"P	c #F8F8F8",
"Q	c #FAFAFA",
"R	c #050505",
"S	c #BDBDBD",
"T	c #F6F6F6",
"U	c #FDFDFD",
"V	c #0A0A0A",
"W	c #0C0C0C",
"X	c #EDEDED",
"Y	c #F1F1F1",
"Z	c #151515",
"[	c #BABABA",
"]	c #424242",
"^	c #B1B1B1",
"_	c #AEAEAE",
"`	c #F7F7F7",
"a	c #C0C0C0",
"b	c #3E3E3E",
"c	c #F2F2F2",
"d	c #A7A7A7",
"e	c #EAEAEA",
"f	c #BFBFBF",
"g	c #A0A0A0",
"h	c #0E0E0E",
"i	c #3F3F3F",
"j	c #CECECE",
"                        ",
"                        ",
"       #$%&'()%$*       ",
"      +(!,-.0!,!12      ",
"     3!!456789:0!,;<    ",
"    =!=>????@!,,A:!;    ",
"   B!CD?EEF?$!A,0::9+   ",
"  G',H?IFJF?$!AA:KLA'M  ",
"  N!OJPQIIE?$!AAR,RL!N  ",
"  =LS?PPJTQ?$!AA::,,&;  ",
"  !'EJU?FQ??$!A9,0!0:R  ",
"  VWX???????$!AA9999!1  ",
"  W)Y???????$!AA9999!'  ",
"  !ZPU??????$!AA!!!!!&  ",
"  =K[???????$!AA9999!]  ",
"  ^!OE??????$!,,9A9A!_  ",
"  B1,[?EEQ`?$!::A&KA.G  ",
"   a!bc?FT`?d!,&L&:0a   ",
"    3!;^????_!,AK0!=    ",
"    e%!!4f76g!!A!K]     ",
"      a(!!L-.!!!.f      ",
"       #N;LWWhiNj       ",
"                        ",
"                        "};