/* XPM */ 
static const char * substract_xpm[] = {
"24 24 105 2",
"  	c None",
"! 	c white",
"# 	c #FBFCFD",
"$ 	c #FAFBFD",
"% 	c #F9FAFD",
"& 	c #FAFAFD",
"' 	c #FBFBFE",
"( 	c #FAFBFF",
") 	c #FCFCFE",
"* 	c #ABBEDF",
"+ 	c #6C8BC3",
", 	c #718EC5",
"- 	c #7692C7",
". 	c #7995CA",
"0 	c #7E99CB",
"1 	c #819CCD",
"2 	c #7D98CB",
"3 	c #7894C9",
"4 	c #7591C7",
"5 	c #708DC5",
"6 	c #B3C3E2",
"7 	c #FCFDFE",
"8 	c #FBFCFF",
"9 	c #6282BE",
": 	c #023188",
"; 	c #0D3A8E",
"< 	c #164294",
"= 	c #1D489A",
"> 	c #244E9D",
"? 	c #2E57A4",
"@ 	c #3A61AA",
"A 	c #4067AF",
"B 	c #4269B0",
"C 	c #3E65AD",
"D 	c #335DA7",
"E 	c #2B54A1",
"F 	c #234D9D",
"G 	c #1A4698",
"H 	c #113E92",
"I 	c #08358B",
"J 	c #6D8BC4",
"K 	c #FCFDFF",
"L 	c #6383BE",
"M 	c #063388",
"N 	c #103C90",
"O 	c #194496",
"P 	c #224B9C",
"Q 	c #2A54A1",
"R 	c #345DA7",
"S 	c #3D64AD",
"T 	c #476DB3",
"U 	c #4D71B5",
"V 	c #446AB1",
"W 	c #3B62AB",
"X 	c #325AA5",
"Y 	c #27519F",
"Z 	c #204A9A",
"[ 	c #164293",
"] 	c #0B398D",
"^ 	c #6E8CC4",
"_ 	c #FCFCFF",
"` 	c #6081BC",
"a 	c #012F86",
"b 	c #0B388D",
"c 	c #144093",
"d 	c #1C4799",
"e 	c #25509F",
"f 	c #315AA5",
"g 	c #3E64AD",
"h 	c #466CB2",
"i 	c #4A6FB4",
"j 	c #385FA9",
"k 	c #224C9D",
"l 	c #1B4698",
"m 	c #113E91",
"n 	c #06348B",
"o 	c #6B8AC2",
"p 	c #859FCE",
"q 	c #315AA4",
"r 	c #3A60A8",
"s 	c #4066AD",
"t 	c #466CB1",
"u 	c #365EA8",
"v 	c #3E65AE",
"w 	c #4167AF",
"x 	c #4369AF",
"y 	c #5175B7",
"z 	c #4B70B4",
"{ 	c #446AAF",
"| 	c #3D65AB",
"} 	c #355DA7",
"~ 	c #90A8D3",
" !	c #FBFBFD",
"!!	c #E6EBF6",
"#!	c #D5DEF1",
"$!	c #D6DFF1",
"%!	c #D9E1F2",
"&!	c #DBE3F2",
"'!	c #DCE4F4",
"(!	c #DDE5F4",
")!	c #DCE4F3",
"*!	c #DAE2F2",
"+!	c #D8E1F2",
",!	c #D5DFF1",
"-!	c #E8EDF7",
"! ! ! ! ! ! ! ! ! ! ! ! ! ! ! ! ! ! ! ! ! ! ! ! ",
"! ! ! ! ! ! ! ! ! ! ! ! ! ! ! ! ! ! ! ! ! ! ! ! ",
"! ! # $ $ ! ! ! ! ! ! ! ! ! ! ! ! ! ! ! ! ! ! ! ",
"! ! $ % % ! ! ! ! ! ! ! ! ! ! ! ! ! ! ! ! ! ! ! ",
"! ! $ % % ! ! ! ! ! ! ! ! ! ! ! ! ! ! ! ! ! ! ! ",
"! ! $ % % ! ! ! ! ! ! ! ! ! ! ! ! ! ! ! ! ! ! ! ",
"! ! $ % % ! ! ! ! ! ! ! ! ! ! ! ! ! ! ! ! ! ! ! ",
"! ! $ & $ ! ! ! ! ! ! ! ! ! ! ! ! ! ! ! ! ! ! ! ",
"! ! $ ' ( ! ! ! ! ( ! ( ! ! ! ! ! ! ! ! ! ! ! ! ",
"! ! ) * + , - . 0 + , + , - . 1 2 3 4 5 6 7 ! ! ",
"! ! 8 9 : ; < = > ? @ A B C D E F G H I J K ! ! ",
"! ! 8 L M N O P Q R S T U V W X Y Z [ ] ^ _ ! ! ",
"! ! 8 ` a b c d e f g h i V j Q k l m n o _ ! ! ",
"! ! _ p q r s t U C u v w W x y z { | } ~ K ! ! ",
"! !  !!!#!$!%!&!'!%!&!'!%!&!'!(!)!*!+!,!-!$ ! ! ",
"! ! ! ! ! ! ! ! ! ! ! ! ! ! ! ! ! ! ! ! ! $ ! ! ",
"! ! ! ! ! ! ! ! ! ! ! ! ! ! ! ! ! ! ! ! ! $ ! ! ",
"! ! ! ! ! ! ! ! ! ! ! ! ! ! ! ! ! ! ! ! ! $ ! ! ",
"! ! ! ! ! ! ! ! ! ! ! ! ! ! ! ! ! ! ! ! ! $ ! ! ",
"! ! ! ! ! ! ! ! ! ! ! ! ! ! ! ! ! ! ! ! ! $ ! ! ",
"! ! ! ! ! ! ! ! ! ! ! ! ! ! ! ! ! ! ! ! ! $ ! ! ",
"! ! # $ $ $ $ $  !7 K K _ K ) $ $ $ $ $ $ # ! ! ",
"! ! ! ! ! ! ! ! ! ! ! ! ! ! ! ! ! ! ! ! ! ! ! ! ",
"! ! ! ! ! ! ! ! ! ! ! ! ! ! ! ! ! ! ! ! ! ! ! ! "};