/* XPM */ 
static const char * boundingbox_xpm[] = {
"24 24 363 2",
"  	c None",
"! 	c black",
"# 	c #D9D4D8",
"$ 	c #BCB7BB",
"% 	c #A39EA2",
"& 	c #C2BDC1",
"' 	c #D8D8D8",
"( 	c #C2C4C3",
") 	c #A8A6A9",
"* 	c #A19FA2",
"+ 	c #A2A0A3",
", 	c #ABA9AC",
"- 	c #C5C3C6",
". 	c #CDCBCE",
"0 	c #AEACAF",
"1 	c #979598",
"2 	c #CECECE",
"3 	c #E1E3E2",
"4 	c #C7C7C7",
"5 	c #B0B0B0",
"6 	c #A5A5A5",
"7 	c #A2A2A4",
"8 	c #ABACAE",
"9 	c #BDBEC0",
": 	c #D5D6D8",
"; 	c #E6E7E9",
"< 	c #EAEBED",
"= 	c #E7E8EA",
"> 	c #DDDEE0",
"? 	c #DADBDD",
"@ 	c #DEDFE1",
"A 	c #D1D2D4",
"B 	c #9B9C9E",
"C 	c #A0A1A3",
"D 	c #8A8C8B",
"E 	c #B6B7B9",
"F 	c #D6D7D9",
"G 	c #F1F2F4",
"H 	c #F3F4F6",
"I 	c #E5EAED",
"J 	c #DBE0E3",
"K 	c #DADFE2",
"L 	c #D8DDE0",
"M 	c #D4D9DC",
"N 	c #D0D5D8",
"O 	c #CDD2D5",
"P 	c #D9DDE0",
"Q 	c #BBBFC2",
"R 	c #8C8D8F",
"S 	c #A2A3A5",
"T 	c #E4E8E9",
"U 	c #EFF5F5",
"V 	c #F2F7FA",
"W 	c #E7EBEE",
"X 	c #EBECF0",
"Y 	c #E2E1E6",
"Z 	c #E0E5E9",
"[ 	c #DCE1E5",
"] 	c #DDE2E6",
"^ 	c #D8DDE1",
"_ 	c #D4D9DD",
"` 	c #D2D7DB",
"a 	c #CED3D7",
"b 	c #CDD2D6",
"c 	c #C8CDD1",
"d 	c #CFD4D8",
"e 	c #9FA3A6",
"f 	c #8A8B8D",
"g 	c #CDCDCD",
"h 	c #A5A6AA",
"i 	c #BBC0C3",
"j 	c #B2BABC",
"k 	c #E8F0F2",
"l 	c #EAEFF2",
"m 	c #E5E6EA",
"n 	c #E6E5EB",
"o 	c #D6DBDF",
"p 	c #D0D5D9",
"q 	c #C7CCD0",
"r 	c #C1CAD1",
"s 	c #C5CCD2",
"t 	c #C2C7CB",
"u 	c #8B8C8E",
"v 	c #AFAFAF",
"w 	c #A6A7AB",
"x 	c #BEC6C8",
"y 	c #929E9E",
"z 	c #B2BDBF",
"{ 	c #E2EAED",
"| 	c #E8E9EE",
"} 	c #E3E0E7",
"~ 	c #DEE1E8",
" !	c #D8DBE2",
"!!	c #DCDFE6",
"#!	c #D5D8DF",
"$!	c #D0D3DA",
"%!	c #D2D5DC",
"&!	c #CED1D8",
"'!	c #D2DCE5",
"(!	c #CDD6DD",
")!	c #C2C9CF",
"*!	c #ADB2B6",
"+!	c #9DA1A4",
",!	c #919294",
"-!	c #A9A9A9",
".!	c #ACADB1",
"0!	c #B7BFC1",
"1!	c #A2ADAF",
"2!	c #97A2A4",
"3!	c #ADB5B8",
"4!	c #E1E2E7",
"5!	c #E9E6ED",
"6!	c #E2E2EA",
"7!	c #DCDCE4",
"8!	c #D8D8E0",
"9!	c #D9D9E1",
":!	c #D2D2DA",
";!	c #C1C1C9",
"<!	c #A3ADB6",
"=!	c #88929B",
">!	c #818A91",
"?!	c #767B7F",
"@!	c #7E8285",
"A!	c #858688",
"B!	c #B7B7B7",
"C!	c #B4B5B7",
"D!	c #B4BCBF",
"E!	c #A2ACB5",
"F!	c #9CAAB3",
"G!	c #9AABB3",
"H!	c #A3B4BB",
"I!	c #CCDDE4",
"J!	c #E1E6EA",
"K!	c #D7DCE0",
"L!	c #C4CBD1",
"M!	c #B1B8BE",
"N!	c #949DA4",
"O!	c #879097",
"P!	c #77818A",
"Q!	c #75848B",
"R!	c #7B8992",
"S!	c #7B8891",
"T!	c #858F98",
"U!	c #82878B",
"V!	c #C9C9CB",
"W!	c #BCBDBF",
"X!	c #ACB4B7",
"Y!	c #ABB5BE",
"Z!	c #9FADB6",
"[!	c #9BACB4",
"]!	c #99AAB1",
"^!	c #A5B6BD",
"_!	c #A7ACB0",
"`!	c #8E9397",
"a!	c #7A8187",
"b!	c #767F86",
"c!	c #788188",
"d!	c #7E8891",
"e!	c #808A93",
"f!	c #7B8A91",
"g!	c #7F8E95",
"h!	c #7E8C95",
"i!	c #7D8A93",
"j!	c #87919A",
"k!	c #81868A",
"l!	c #D5D5D7",
"m!	c #CCCDCF",
"n!	c #A1A9AC",
"o!	c #B0BAC3",
"p!	c #A0B1B9",
"q!	c #A1B2B9",
"r!	c #B6BBBF",
"s!	c #7B8084",
"t!	c #787F85",
"u!	c #7C8389",
"v!	c #7F888F",
"w!	c #828C95",
"x!	c #838D96",
"y!	c #808F96",
"z!	c #85949B",
"{!	c #808E97",
"|!	c #84919A",
"}!	c #8D97A0",
"~!	c #7F8488",
" #	c #E5E5E7",
"!#	c #9AA2A5",
"##	c #B6C0C9",
"$#	c #A2B0B9",
"%#	c #A3B4BC",
"&#	c #A2B3BA",
"'#	c #A4B5BC",
"(#	c #B8BFC5",
")#	c #7D848A",
"*#	c #81888E",
"+#	c #858E95",
",#	c #818B94",
"-#	c #818E97",
".#	c #87949D",
"0#	c #86959C",
"1#	c #84929B",
"2#	c #8B98A1",
"3#	c #919BA4",
"4#	c #7E8387",
"5#	c #E0E1E3",
"6#	c #949C9F",
"7#	c #BCC6CF",
"8#	c #A5B3BC",
"9#	c #A6B7BF",
":#	c #838C93",
";#	c #848E97",
"<#	c #89969F",
"=#	c #8A99A0",
">#	c #89989F",
"?#	c #8A98A1",
"@#	c #8C99A2",
"A#	c #84898D",
"B#	c #E4E5E7",
"C#	c #BDC7D0",
"D#	c #A6B4BD",
"E#	c #A7B8C0",
"F#	c #A8B9C0",
"G#	c #A6B7BE",
"H#	c #B2BBC2",
"I#	c #889198",
"J#	c #88959E",
"K#	c #8A98A3",
"L#	c #8997A2",
"M#	c #8D9CA3",
"N#	c #8F9DA6",
"O#	c #939DA6",
"P#	c #91969A",
"Q#	c #EEEFF1",
"R#	c #979FA2",
"S#	c #B9C3CC",
"T#	c #ABB9C2",
"U#	c #A7B8BF",
"V#	c #8B959E",
"W#	c #89939C",
"X#	c #8A97A0",
"Y#	c #8B99A4",
"Z#	c #8F9DA8",
"[#	c #909EA9",
"]#	c #8F9EA5",
"^#	c #92A1A8",
"_#	c #93A1AA",
"`#	c #929FA8",
"a#	c #959FA8",
"b#	c #909599",
"c#	c #959DA0",
"d#	c #ADB7C0",
"e#	c #B2C0C9",
"f#	c #AABBC3",
"g#	c #A9BAC1",
"h#	c #ABBCC3",
"i#	c #B2BCC5",
"j#	c #8D9AA3",
"k#	c #8F9FAC",
"l#	c #91A1AE",
"m#	c #94A3AA",
"n#	c #97A6AD",
"o#	c #95A3AC",
"p#	c #99A6AF",
"q#	c #929CA5",
"r#	c #8F8A90",
"s#	c #C1C0C8",
"t#	c #B6BDC5",
"u#	c #ACBDC4",
"v#	c #A8BFC5",
"w#	c #8B99A2",
"x#	c #8997A0",
"y#	c #8E9CA5",
"z#	c #92A0A9",
"{#	c #96A4AD",
"|#	c #99A7B0",
"}#	c #96A7AF",
"~#	c #98A9B0",
" $	c #9EABB1",
"!$	c #A0ABAF",
"#$	c #929A9C",
"$$	c #8D9190",
"%$	c #DDD8DE",
"&$	c #89888E",
"'$	c #C3CAD2",
"($	c #AFBEC5",
")$	c #AABFC4",
"*$	c #AFBDC6",
"+$	c #8C9AA3",
",$	c #909EA7",
"-$	c #94A2AB",
".$	c #98A6AF",
"0$	c #9AA8B1",
"1$	c #9EADB4",
"2$	c #9CA9B1",
"3$	c #A7B2B8",
"4$	c #AEB6B9",
"5$	c #878C8F",
"6$	c #9FA1A0",
"7$	c #C7C6CC",
"8$	c #8C9197",
"9$	c #C0CDD3",
":$	c #AEC0C4",
";$	c #97A5AE",
"<$	c #9BA9B2",
"=$	c #ACB5BC",
">$	c #A8AFB7",
"?$	c #969BA1",
"@$	c #84878C",
"A$	c #7B7C7E",
"B$	c #BFBFBF",
"C$	c #ADB0B5",
"D$	c #909A9C",
"E$	c #C1CFD2",
"F$	c #B2BFC8",
"G$	c #919EA7",
"H$	c #94A1AA",
"I$	c #97A4AD",
"J$	c #A2AFB8",
"K$	c #A9B6BF",
"L$	c #A1AEB7",
"M$	c #8A8D94",
"N$	c #74777C",
"O$	c #7B7C81",
"P$	c #A09FA4",
"Q$	c #D1CFD2",
"R$	c #E8E6E7",
"S$	c #9FA4A7",
"T$	c #9CA4A6",
"U$	c #BEC7CE",
"V$	c #97A0A7",
"W$	c #969FA6",
"X$	c #A8B1B8",
"Y$	c #8C959C",
"Z$	c #6F787F",
"[$	c #5F686F",
"]$	c #757479",
"^$	c #959499",
"_$	c #BFBFC1",
"`$	c #C7C5C8",
"a$	c #D8D6D9",
"b$	c #919392",
"c$	c #AFB2B7",
"d$	c #AAADB2",
"e$	c #9A9DA2",
"f$	c #75787D",
"g$	c #5A5D62",
"h$	c #53565B",
"i$	c #686B70",
"j$	c #85888D",
"k$	c #A09E9F",
"l$	c #ACAAAB",
"m$	c #BBB9BA",
"n$	c #CBC9CA",
"o$	c #838184",
"p$	c #6E6C6F",
"q$	c #5A585B",
"r$	c #4E4C4F",
"s$	c #59575A",
"t$	c #6A686B",
"u$	c #7E7C7F",
"v$	c #8A888B",
"w$	c #9A9997",
"x$	c #B3B2B0",
"y$	c #BFBFBD",
"                      # $ % &                   ",
"            ' ( ) * + , - . 0 1 2               ",
"  3 4 5 6 7 8 9 : ; < = > ? @ A B C             ",
"  D E F ; G H H I J K L M M N O P Q R E         ",
"  S T U V W X Y Z [ ] ^ _ ` a b c d ` e f g     ",
"  h i j k l m n ] Z ^ o _ d p q r s t o F u v   ",
"  w x y z { | } ~  !!!#!$!%!&!%!'!(!)!*!+!,!-!  ",
"  .!0!1!2!3!4!5!6!7!8!7!7!9!:!;!<!=!>!?!@!A!B!  ",
"  C!D!E!F!G!H!I!J![ K!L!M!N!O!P!Q!Q!R!S!T!U!V!  ",
"  W!X!Y!Z![!]!^!K!_!`!a!b!c!d!e!f!g!h!i!j!k!l!  ",
"  m!n!o!Z!p!q!q!r!s!t!u!v!w!w!x!y!z!{!|!}!~! #  ",
"  ? !###$#%#&#'#(#)#*#+#,#w!-#.#z!0#1#2#3#4#    ",
"  5#6#7#8#9#q!&#(#:#>!;#T!|!<#2#=#>#?#@#3#A#    ",
"  B#6#C#D#E#F#G#H#I#x!T!.#J#K#L#M#M#N#@#O#P#    ",
"  Q#R#S#T#9#U#G#H#V#W#.#X#Y#Z#[#]#^#_#`#a#b#    ",
"    c#d#e#f#g#h#i#=!V#X#j#[#k#l#m#n#o#p#q#k!    ",
"      r#s#t#u#v#e#w#x#y#y#z#{#|#}#~# $!$#$$$    ",
"      %$&$'$($)$*$y#+$,$-$.$.$0$1$2$3$4$5$6$    ",
"        7$8$9$:$e#,$N#o#{#;$<$Z!=$>$?$@$A$B$    ",
"          C$D$E$F$`#G$H$I$J$K$L$M$N$O$P$Q$R$    ",
"            S$T$U$V$W$X$X$Y$Z$[$]$^$_$`$a$      ",
"              b$c$d$e$f$g$h$i$j$k$l$m$n$        ",
"                o$p$q$r$s$t$u$v$w$x$y$          ",
"                                                "};