/* XPM */ 
static const char * processingtools_xpm[] = {
"24 23 78 1",
" 	c None",
"!	c black",
"#	c #E8E8E8",
"$	c #DEDEDE",
"%	c #D9D9D9",
"&	c #EEEEEE",
"'	c #B8B8B8",
"(	c #BFBFBF",
")	c #E7E7E7",
"*	c #DADADA",
"+	c #C1C1C1",
",	c #E4E4E4",
"-	c #C9C9C9",
".	c #D4D4D4",
"0	c #BDBDBD",
"1	c #E2E2E2",
"2	c #D5D5D5",
"3	c #DFDFDF",
"4	c #C8C8C8",
"5	c #B9B9B9",
"6	c #B7B7B7",
"7	c #C2C2C2",
"8	c #C3C3C3",
"9	c #BCBCBC",
":	c #C6C6C6",
";	c #C7C7C7",
"<	c #C4C4C4",
"=	c #DDDDDD",
">	c #E1E1E1",
"?	c #B1B1B1",
"@	c #8C8C8C",
"A	c #A9A9A9",
"B	c #DBDBDB",
"C	c #D0D0D0",
"D	c #E6E6E6",
"E	c #939393",
"F	c #BBBBBB",
"G	c #C5C5C5",
"H	c #ECECEC",
"I	c #CECECE",
"J	c #848484",
"K	c #A6A6A6",
"L	c #AFAFAF",
"M	c #878787",
"N	c #D2D2D2",
"O	c #F1F1F1",
"P	c #9F9F9F",
"Q	c #A5A5A5",
"R	c #D7D7D7",
"S	c #A2A2A2",
"T	c #E5E5E5",
"U	c #CACACA",
"V	c #D1D1D1",
"W	c #AAAAAA",
"X	c #E3E3E3",
"Y	c #C0C0C0",
"Z	c #BEBEBE",
"[	c #D8D8D8",
"]	c #EAEAEA",
"^	c #9B9B9B",
"_	c #CCCCCC",
"`	c #F3F3F3",
"a	c #B6B6B6",
"b	c #CBCBCB",
"c	c #DCDCDC",
"d	c #EDEDED",
"e	c #CDCDCD",
"f	c #F2F2F2",
"g	c #CFCFCF",
"h	c #E0E0E0",
"i	c #B5B5B5",
"j	c #8A8A8A",
"k	c #B2B2B2",
"l	c #969696",
"m	c #989898",
"n	c #8E8E8E",
"o	c #616161",
"p	c #A8A8A8",
"                        ",
"         #$%   &        ",
"         ''() *+,       ",
"         +++-.-01       ",
"      )2 34(56+73       ",
"     89+:;<=>?@A4BCD    ",
"     0EF<GH   IJK<(=    ",
"      L5:1     <M6C     ",
"      N--      OPQN     ",
"     ).;R       7S-)    ",
"   TU-;G3       VW:<3   ",
"   XYZ7G3       [':;1   ",
"    ]+^(R       [<_`    ",
"      Qa_       Rb.     ",
"      ;<;c     dBUef    ",
"     )%_-UX    TgF7h    ",
"     0';'i42,T*bC8;     ",
"     >ZB>jk48(88)       ",
"         Ki-elm<,       ",
"        >WiZ-noK4T      ",
"     ]XBIAMp6Z8N=D      ",
"                        ",
"                        "};