/* XPM */ 
static const char * palette_xpm[] = {
"24 24 284 2",
"  	c None",
"! 	c black",
"# 	c #FDEDB8",
"$ 	c #FAD351",
"% 	c #F9CB2E",
"& 	c #F9D146",
"' 	c #FBDF7E",
"( 	c #FDEEBE",
") 	c #F8C525",
"* 	c #F6C00E",
"+ 	c #F6BF09",
", 	c #F6BF0A",
"- 	c #F7C21A",
". 	c #F8C62C",
"0 	c #F9D253",
"1 	c #F9CD4A",
"2 	c #F5B800",
"3 	c #F8CA40",
"4 	c #FBDF8A",
"5 	c #FAD66A",
"6 	c #F5B904",
"7 	c #F6B801",
"8 	c #F6BD13",
"9 	c #F8C631",
": 	c #F6BD20",
"; 	c #F7C12D",
"< 	c #FCE7AD",
"= 	c #F5B502",
"> 	c #F5B401",
"? 	c #F5B70A",
"@ 	c #F8CD55",
"A 	c #F4B309",
"B 	c #F8CD61",
"C 	c #F7C43E",
"D 	c #F4B104",
"E 	c #F3B103",
"F 	c #F4B40B",
"G 	c #FCE9B7",
"H 	c #FDF0D0",
"I 	c #FCE9BC",
"J 	c #FBE6B1",
"K 	c #FADB8E",
"L 	c #F7C23C",
"M 	c #F3AD04",
"N 	c #F6C03F",
"O 	c #F6C54D",
"P 	c #F4AD00",
"Q 	c #F6AF00",
"R 	c #F4AD01",
"S 	c #F6C243",
"T 	c #FADD9A",
"U 	c #F7C13E",
"V 	c #F4B723",
"W 	c #F4B31A",
"X 	c #F4B21A",
"Y 	c #F4B218",
"Z 	c #F2AC0C",
"[ 	c #F2A906",
"] 	c #F2AC0B",
"^ 	c #FAD98B",
"_ 	c #FCE8B8",
"` 	c #F5AD07",
"a 	c #EBAB2C",
"b 	c #DBA158",
"c 	c #EFA913",
"d 	c #F4AF0E",
"e 	c #FBE2AA",
"f 	c #FCE7BC",
"g 	c #F3B01A",
"h 	c #F2A80B",
"i 	c #F2A904",
"j 	c #F2AA05",
"k 	c #F1A507",
"l 	c #F1A608",
"m 	c #F1A609",
"n 	c #F2A80C",
"o 	c #F4BA37",
"p 	c #F6C148",
"q 	c #F4AC0E",
"r 	c #E9A72B",
"s 	c #AC84B3",
"t 	c #9F78C0",
"u 	c #B8878C",
"v 	c #F2A80A",
"w 	c #F9D482",
"x 	c #F5BD4B",
"y 	c #F1A408",
"z 	c #F0A30D",
"{ 	c #EB8816",
"| 	c #EB8318",
"} 	c #EC8F0D",
"~ 	c #F1A709",
" !	c #F0A30A",
"!!	c #F0A209",
"#!	c #F0A107",
"$!	c #F0A106",
"%!	c #F3A302",
"&!	c #DE9F3A",
"'!	c #845DAA",
"(!	c #825AA4",
")!	c #936692",
"*!	c #EEA20E",
"+!	c #F8C96A",
",!	c #F9DAA0",
"-!	c #F0A10D",
".!	c #F1A614",
"0!	c #DD6331",
"1!	c #D43D38",
"2!	c #D5413A",
"3!	c #D53D32",
"4!	c #E57E13",
"5!	c #EF9F0B",
"6!	c #F09E0A",
"7!	c #F7A20A",
"8!	c #BC7F53",
"9!	c #905D73",
":!	c #CD8732",
";!	c #F4A206",
"<!	c #F6C469",
"=!	c #F6C777",
">!	c #F1A10C",
"?!	c #E07F2A",
"@!	c #BD2829",
"A!	c #B61F19",
"B!	c #B61E18",
"C!	c #B8221E",
"D!	c #C73D28",
"E!	c #ED960D",
"F!	c #F09C0D",
"G!	c #EF9B0D",
"H!	c #F0990B",
"I!	c #F09D0F",
"J!	c #DCAA16",
"K!	c #EBA408",
"L!	c #F79C04",
"M!	c #F29E08",
"N!	c #F6C87B",
"O!	c #F8D194",
"P!	c #F29E0C",
"Q!	c #CC6627",
"R!	c #A1181A",
"S!	c #A6211B",
"T!	c #A51F1A",
"U!	c #AA251E",
"V!	c #E78C10",
"W!	c #EF990E",
"X!	c #EE970D",
"Y!	c #EE970E",
"Z!	c #EF960D",
"[!	c #ED9F16",
"]!	c #B3C73A",
"^!	c #91CE34",
"_!	c #9ACB37",
"`!	c #D8A61C",
"a!	c #F1950C",
"b!	c #EE960C",
"c!	c #F8D59B",
"d!	c #FBE9CE",
"e!	c #F1A126",
"f!	c #D98424",
"g!	c #8F1B1D",
"h!	c #921D19",
"i!	c #941F1A",
"j!	c #8F191A",
"k!	c #A43418",
"l!	c #EE930E",
"m!	c #F89305",
"n!	c #F39207",
"o!	c #F89304",
"p!	c #F3900A",
"q!	c #D3AD29",
"r!	c #7DC632",
"s!	c #81BE20",
"t!	c #7CC327",
"u!	c #A4B528",
"v!	c #F3900C",
"w!	c #EE9B1F",
"x!	c #F5C37F",
"y!	c #F1970E",
"z!	c #C16C25",
"{!	c #86231A",
"|!	c #831F19",
"}!	c #943018",
"~!	c #E08210",
" #	c #F6960E",
"!#	c #949E73",
"##	c #429AB9",
"$#	c #789581",
"%#	c #ED8D0F",
"&#	c #D7A222",
"'#	c #61B131",
"(#	c #63AC2D",
")#	c #59AE2F",
"*#	c #9DA121",
"+#	c #F48C09",
",#	c #F5C581",
"-#	c #FBE7CD",
".#	c #EB880A",
"0#	c #F09213",
"1#	c #E48714",
"2#	c #DE7F12",
"3#	c #EA8B11",
"4#	c #F89009",
"5#	c #92A17B",
"6#	c #0090E6",
"7#	c #0089D8",
"8#	c #008FE5",
"9#	c #639192",
":#	c #FB8D09",
";#	c #B19C2A",
"<#	c #548F2C",
"=#	c #758E25",
">#	c #E18C13",
"?#	c #ED890B",
"@#	c #F4C48A",
"A#	c #E98309",
"B#	c #EC8A12",
"C#	c #ED8A13",
"D#	c #EB8812",
"E#	c #F38E12",
"F#	c #358AB0",
"G#	c #0076C5",
"H#	c #0078C0",
"I#	c #0077C3",
"J#	c #2480B0",
"K#	c #ED8811",
"L#	c #F18711",
"M#	c #E98813",
"N#	c #EF8712",
"O#	c #EC840B",
"P#	c #F4C083",
"Q#	c #F7AD5A",
"R#	c #EA820F",
"S#	c #E98414",
"T#	c #F5890F",
"U#	c #668A85",
"V#	c #0068C0",
"W#	c #006CB6",
"X#	c #006ABF",
"Y#	c #3B718F",
"Z#	c #F2850E",
"[#	c #EA8414",
"]#	c #EA8311",
"^#	c #F6A145",
"_#	c #F0AF6B",
"`#	c #F78817",
"a#	c #EE8315",
"b#	c #EB7F12",
"c#	c #E38C24",
"d#	c #507681",
"e#	c #10649F",
"f#	c #376987",
"g#	c #C47B2D",
"h#	c #EF8111",
"i#	c #E98115",
"j#	c #F38615",
"k#	c #F09940",
"l#	c #CEC1B5",
"m#	c #D88D44",
"n#	c #F38318",
"o#	c #F78214",
"p#	c #FB8310",
"q#	c #E57F1C",
"r#	c #F68011",
"s#	c #F78212",
"t#	c #F58418",
"u#	c #F0821A",
"v#	c #C69D75",
"w#	c #E1E1E1",
"x#	c #D2D2D2",
"y#	c #D7D7D7",
"z#	c #CBCAC9",
"{#	c #AC9E93",
"|#	c #AD8B6C",
"}#	c #C28046",
"~#	c #CE7B31",
" $	c #CC7C33",
"!$	c #BF814A",
"#$	c #AB8D73",
"$$	c #B3ABA4",
"%$	c #D3D3D3",
"&$	c #CECECE",
"'$	c #D0D0D0",
"($	c #DEDEDE",
"                                                ",
"                      # $ % & '                 ",
"                    ( ) * + , - . 0             ",
"                    1 2 3 4 5 6 7 8 9           ",
"                    : ;       < = > ? @         ",
"                    A B         C D E F G       ",
"          H I J K L M N         O P Q R S       ",
"      T U V W X Y Z [ ] ^     _ ` a b c d e     ",
"    f g h i j [ k l m l n o p q r s t u v w     ",
"    x y z { | } ~  ! ! !!!#!$!%!&!'!(!)!*!+!    ",
"  ,!-!.!0!1!2!3!4! !5!5!5!5!5!6!7!8!9!:!;!<!    ",
"  =!>!?!@!A!B!C!D!E!F!G!G!G!H!I!J!K!L!M!G!N!    ",
"  O!P!Q!R!S!S!T!U!V!W!X!Y!Z![!]!^!_!`!a!b!c!    ",
"  d!e!f!g!h!i!j!k!l!m!n!o!p!q!r!s!t!u!v!w!      ",
"    x!y!z!{!|!}!~! #!###$#%#&#'#(#)#*#+#,#      ",
"    -#.#0#1#2#3#4#5#6#7#8#9#:#;#<#=#>#?#        ",
"      @#A#B#C#D#E#F#G#H#I#J#K#L#M#N#O#P#        ",
"        Q#R#S#S#T#U#V#W#X#Y#Z#S#[#]#^#          ",
"          _#`#a#b#c#d#e#f#g#h#i#j#k#            ",
"            l#m#n#o#p#q#r#s#t#u#v#              ",
"        w#x#y#z#{#|#}#~# $!$#$$$%$&$'$($        ",
"                                                ",
"                                                ",
"                                                "};