/* XPM */ 
static const char * helper_xpm[] = {
"24 24 258 2",
"  	c None",
"! 	c black",
"# 	c #DADBEB",
"$ 	c #98AFE2",
"% 	c #6690D0",
"& 	c #4E8AD9",
"' 	c #4682DA",
"( 	c #5380D2",
") 	c #7489D1",
"* 	c #AFB0E2",
"+ 	c #CAD6ED",
", 	c #72A4DC",
"- 	c #7AB0EA",
". 	c #7EB8F1",
"0 	c #6BB1F3",
"1 	c #4EA2EE",
"2 	c #3692E9",
"3 	c #2C8AE7",
"4 	c #2E8AE7",
"5 	c #2B83E4",
"6 	c #1D70D6",
"7 	c #838CD2",
"8 	c #81A4D7",
"9 	c #87BCF0",
": 	c #97C9F7",
"; 	c #68ADEC",
"< 	c #4D9EE9",
"= 	c #3A91E2",
"> 	c #2B81D3",
"? 	c #1D7CD3",
"@ 	c #147ADF",
"A 	c #1179E0",
"B 	c #0F77DF",
"C 	c #2083E4",
"D 	c #358DE9",
"E 	c #3069CF",
"F 	c #87B7DB",
"G 	c #7AB9F3",
"H 	c #3391E6",
"I 	c #4B9EE9",
"J 	c #50A2E9",
"K 	c #3594E9",
"L 	c #5397D3",
"M 	c #E2E7EB",
"N 	c #E4E9EE",
"O 	c #4E96D3",
"P 	c #1B83E4",
"Q 	c #1B81E0",
"R 	c #1379E0",
"S 	c #0E75DF",
"T 	c #3591EB",
"U 	c #1F63D2",
"V 	c #9EBFDE",
"W 	c #9ECCFA",
"X 	c #77B8F0",
"Y 	c #3192E6",
"Z 	c #3696E7",
"[ 	c #2E92E7",
"] 	c #5FA2D5",
"^ 	c #FFFFFC",
"_ 	c #61A2D1",
"` 	c #258DE7",
"a 	c #298BE4",
"b 	c #2285E0",
"c 	c #1A80E0",
"d 	c #0E77DF",
"e 	c #476ACC",
"f 	c #80B7E9",
"g 	c #77B9F1",
"h 	c #5EAAEB",
"i 	c #4EA3E9",
"j 	c #3F9CE7",
"k 	c #419EE9",
"l 	c #3D9EEB",
"m 	c #69ACD8",
"n 	c #FFFDFA",
"o 	c #FFFDFC",
"p 	c #68AAD8",
"q 	c #3397E9",
"r 	c #3594E6",
"s 	c #2E8FE4",
"t 	c #2588E2",
"u 	c #1B80E2",
"v 	c #1A79E2",
"w 	c #B4B4D9",
"x 	c #87ACD8",
"y 	c #7ABBF5",
"z 	c #58A8E9",
"{ 	c #4DA3E9",
"| 	c #49A3E9",
"} 	c #4EA8EB",
"~ 	c #4DAAEC",
" !	c #74B4DD",
"!!	c #6FB3DD",
"#!	c #41A2EB",
"$!	c #3897E7",
"%!	c #3091E6",
"&!	c #2588E4",
"'!	c #298AE9",
"(!	c #6571C7",
")!	c #AFC2DD",
"*!	c #5698D3",
"+!	c #5EACF0",
",!	c #49A2E9",
"-!	c #44A2E9",
".!	c #4DA7E9",
"0!	c #55ADEC",
"1!	c #5AB3EE",
"2!	c #5AB4F0",
"3!	c #7EBEE0",
"4!	c #FFFDFD",
"5!	c #75B9E6",
"6!	c #4EACEC",
"7!	c #44A0E9",
"8!	c #3A99E7",
"9!	c #2486E2",
":!	c #2286E7",
";!	c #3957C4",
"<!	c #92ADD6",
"=!	c #3E8AD4",
">!	c #49A3EE",
"?!	c #4DA7EB",
"@!	c #57AFEE",
"A!	c #61B6EE",
"B!	c #68BDF0",
"C!	c #68C0F1",
"D!	c #88C9E7",
"E!	c #81C4E9",
"F!	c #5CB6F0",
"G!	c #42A0E9",
"H!	c #3697E7",
"I!	c #2C8FE6",
"J!	c #298DE7",
"K!	c #3358C2",
"L!	c #98B1D5",
"M!	c #3786D0",
"N!	c #42A2EE",
"O!	c #61B8EE",
"P!	c #6BC0F0",
"Q!	c #74C7F1",
"R!	c #77CAF3",
"S!	c #92CFE7",
"T!	c #FFFCF7",
"U!	c #8DCCE7",
"V!	c #63B8F0",
"W!	c #57B1EC",
"X!	c #3F9CE9",
"Y!	c #3394E6",
"Z!	c #2B8FEB",
"[!	c #4D66C2",
"]!	c #C2CDE2",
"^!	c #5E94CE",
"_!	c #44A2F0",
"`!	c #4EAAEB",
"a!	c #74C5F1",
"b!	c #7ECFF3",
"c!	c #88D5F7",
"d!	c #8FD8F0",
"e!	c #A5D6E0",
"f!	c #A5D6E6",
"g!	c #86D1F1",
"h!	c #77C9F3",
"i!	c #6DC0F0",
"j!	c #5FB6EE",
"k!	c #53ADEC",
"l!	c #46A2E9",
"m!	c #3F9EE7",
"n!	c #1A80E7",
"o!	c #8A90C8",
"p!	c #ABC2DB",
"q!	c #55AFEC",
"r!	c #6DC2F0",
"s!	c #7ACCF3",
"t!	c #88D5F5",
"u!	c #92DFF7",
"v!	c #9EDFEC",
"w!	c #D3E4E0",
"x!	c #D3E4E2",
"y!	c #94D6EB",
"z!	c #81D1F5",
"{!	c #75C7F1",
"|!	c #58B1EE",
"}!	c #4EA8E9",
"~!	c #165FCE",
" #	c #5796CD",
"!#	c #4EACF3",
"##	c #64B9F0",
"$#	c #70C4F1",
"%#	c #80CEF3",
"&#	c #8FDAF5",
"'#	c #99E6FC",
"(#	c #C2E6D8",
")#	c #FFFDF8",
"*#	c #FFFFFA",
"+#	c #BDE0DA",
",#	c #85D6F8",
"-#	c #7ACCF1",
".#	c #5FB8EE",
"0#	c #53ADEE",
"1#	c #1879E2",
"2#	c #8D9EC6",
"3#	c #4F96D3",
"4#	c #5EB9F7",
"5#	c #80CFF3",
"6#	c #8FDBF5",
"7#	c #9CE7FC",
"8#	c #B6ECE7",
"9#	c #ECF1DA",
":#	c #ECF0DD",
";#	c #A8E2E7",
"<#	c #8BDAF7",
"=#	c #80CEF1",
">#	c #72C5F1",
"?#	c #5EB6F3",
"@#	c #2786E6",
"A#	c #6689C3",
"B#	c #6DA6CE",
"C#	c #72C4F7",
"D#	c #80D1F8",
"E#	c #8AD8F7",
"F#	c #99E2F8",
"G#	c #A5EEFC",
"H#	c #ACEEF0",
"I#	c #A7EBF0",
"J#	c #99E6F8",
"K#	c #8DDAF5",
"L#	c #79CAF5",
"M#	c #5AB1F3",
"N#	c #2F83D7",
"O#	c #7D9FC8",
"P#	c #A6C1CE",
"Q#	c #90C7DD",
"R#	c #A0E0F3",
"S#	c #99E2F7",
"T#	c #97E2F8",
"U#	c #9EE9FC",
"V#	c #97E2FF",
"W#	c #86D3F8",
"X#	c #6FBBF0",
"Y#	c #549EDB",
"Z#	c #6397C5",
"[#	c #BED4D7",
"]#	c #91DDF8",
"^#	c #8DDDFC",
"_#	c #9BD5EA",
"`#	c #92BBCD",
"a#	c #92B7CD",
"b#	c #A6C2D1",
"c#	c #AED6E8",
"d#	c #81D5FF",
"e#	c #8FCCE4",
"f#	c #CCDADF",
"g#	c #B1CEE1",
"h#	c #62B3E0",
"i#	c #8CBBD0",
"j#	c #DCE5E8",
"k#	c #D6E2EB",
"l#	c #D5E1E7",
"                                                ",
"                                                ",
"                # $ % & ' ( ) *                 ",
"            + , - . 0 1 2 3 4 5 6 7             ",
"          8 9 : ; < = > ? @ A B C D E           ",
"        F G H I J K L M N O P Q R S T U         ",
"      V W X J Y Z [ ] ^ ^ _ ` a b c d T e       ",
"      f g h i j k l m n o p q r s t c u v w     ",
"    x y z { k | } ~  !o o !!#!k $!%!&!c '!(!    ",
"  )!*!+!,!-!.!0!1!2!3!o 4!5!6!.!7!8!%!9!:!;!    ",
"  <!=!>!k ?!@!A!B!C!D!o 4!E!F!@!} G!H!I!J!K!    ",
"  L!M!N!| 0!O!P!Q!R!S!T!^ U!C!V!W!.!X!Y!Z![!    ",
"  ]!^!_!`!1!B!a!b!c!d!e!f!g!h!i!j!k!l!m!n!o!    ",
"    p!r q!j!r!s!t!u!v!w!x!y!z!{!B!|!}!N!~!      ",
"       #!###$#%#&#'#(#)#*#+#,#-#i!.#0#1#2#      ",
"        3#4#$#5#6#7#8#9#:#;#<#=#>#?#@#A#        ",
"          B#C#D#E#F#G#H#I#J#K#L#M#N#O#          ",
"            P#Q#R#S#T#U#V#W#X#Y#Z#              ",
"                [#]#^#_#`#a#b#                  ",
"                c#d#e#f#                        ",
"              g#h#i#j#                          ",
"              k#l#                              ",
"                                                ",
"                                                "};