/* XPM */ 
static const char * panel_xpm[] = {
"24 24 139 2",
"  	c None",
"! 	c black",
"# 	c #A7A19C",
"$ 	c #BED7F0",
"% 	c #289EFF",
"& 	c #1E99FF",
"' 	c #1F9AFF",
"( 	c #259FFF",
") 	c #3794EF",
"* 	c #5883AE",
"+ 	c #70B3F6",
", 	c #B5B9BD",
"- 	c #E8E7E7",
". 	c #95918C",
"0 	c #ADC5DD",
"1 	c #2687F1",
"2 	c #278BEF",
"3 	c #278CF0",
"4 	c #288CF0",
"5 	c #278BF0",
"6 	c #3E83C9",
"7 	c #617387",
"8 	c #5D9AD5",
"9 	c #9CA1A6",
": 	c #C5C4C3",
"; 	c #8B8B8B",
"< 	c #C0BEBC",
"= 	c #D5CEC6",
"> 	c #D4CCC4",
"? 	c #D5CDC5",
"@ 	c #D5CDC6",
"A 	c #D4CCC5",
"B 	c #D6CFC7",
"C 	c #D3CEC8",
"D 	c #CDCCCA",
"E 	c #CDC8C4",
"F 	c #929292",
"G 	c #C6C6C6",
"H 	c #8C8C8C",
"I 	c #E3E3E3",
"J 	c #F2F2F2",
"K 	c #F3F3F3",
"L 	c #F4F4F4",
"M 	c #F5F5F5",
"N 	c #EEEEEE",
"O 	c #A1A1A1",
"P 	c #C4C4C4",
"Q 	c #8D8D8D",
"R 	c #EBEBEB",
"S 	c #F7F7F7",
"T 	c #E9E9E9",
"U 	c #E6E6E6",
"V 	c #E8E8E8",
"W 	c #E7E7E7",
"X 	c #E5E5E5",
"Y 	c #F0F0F0",
"Z 	c #F8F8F8",
"[ 	c #A6A6A6",
"] 	c #EDEDED",
"^ 	c #E0E0E0",
"_ 	c #979797",
"` 	c #8F8F8F",
"a 	c #919191",
"b 	c #898989",
"c 	c #B8B8B8",
"d 	c #A7A7A7",
"e 	c #E1E1E1",
"f 	c #E2E2E2",
"g 	c #E4E4E4",
"h 	c #FEFEFE",
"i 	c white",
"j 	c #F6F6F6",
"k 	c #A5A5A5",
"l 	c #9C9C9C",
"m 	c #949494",
"n 	c #969696",
"o 	c #909090",
"p 	c #BBBBBB",
"q 	c #8A8A8A",
"r 	c #ECECEC",
"s 	c #CBCBCB",
"t 	c #C5C5C5",
"u 	c #C7C7C7",
"v 	c #C3C3C3",
"w 	c #DBDBDB",
"x 	c #BCBCBC",
"y 	c #B9B9B9",
"z 	c #B6B6B6",
"{ 	c #D1D1D1",
"| 	c #A8A8A8",
"} 	c #A3A3A3",
"~ 	c #A4A4A4",
" !	c #9B9B9B",
"!!	c #FDFDFD",
"#!	c #FCFCFC",
"$!	c #FAFAFA",
"%!	c #CFCFCF",
"&!	c #DDDDDD",
"'!	c #DFDFDF",
"(!	c #AAAAAA",
")!	c #D8D8D8",
"*!	c #CDCDCD",
"+!	c #BEBEBE",
",!	c #BEBEBF",
"-!	c #BEBEBD",
".!	c #BFBEBD",
"0!	c #D5D5D5",
"1!	c #C8C8C8",
"2!	c #BABABA",
"3!	c #A2A2A2",
"4!	c #959595",
"5!	c #969695",
"6!	c #959494",
"7!	c #A8A8A7",
"8!	c #6D6D6D",
"9!	c #6A6A6A",
":!	c #6C6C6C",
";!	c #6B6B6B",
"<!	c #6E6B67",
"=!	c #4F7497",
">!	c #1D80E1",
"?!	c #8096AA",
"@!	c #A6A39F",
"A!	c #D7D7D7",
"B!	c #7D7D7D",
"C!	c #7F7F7F",
"D!	c #807E7C",
"E!	c #6B859E",
"F!	c #498FD4",
"G!	c #8A97A5",
"H!	c #9C9996",
"I!	c #C3C4C5",
"J!	c #AFAFAF",
"K!	c #D0D0D0",
"L!	c #B7B7B7",
"M!	c #BAB8B6",
"N!	c #BDB7B2",
"O!	c #B6B5B4",
"P!	c #DAD9D9",
"                                                ",
"                                                ",
"    # $ % & ' ' ' ' ' ' ' ' ' ' ' ( ) * + , -   ",
"    . 0 1 2 3 3 3 3 3 3 3 3 4 2 5 3 6 7 8 9 :   ",
"    ; < = > ? ? ? ? ? ? ? ? @ > A B C D E F G   ",
"    H I J K L L L L L L K L K L L M L K N O P   ",
"    Q R S T U V W W V U V U V U V W X Y Z [ P   ",
"    Q ] ^ _ ` F a a F a F a F a F a b c S d P   ",
"    Q T L e e ^ e e ^ f ^ f ^ f ^ e ^ T M [ P   ",
"    H g h i i i i i i i i i i i i i i i j k P   ",
"    Q Y f l m n n n n n n n n n n n o p j [ P   ",
"    q r N s t u u u u u u u u u u u v w M [ P   ",
"    ; T i i i i i i i i i i i i i i i i M k P   ",
"    ; ] T x c y y y y y y y y y y y z { j [ P   ",
"    q N f | } k k k k k k k k k k ~  !t j [ P   ",
"    ; N i !!!!!!!!!!!!!!!!!!!!!!!!!!#!h $!d P   ",
"    b %!&!'!'!'!'!'!'!'!'!'!'!'!'!'!'!'!w _ P   ",
"    ~ c (!| ~ [ [ k [ [ k [ [ k [ [ k k k l )!  ",
"        *!+!+!+!+!+!+!+!+!+!+!+!+!,!-!.!x 0!1!  ",
"      2!3!4!n _ _ n _ _ n _ _ n _ _ 5!6!7!t d   ",
"    O P 8!9!:!;!;!:!;!;!:!;!;!:!;!<!=!>!?!@!A!  ",
"    H y B!C!C!C!C!C!C!C!C!C!C!C!C!D!E!F!G!H!I!  ",
"    J!K!x c c c c c c c c c c c c L!M!N!O!O P!  ",
"                                                "};