/* XPM */ 
static const char * bulbon_xpm[] = {
"16 16 108 2",
"  	c None",
"! 	c black",
"# 	c #F8F2DF",
"$ 	c #E3C983",
"% 	c #D7B043",
"& 	c #D6AE3F",
"' 	c #E2C477",
"( 	c #F7EFDA",
") 	c #F4EACC",
"* 	c #D1A422",
"+ 	c #E0C257",
", 	c #F1E299",
"- 	c #F2E59F",
". 	c #E3C75E",
"0 	c #D3A92F",
"1 	c #ECDCAC",
"2 	c #F4EDD5",
"3 	c #D3AB35",
"4 	c #ECD877",
"5 	c #FCFABD",
"6 	c #FFFFC6",
"7 	c #FFFFC7",
"8 	c #EAD574",
"9 	c #DBB94F",
": 	c #F0E3BD",
"; 	c #E4CA85",
"< 	c #D7AF2B",
"= 	c #FFFDA9",
"> 	c #FFFBA6",
"? 	c #FFFAAB",
"@ 	c #FFFAAC",
"A 	c #FFFBA9",
"B 	c #FDFAA5",
"C 	c #DEBE43",
"D 	c #E3C97D",
"E 	c #DEBD62",
"F 	c #DFBD3F",
"G 	c #FFFA9B",
"H 	c #FEF596",
"I 	c #FEF59C",
"J 	c #FEF59D",
"K 	c #FEF597",
"L 	c #FEF89A",
"M 	c #E3C54D",
"N 	c #DFC063",
"O 	c #E4CA84",
"P 	c #D7AE27",
"Q 	c #FEF08B",
"R 	c #FEEE85",
"S 	c #FEEE8A",
"T 	c #FEEE8B",
"U 	c #FEEE87",
"V 	c #FDEE88",
"W 	c #DEBA3B",
"X 	c #E3C87C",
"Y 	c #F5ECD1",
"Z 	c #D4AA31",
"[ 	c #F1D465",
"] 	c #FDE578",
"^ 	c #FEE87C",
"_ 	c #EFD160",
"` 	c #DCB748",
"a 	c #F0E1B9",
"b 	c #E7D197",
"c 	c #DCB02D",
"d 	c #FAD868",
"e 	c #FDD966",
"f 	c #FDD965",
"g 	c #FDDC6E",
"h 	c #DBAF2D",
"i 	c #E7D08B",
"j 	c #FAF6EA",
"k 	c #F7F0DE",
"l 	c #D3A623",
"m 	c #F3C855",
"n 	c #FBCF58",
"o 	c #FCD058",
"p 	c #F5CB59",
"q 	c #D9AD32",
"r 	c #F1E3BC",
"s 	c #D8B345",
"t 	c #ECBA43",
"u 	c #FBBD3E",
"v 	c #FCBE40",
"w 	c #EEB93D",
"x 	c #D7B556",
"y 	c #DEBD65",
"z 	c #E3B955",
"{ 	c #F8D086",
"| 	c #FCD38F",
"} 	c #E6B94E",
"~ 	c #DDC075",
" !	c #E0C272",
"!!	c #DDC478",
"#!	c #F8F3E3",
"$!	c #FCFAF2",
"%!	c #DEC374",
"&!	c #E5CC88",
"'!	c #DFCA92",
"(!	c #D5AF40",
")!	c #EAD8A6",
"*!	c #ECDCAE",
"+!	c #D3AC39",
",!	c #E9D59A",
"-!	c #EBD9A4",
".!	c #DBB859",
"0!	c #DAB754",
"1!	c #E9D499",
"                                ",
"          # $ % & ' (           ",
"        ) * + , - . 0 1         ",
"      2 3 4 5 6 6 7 8 9 :       ",
"      ; < = > ? @ A B C D       ",
"      E F G H I J K L M N       ",
"      O P Q R S T U V W X       ",
"      Y Z [ ] ] ] ^ _ ` a       ",
"        b c d e f g h i j       ",
"        k l m n o p q r         ",
"          s t u v w x           ",
"          y z { | } ~           ",
"           !!!#!$!%!&!          ",
"          '!(!)!*!+!,!          ",
"            -!.!0!1!            ",
"                                "};