/* XPM */ 
static const char * bulboff_xpm[] = {
"16 16 92 1",
" 	c None",
"!	c black",
"#	c #EBEDEE",
"$	c #AFB4B9",
"%	c #8A9099",
"&	c #888F98",
"'	c #A9ADB5",
"(	c #E7E9EA",
")	c #E0E1E2",
"*	c #777F8B",
"+	c #A6ABB2",
",	c #D4D6DA",
"-	c #D7DADD",
".	c #AAB0B6",
"0	c #7F878F",
"1	c #CBCED2",
"2	c #E3E5E6",
"3	c #C6CACE",
"4	c #F7F8F8",
"5	c white",
"6	c #C1C5CA",
"7	c #959CA5",
"8	c #D5D8DB",
"9	c #B0B5BC",
":	c #888F99",
";	c #FEFEFE",
"<	c #FDFDFD",
"=	c #FAFAFA",
">	c #9EA3AC",
"?	c #9CA1A9",
"@	c #9FA5AC",
"A	c #FBFBFB",
"B	c #FCFCFC",
"C	c #FEFEFD",
"D	c #ACB1B7",
"E	c #A0A6AD",
"F	c #B0B6BB",
"G	c #89909A",
"H	c #F9F9F9",
"I	c #F7F7F8",
"J	c #9DA3AB",
"K	c #AFB2B8",
"L	c #E2E4E4",
"M	c #7F858F",
"N	c #F7F7F6",
"O	c #F6F6F6",
"P	c #FDFCFB",
"Q	c #CED1D4",
"R	c #989EA6",
"S	c #D3D5D9",
"T	c #B9BCBF",
"U	c #949BA4",
"V	c #ECECED",
"W	c #F2F1F1",
"X	c #F1F1F1",
"Y	c #F4F4F4",
"Z	c #939AA1",
"[	c #B9BDC3",
"]	c #E9EAEB",
"^	c #7D858F",
"_	c #D6D8DA",
"`	c #EEEDEE",
"a	c #F1F0F0",
"b	c #DCDEDF",
"c	c #8B919A",
"d	c #D6D8DB",
"e	c #8C929A",
"f	c #C1C4C8",
"g	c #E8E8E7",
"h	c #EDEDEC",
"i	c #C4C7CA",
"j	c #989DA5",
"k	c #9DA1A9",
"l	c #B0B4B9",
"m	c #EBEAEB",
"n	c #F4F3F2",
"o	c #B2B6BB",
"p	c #A6ABB1",
"q	c #A5AAB2",
"r	c #AAAFB5",
"s	c #F3F3F4",
"t	c #B4B8BD",
"u	c #B7BAC0",
"v	c #8A919A",
"w	c #C7CACE",
"x	c #CCCFD2",
"y	c #858C95",
"z	c #C0C4C9",
"{	c #C6C9CD",
"|	c #969DA5",
"}	c #939AA3",
"~	c #C0C3C7",
"                ",
"     #$%&'(     ",
"    )*+,-.01    ",
"   2034555678   ",
"   9:;;<<;=>$   ",
"   ?@5AABBCDE   ",
"   FGAHHHHIJK   ",
"   LM,NOOPQRS   ",
"    TUVWXYZ[    ",
"    ]^_`abcd    ",
"     efghij     ",
"     klmnop     ",
"     qrs<rt     ",
"     uvwxyz     ",
"      {|}~      ",
"                "};