/* XPM */ 
static const char * selectcellssurfacebutton_xpm[] = {
"24 24 141 2",
"  	c None",
"! 	c #ECE9D8",
"# 	c #AAA995",
"$ 	c #93937E",
"% 	c #B6B4A1",
"& 	c #91917C",
"' 	c #C0BFAC",
"( 	c #CCCAB7",
") 	c #E6E3D2",
"* 	c #D8D5C3",
"+ 	c #DBD8C7",
", 	c #E3E0CF",
"- 	c #D0CDBB",
". 	c #75765F",
"0 	c #A3A28E",
"1 	c #72735C",
"2 	c #B1B09C",
"3 	c #C1BFAC",
"4 	c #E4E1D0",
"5 	c #D1CFBC",
"6 	c #D6D3C1",
"7 	c #DFDDCB",
"8 	c #C6C4B1",
"9 	c #E9E7D4",
": 	c #B5B4A1",
"; 	c #A3A28D",
"< 	c #D7DEBE",
"= 	c #C4D3A7",
"> 	c #E4E2D0",
"? 	c #A1A08C",
"@ 	c #D5D2C0",
"A 	c #94B76C",
"B 	c #8FB667",
"C 	c #DBDFC3",
"D 	c #6F7059",
"E 	c #C5C3B0",
"F 	c #C5D3A8",
"G 	c #80B257",
"H 	c #93C370",
"I 	c #B2C991",
"J 	c #EAE8D6",
"K 	c #B2B19D",
"L 	c #E2E3CB",
"M 	c #91B769",
"N 	c #A4D28A",
"O 	c #A2D388",
"P 	c #8AB863",
"Q 	c #CDD8B3",
"R 	c #B0AF9B",
"S 	c #D9D7C5",
"T 	c #EBE8D6",
"U 	c #BACD9A",
"V 	c #97C375",
"W 	c #B1DD9B",
"X 	c #A8D890",
"Y 	c #93C674",
"Z 	c #87B25C",
"[ 	c #E3E4CD",
"] 	c #DFE2C9",
"^ 	c #9ABD75",
"_ 	c #ADD894",
"` 	c #9ED384",
"a 	c #84BA5E",
"b 	c #A3C07E",
"c 	c #CCCAB8",
"d 	c #C1C0AC",
"e 	c #BED0A0",
"f 	c #99C578",
"g 	c #B7E0A2",
"h 	c #93CC75",
"i 	c #83B55A",
"j 	c #C5D4A9",
"k 	c #EBE9D7",
"l 	c #E7E5D3",
"m 	c #C0BEAB",
"n 	c #DEDCCA",
"o 	c #E4E4CE",
"p 	c #89B460",
"q 	c #B3DB9C",
"r 	c #B9E2A5",
"s 	c #93CB76",
"t 	c #84BC61",
"u 	c #94BA6D",
"v 	c #E0E2C9",
"w 	c #E6E4D2",
"x 	c #9DBD77",
"y 	c #A2CB83",
"z 	c #C1E6AF",
"{ 	c #94CE77",
"| 	c #717B5A",
"} 	c #749A4F",
"~ 	c #ACC58B",
" !	c #EBE8D7",
"!!	c #EAE7D6",
"#!	c #D7D5C3",
"$!	c #D0CEBC",
"%!	c #D9DEC1",
"&!	c #86B05C",
"'!	c #9DC47B",
"(!	c #9EC57D",
")!	c #9BC379",
"*!	c #98C275",
"+!	c #94BF70",
",!	c #90BE6C",
"-!	c #8CBC66",
".!	c #78855D",
"0!	c #6F7258",
"1!	c #748357",
"2!	c #C9C9B3",
"3!	c #E1E3CB",
"4!	c #CFD9B5",
"5!	c #CED9B4",
"6!	c #A6AB8F",
"7!	c #767760",
"8!	c #A0A08B",
"9!	c #DBD9C7",
":!	c #D5D3C1",
";!	c #CFCDBB",
"<!	c #767660",
"=!	c #73745D",
">!	c #D8D6C4",
"?!	c #E0DDCB",
"@!	c #E8E5D3",
"A!	c #878871",
"B!	c #70715A",
"C!	c #71725B",
"D!	c #9F9E89",
"E!	c #E7E4D3",
"F!	c #9E9E89",
"G!	c #878872",
"H!	c #95957F",
"I!	c #767761",
"J!	c #B8B6A3",
"K!	c #D0CEBB",
"L!	c #B8B7A3",
"M!	c #C5C4B0",
"N!	c #8C8D77",
"O!	c #7B7B65",
"P!	c #CFCEBB",
"Q!	c #92927D",
"R!	c #E2DFCD",
"! ! ! ! ! ! ! ! ! ! ! ! ! ! ! ! ! ! ! ! ! ! ! ! ",
"! ! ! ! ! ! ! ! ! ! ! ! ! ! ! ! ! ! ! ! ! ! ! ! ",
"! ! # $ ! % & ! ' & ! ( & ) * & + , & - ! ! ! ! ",
"! ! $ . ! 0 1 ! 2 1 ! 3 1 4 5 1 6 7 1 8 ! ! ! ! ",
"! ! ! ! ! ! ! ! ! ! ! 9 ! ! ! ! ! ! ! ! ! ! ! ! ",
"! ! : ; ! ! ! ! ! ! < = ! ! ! ! ! > ? @ ! ! ! ! ",
"! ! & 1 ! ! ! ! ! ! A B C ! ! ! ! 7 D E ! ! ! ! ",
"! ! ! ! ! ! ! ! ! F G H I J ! ! ! ! ! ! ! ! ! ! ",
"! ! 3 K ! ! ! ! L M N O P Q ! ! ! ) R S ! ! ! ! ",
"! ! & 1 ! ! ! T U V W X Y Z [ ! ! 7 D E ! ! ! ! ",
"! ! ! ! ! ! ! ] ^ _ W X ` a b J ! ! ! ! ! ! ! ! ",
"! ! c d ! ! ! e f g W X ` h i j k l m n ! ! ! ! ",
"! ! & 1 ! ! o p q r W X ` s t u v 7 D E ! ! ! ! ",
"! ! w > ! ! x y z r W X ` { | } ~  !4 !!! ! ! ! ",
"! ! #!$!! %!&!'!(!)!*!+!,!-!.!0!1!2!) ! ! ! ! ! ",
"! ! & 1 ! 3!4!5!5!5!5!5!5!5!6!D D 7!8!c  !! ! ! ",
"! ! 9!:!! ! ! ! ! ! ! ! ! ! ;!<!D D =!$ >!! ! ! ",
"! ! , ?!! > 7 ! ) 7 ! @!7  !9!A!B!C!D!E!! ! ! ! ",
"! ! & 1 ! ? D ! R D ! m D 4 ) F!G!H!I!J! !! ! ! ",
"! ! K!8 ! @ E ! S E ! n E !! !L!M!9!N!O!P!! ! ! ",
"! ! ! ! ! ! ! ! ! ! ! ! ! ! !  !k ! ( Q!R!! ! ! ",
"! ! ! ! ! ! ! ! ! ! ! ! ! ! ! ! ! ! ! ! ! ! ! ! ",
"! ! ! ! ! ! ! ! ! ! ! ! ! ! ! ! ! ! ! ! ! ! ! ! ",
"! ! ! ! ! ! ! ! ! ! ! ! ! ! ! ! ! ! ! ! ! ! ! ! "};