/* XPM */ 
static const char * information_xpm[] = {
"24 24 308 2",
"  	c None",
"! 	c black",
"# 	c #3270D3",
"$ 	c #3673D4",
"% 	c #3674D4",
"& 	c #3070D3",
"' 	c #3C79D8",
"( 	c #548DDF",
") 	c #649DE8",
"* 	c #6EA6EB",
"+ 	c #6FA6EC",
", 	c #669FE9",
"- 	c #5391E1",
". 	c #397EDA",
"0 	c #3D76D6",
"1 	c #619AE4",
"2 	c #81BBF6",
"3 	c #8FC7FC",
"4 	c #96CCFD",
"5 	c #97CDFE",
"6 	c #9ACEFE",
"7 	c #9FD0FF",
"8 	c #9DCEFD",
"9 	c #91C3F9",
": 	c #66A0E8",
"; 	c #3A7ED6",
"< 	c #477FD9",
"= 	c #71B0F2",
"> 	c #86C4FC",
"? 	c #86C2FB",
"@ 	c #87C3FA",
"A 	c #87C2FA",
"B 	c #8EC6FB",
"C 	c #91C7FB",
"D 	c #8FC7FB",
"E 	c #95CAFC",
"F 	c #9BCDFD",
"G 	c #A2D1FF",
"H 	c #82BAF6",
"I 	c #4287DB",
"J 	c #457FD8",
"K 	c #70B2F5",
"L 	c #7BBFFB",
"M 	c #7BBDF9",
"N 	c #7EBDF9",
"O 	c #7DBDF9",
"P 	c #99CBFA",
"Q 	c #E7F2FE",
"R 	c #E7F3FE",
"S 	c #A0CFFB",
"T 	c #8BC5FA",
"U 	c #91C8FB",
"V 	c #94C9FC",
"W 	c #9ECFFE",
"X 	c #89C0F9",
"Y 	c #3E86DC",
"Z 	c #3F73D4",
"[ 	c #64A8F1",
"] 	c #72BAFA",
"^ 	c #72B7F8",
"_ 	c #75BAF9",
"` 	c #77BBF9",
"a 	c #71B8F9",
"b 	c #C1DFFC",
"c 	c white",
"d 	c #C6E1FD",
"e 	c #80BFFA",
"f 	c #8BC4FB",
"g 	c #90C7FB",
"h 	c #9BCEFD",
"i 	c #79B6F6",
"j 	c #4889D4",
"k 	c #5491E2",
"l 	c #69B6F9",
"m 	c #69B3F7",
"n 	c #6CB4F8",
"o 	c #6FB6F8",
"p 	c #6FB7F9",
"q 	c #98CAFA",
"r 	c #F2F9FE",
"s 	c #F3F9FE",
"t 	c #9ECDFB",
"u 	c #85C1F9",
"v 	c #88C3FA",
"w 	c #97CCFD",
"x 	c #519BEA",
"y 	c #80A1C7",
"z 	c #3D77D7",
"{ 	c #5AA7F2",
"| 	c #62B0F7",
"} 	c #63B0F7",
"~ 	c #66B2F7",
" !	c #6AB4F7",
"!!	c #67B2F7",
"#!	c #66B1F8",
"$!	c #78BBF8",
"%!	c #72B8F9",
"&!	c #7DBEF9",
"'!	c #7FBFF9",
"(!	c #82C0F9",
")!	c #88C2FA",
"*!	c #7AB9F8",
"+!	c #508ED4",
",!	c #4584DC",
"-!	c #58ABF6",
".!	c #5BACF5",
"0!	c #5DADF5",
"1!	c #60AFF6",
"2!	c #61AFF7",
"3!	c #6EB6F7",
"4!	c #A2CFFA",
"5!	c #A2D1FA",
"6!	c #9FCEFA",
"7!	c #A4D1FA",
"8!	c #8FC6FA",
"9!	c #74B9F9",
":!	c #79BBF9",
";!	c #7CBDF9",
"<!	c #7FBEF9",
"=!	c #81BFF9",
">!	c #85C1FA",
"?!	c #87C3FB",
"@!	c #4690E2",
"A!	c #A4B1C1",
"B!	c #3B70D2",
"C!	c #458CE3",
"D!	c #52AAF6",
"E!	c #55A9F5",
"F!	c #57AAF5",
"G!	c #5AACF5",
"H!	c #59ABF5",
"I!	c #71B7F7",
"J!	c #DBEDFD",
"K!	c #F5FAFE",
"L!	c #BFDFFC",
"M!	c #68B2F8",
"N!	c #73B8F8",
"O!	c #76BAF9",
"P!	c #79BCF9",
"Q!	c #4C99E9",
"R!	c #86A3C4",
"S!	c #3C74D3",
"T!	c #438FE6",
"U!	c #4CA7F6",
"V!	c #4EA6F4",
"W!	c #51A7F4",
"X!	c #54A8F5",
"Y!	c #57A9F5",
"Z!	c #5AABF5",
"[!	c #B9DCFB",
"]!	c #BBDDFB",
"^!	c #62AFF7",
"_!	c #6DB5F8",
"`!	c #70B6F8",
"a!	c #73B8F9",
"b!	c #76B9F9",
"c!	c #78BBF9",
"d!	c #81C1FB",
"e!	c #4F9DEC",
"f!	c #7DA0C7",
"g!	c #3D75D3",
"h!	c #3F8DE5",
"i!	c #46A4F4",
"j!	c #48A3F3",
"k!	c #4BA4F4",
"l!	c #4EA5F4",
"m!	c #53A7F4",
"n!	c #B4D9FA",
"o!	c #B9DBFB",
"p!	c #5CADF6",
"q!	c #67B3F7",
"r!	c #6AB3F7",
"s!	c #6CB5F7",
"t!	c #7BBDFB",
"u!	c #4B9AEB",
"v!	c #7DA1C7",
"w!	c #3C72D2",
"x!	c #3B88E2",
"y!	c #3FA0F4",
"z!	c #429FF2",
"{!	c #45A1F2",
"|!	c #4AA4F3",
"}!	c #4DA5F4",
"~!	c #47A2F3",
" #	c #B2D8FA",
"!#	c #B6DAFB",
"##	c #56A9F5",
"$#	c #64B1F7",
"%#	c #6CB5F8",
"&#	c #74B9FA",
"'#	c #4294E7",
"(#	c #8AA6C5",
")#	c #397FDB",
"*#	c #399CF2",
"+#	c #3C9DF2",
",#	c #3F9EF2",
"-#	c #45A1F3",
".#	c #419FF2",
"0#	c #AFD6FA",
"1#	c #B3D9FA",
"2#	c #4FA6F4",
"3#	c #5EADF6",
"4#	c #61AFF6",
"5#	c #68B3F8",
"6#	c #3A8CE0",
"7#	c #A9B4C1",
"8#	c #3A79D6",
"9#	c #3294EE",
":#	c #369BF2",
";#	c #399BF1",
"<#	c #3B9CF2",
"=#	c #3F9DF2",
">#	c #409EF2",
"?#	c #3799F1",
"@#	c #ABD4F9",
"A#	c #AFD7FA",
"B#	c #55A8F5",
"C#	c #58AAF5",
"D#	c #63B1F7",
"E#	c #52A6F4",
"F#	c #4E8FD3",
"G#	c #C2C0BF",
"H#	c #3583DE",
"I#	c #2F98F2",
"J#	c #3398F0",
"K#	c #3699F0",
"L#	c #389AF1",
"M#	c #3C9CF1",
"N#	c #3E9DF2",
"O#	c #AED6F9",
"P#	c #B2D9FA",
"Q#	c #4BA5F3",
"R#	c #50A6F3",
"S#	c #52A7F4",
"T#	c #5EAFF7",
"U#	c #348EE7",
"V#	c #86A6C7",
"W#	c #3F7BD3",
"X#	c #278BEB",
"Y#	c #2C97F1",
"Z#	c #3097F0",
"[#	c #2D95F0",
"]#	c #51A7F3",
"^#	c #61B0F4",
"_#	c #55AAF6",
"`#	c #3E9AF0",
"a#	c #488BD3",
"b#	c #C0C0C0",
"c#	c #377CD7",
"d#	c #238CED",
"e#	c #2994F0",
"f#	c #2993F0",
"g#	c #3F9FF1",
"h#	c #A4D1F8",
"i#	c #A7D3F9",
"j#	c #A6D2F9",
"k#	c #A8D3F9",
"l#	c #AAD4F9",
"m#	c #52A8F3",
"n#	c #43A0F3",
"o#	c #4BA5F4",
"p#	c #3F9CF2",
"q#	c #2F83DB",
"r#	c #A4B2C2",
"s#	c #337CD8",
"t#	c #2088EB",
"u#	c #2693F0",
"v#	c #2793F0",
"w#	c #228FEF",
"x#	c #2491EF",
"y#	c #2792EF",
"z#	c #2A94F0",
"{#	c #3197F1",
"|#	c #41A0F4",
"}#	c #3193EE",
"~#	c #2E82DB",
" $	c #96ABC4",
"!$	c #4B85D1",
"#$	c #217EE2",
"$$	c #1E8AED",
"%$	c #2391F0",
"&$	c #2794F1",
"'$	c #2A95F1",
"($	c #2D97F1",
")$	c #3098F2",
"*$	c #3198F2",
"+$	c #2B92EF",
",$	c #2485E5",
"-$	c #478AD2",
".$	c #A5B2C2",
"0$	c #8AA5C8",
"1$	c #4E89D1",
"2$	c #2C80DD",
"3$	c #2381E3",
"4$	c #2083E5",
"5$	c #2184E5",
"6$	c #2584E3",
"7$	c #2A82DE",
"8$	c #4C8DD2",
"9$	c #89A6C7",
":$	c #C1C0C0",
";$	c #AEB7C4",
"<$	c #90A7C5",
"=$	c #84A3C8",
">$	c #84A2C7",
"?$	c #90A8C5",
"@$	c #AEB7C3",
"A$	c #C3C1BF",
"                                                ",
"                    # $ % &                     ",
"                ' ( ) * + , - .                 ",
"            0 1 2 3 4 5 6 7 8 9 : ;             ",
"          < = > ? @ A B C D E F G H I           ",
"        J K L M N O P Q R S T U V W X Y         ",
"      Z [ ] ^ _ ` a b c c d e f B g h i j       ",
"      k l m n o ^ p q r s t N u v f B w x y     ",
"    z { | } ~ m  !!!#!$!M %!&!'!(!u )!B *!+!    ",
"    ,!-!.!0!1!2!3!4!5!6!7!8!9!:!;!<!=!>!?!@!A!  ",
"  B!C!D!E!F!G!H!I!J!K!c c L!M!N!O!P!;!<!?!Q!R!  ",
"  S!T!U!V!W!X!Y!Z!F![!c c ]!^!_!`!a!b!c!d!e!f!  ",
"  g!h!i!j!k!l!W!m!k!n!c c o!p!q!r!s!`!N!t!u!v!  ",
"  w!x!y!z!{!j!|!}!~! #c c !###1!$#!!r!%#&#'#(#  ",
"    )#*#+#,#z!-#~!.#0#c c 1#2#Z!3#4#$#!!5#6#7#  ",
"    8#9#:#;#<#=#>#?#@#c c A#-#B#C#.!0!D#E#F#G#  ",
"      H#I#J#K#L#M#N#O#c c P#Q#R#S#E!F!T#U#V#    ",
"      W#X#Y#Z#[#]#s c c c c s ^#~!V!_#`#a#b#    ",
"        c#d#e#f#g#h#i#j#k#@#l#m#n#o#p#q#r#      ",
"          s#t#u#v#w#x#y#z#[#{#+#|#}#~# $        ",
"            !$#$$$%$&$'$($)$*$+$,$-$.$          ",
"              0$1$2$3$4$5$6$7$8$9$:$            ",
"                  ;$<$=$>$?$@$A$                ",
"                                                "};