/* XPM */ 
static const char * tavernaworkingarea_xpm[] = {
"24 24 413 2",
"  	c None",
"! 	c black",
"# 	c #CDBBA2",
"$ 	c #D2B281",
"% 	c #DFB97F",
"& 	c #DEBB80",
"' 	c #D7B882",
"( 	c #CDBDA0",
") 	c #D0C2B1",
"* 	c #DAA25A",
"+ 	c #F5A234",
", 	c #F7A634",
"- 	c #EAA334",
". 	c #DE9D31",
"0 	c #DDA031",
"1 	c #E5A936",
"2 	c #F3B438",
"3 	c #F7B73B",
"4 	c #E2B45B",
"5 	c #D4CBB5",
"6 	c #EFEDEB",
"7 	c #D3A167",
"8 	c #FBA232",
"9 	c #E69831",
": 	c #C5842D",
"; 	c #A06C2A",
"< 	c #855B28",
"= 	c #755329",
"> 	c #73562D",
"? 	c #7C5F31",
"@ 	c #967333",
"A 	c #BA8D35",
"B 	c #E1AA37",
"C 	c #F5BB40",
"D 	c #DEBB73",
"E 	c #E4E1DB",
"F 	c #E1E1E0",
"G 	c #DE9C51",
"H 	c #F79E31",
"I 	c #CA832C",
"J 	c #8E632D",
"K 	c #525248",
"L 	c #375261",
"M 	c #30546C",
"N 	c #334F62",
"O 	c #3B4046",
"P 	c #46362F",
"Q 	c #4D382A",
"R 	c #644D30",
"S 	c #8E6D32",
"T 	c #C79735",
"U 	c #F2B339",
"V 	c #E9BA5D",
"W 	c #D5D0C9",
"X 	c #EEEEEE",
"Y 	c #DA9C55",
"Z 	c #FD9F32",
"[ 	c #BC7D2C",
"] 	c #66614A",
"^ 	c #196797",
"_ 	c #106CA8",
"` 	c #195F8B",
"a 	c #205B80",
"b 	c #1B5D88",
"c 	c #1B679C",
"d 	c #35729B",
"e 	c #616C73",
"f 	c #64564D",
"g 	c #53412F",
"h 	c #7F6332",
"i 	c #BD8E34",
"j 	c #EFAF38",
"k 	c #ECBA60",
"l 	c #DAD8D5",
"m 	c #BB9E7E",
"n 	c #FFA333",
"o 	c #CE842B",
"p 	c #626552",
"q 	c #28759F",
"r 	c #717C66",
"s 	c #836534",
"t 	c #4A3F2F",
"u 	c #2E353D",
"v 	c #424032",
"w 	c #6B6137",
"x 	c #425F65",
"y 	c #2D77AA",
"z 	c #8A9CA8",
"{ 	c #A29F9B",
"| 	c #5D4F3C",
"} 	c #856832",
"~ 	c #C89334",
" !	c #F1AE3E",
"!!	c #DAB67B",
"#!	c #D7D5D4",
"$!	c #F19B36",
"%!	c #E89430",
"&!	c #926D37",
"'!	c #387691",
"(!	c #BB994B",
")!	c #E79923",
"*!	c #D08E2C",
"+!	c #E29933",
",!	c #937B53",
"-!	c #BC9938",
".!	c #BB912C",
"0!	c #C18D28",
"1!	c #415051",
"2!	c #2F7AB1",
"3!	c #B9BFC4",
"4!	c #BEBEBB",
"5!	c #665E46",
"6!	c #9A7832",
"7!	c #DB9D35",
"8!	c #ECB250",
"9!	c #C6BEB2",
":!	c #B49F87",
";!	c #FFA634",
"<!	c #CB842A",
"=!	c #4C6B6D",
">!	c #6C8376",
"?!	c #E59923",
"@!	c #423B2E",
"A!	c #262A2E",
"B!	c #B87C2E",
"C!	c #D48E2D",
"D!	c #C1952D",
"E!	c #AB822E",
"F!	c #CA952D",
"G!	c #4F4935",
"H!	c #204F75",
"I!	c #5A87A8",
"J!	c #E9E7E6",
"K!	c #A59988",
"L!	c #906C30",
"M!	c #C58E33",
"N!	c #ECA43C",
"O!	c #CFAD7B",
"P!	c #C08F54",
"Q!	c #FDA233",
"R!	c #B77C2B",
"S!	c #2E7092",
"T!	c #636654",
"U!	c #EC9D2A",
"V!	c #987340",
"W!	c #8C704F",
"X!	c #E08E2D",
"Y!	c #9C6B30",
"Z!	c #4E4B35",
"[!	c #8A6A2C",
"]!	c #635638",
"^!	c #5A5C5C",
"_!	c #465B6E",
"`!	c #2A6B9C",
"a!	c #A88462",
"b!	c #E28A35",
"c!	c #C67D2E",
"d!	c #BC8431",
"e!	c #E59B33",
"f!	c #DEA55A",
"g!	c #CECDCD",
"h!	c #D18F3E",
"i!	c #F39E32",
"j!	c #A2752F",
"k!	c #29749D",
"l!	c #2F414A",
"m!	c #8E642A",
"n!	c #E8982F",
"o!	c #E8952F",
"p!	c #A5783C",
"q!	c #317293",
"r!	c #196598",
"s!	c #1A334D",
"t!	c #43484E",
"u!	c #BFBFC0",
"v!	c #8F9BA4",
"w!	c #356890",
"x!	c #C27C37",
"y!	c #81572C",
"z!	c #3E3B2F",
"{!	c #A27830",
"|!	c #E59833",
"}!	c #E2A351",
"~!	c #AFACA8",
" #	c #D49037",
"!#	c #F4A133",
"##	c #A4752C",
"$#	c #2B759D",
"%#	c #466071",
"&#	c #393735",
"'#	c #403B30",
"(#	c #433C30",
")#	c #263D4B",
"*#	c #1B71A7",
"+#	c #246697",
",#	c #6C786C",
"-#	c #B1A17E",
".#	c #C8C5BE",
"0#	c #8597A5",
"1#	c #2D6490",
"2#	c #B97430",
"3#	c #B47434",
"4#	c #755F42",
"5#	c #AB7B32",
"6#	c #E69732",
"7#	c #E09E4E",
"8#	c #A39F9A",
"9#	c #C58936",
":#	c #FDA834",
";#	c #BC822A",
"<#	c #3F6777",
"=#	c #4B82A7",
">#	c #A2A1A0",
"?#	c #646565",
"@#	c #5C5E5E",
"A#	c #54595F",
"B#	c #2A4150",
"C#	c #928749",
"D#	c #F5BA2D",
"E#	c #E9AD2E",
"F#	c #EEAE32",
"G#	c #877D58",
"H#	c #1E476B",
"I#	c #60462D",
"J#	c #C8792E",
"K#	c #D88631",
"L#	c #CA8732",
"M#	c #E89632",
"N#	c #D6964C",
"O#	c #9A9896",
"P#	c #9E773A",
"Q#	c #FFB135",
"R#	c #D09331",
"S#	c #6C5D37",
"T#	c #2673A9",
"U#	c #8AA4B6",
"V#	c white",
"W#	c #FDFDFD",
"X#	c #E4E3E2",
"Y#	c #7D745B",
"Z#	c #E7B12B",
"[#	c #846A2D",
"]#	c #2E3331",
"^#	c #8E743C",
"_#	c #E6A330",
"`#	c #565146",
"a#	c #464A4E",
"b#	c #38362F",
"c#	c #7C5E2F",
"d#	c #CE8B31",
"e#	c #ED9631",
"f#	c #BA874D",
"g#	c #999C9E",
"h#	c #70644D",
"i#	c #FFB237",
"j#	c #E8A335",
"k#	c #A97C2D",
"l#	c #324B57",
"m#	c #2478B5",
"n#	c #7299B5",
"o#	c #CCD2D7",
"p#	c #F3F2F1",
"q#	c #AAA088",
"r#	c #E9AF2D",
"s#	c #87753F",
"t#	c #28577E",
"u#	c #8C8867",
"v#	c #F0A833",
"w#	c #989185",
"x#	c #D8D9D8",
"y#	c #8A806F",
"z#	c #AC7B31",
"{#	c #E49431",
"|#	c #DE8F30",
"}#	c #8B7153",
"~#	c #B9BABC",
" $	c #737678",
"!$	c #C79136",
"#$	c #FFB737",
"$$	c #D39A35",
"%$	c #7F6631",
"&$	c #293C49",
"'$	c #1C5788",
"($	c #2974AD",
")$	c #407DAC",
"*$	c #37688B",
"+$	c #997C37",
",$	c #FBB530",
"-$	c #ECAE3D",
".$	c #F0A82F",
"0$	c #A37B3C",
"1$	c #969799",
"2$	c #EAE5DD",
"3$	c #B59466",
"4$	c #D88E31",
"5$	c #F29831",
"6$	c #B87B36",
"7$	c #6C6E6E",
"8$	c #574C33",
"9$	c #F6AF37",
":$	c #FAB537",
";$	c #C69434",
"<$	c #8D7032",
"=$	c #403E34",
">$	c #1C3143",
"?$	c #1C3852",
"@$	c #1E3C57",
"A$	c #2A363E",
"B$	c #67542D",
"C$	c #89672C",
"D$	c #604E2F",
"E$	c #393D3F",
"F$	c #A49F98",
"G$	c #B79364",
"H$	c #D58D33",
"I$	c #F39931",
"J$	c #D98A31",
"K$	c #6C5B46",
"L$	c #9C9FA2",
"M$	c #6B6D6F",
"N$	c #7D6234",
"O$	c #F9B738",
"P$	c #F5B637",
"Q$	c #D09B36",
"R$	c #AA8436",
"S$	c #7B693D",
"T$	c #5B5748",
"U$	c #575A57",
"V$	c #595C5E",
"W$	c #3B3E3F",
"X$	c #353632",
"Y$	c #4E4433",
"Z$	c #866A42",
"[$	c #BA8741",
"]$	c #DB9132",
"^$	c #F39B31",
"_$	c #E19031",
"`$	c #735636",
"a$	c #5F666C",
"b$	c #EAEAEA",
"c$	c #E2E2E2",
"d$	c #4D4B4A",
"e$	c #7C5E34",
"f$	c #EAAE37",
"g$	c #FCC038",
"h$	c #E7AD37",
"i$	c #CF9C36",
"j$	c #B9903C",
"k$	c #AE8C4B",
"l$	c #A98B57",
"m$	c #A78347",
"n$	c #AA7E38",
"o$	c #BE8634",
"p$	c #D28E33",
"q$	c #EA9A32",
"r$	c #FCA131",
"s$	c #D58931",
"t$	c #664E32",
"u$	c #474E54",
"v$	c #C6C6C6",
"w$	c #524A45",
"x$	c #6D5033",
"y$	c #B78734",
"z$	c #F2B438",
"{$	c #FEBD38",
"|$	c #FBB837",
"}$	c #F3AF37",
"~$	c #EBA736",
" %	c #EAA435",
"!%	c #F0A434",
"#%	c #F8A733",
"$%	c #FDA732",
"%%	c #EE9A31",
"&%	c #9D6A30",
"'%	c #473E31",
"(%	c #474C50",
")%	c #BABABB",
"*%	c #675E59",
"+%	c #543B30",
",%	c #6F4E32",
"-%	c #996D33",
".%	c #BF8A34",
"0%	c #D89935",
"1%	c #E39E34",
"2%	c #E29A33",
"3%	c #D59032",
"4%	c #BA7E31",
"5%	c #8B6131",
"6%	c #544231",
"7%	c #363537",
"8%	c #636466",
"9%	c #CDCDCD",
":%	c #EEEEED",
";%	c #A19E9C",
"<%	c #65544F",
"=%	c #513731",
">%	c #543831",
"?%	c #583D32",
"@%	c #593F32",
"A%	c #553E32",
"B%	c #4C3A31",
"C%	c #403430",
"D%	c #383232",
"E%	c #535050",
"F%	c #A6A6A6",
"G%	c #C3C3C1",
"H%	c #999593",
"I%	c #807875",
"J%	c #766C69",
"K%	c #746D69",
"L%	c #7D7876",
"M%	c #979594",
"N%	c #C3C2C2",
"                                                ",
"                  # $ % & ' (                   ",
"            ) * + , - . 0 1 2 3 4 5             ",
"        6 7 8 9 : ; < = > ? @ A B C D E         ",
"      F G H I J K L M N O P Q R S T U V W       ",
"    X Y Z [ ] ^ _ ` a b c d e f g h i j k l     ",
"    m n o p q r s t u v w x y z { | } ~  !!!    ",
"  #!$!%!&!'!(!)!*!+!,!-!.!0!1!2!3!4!5!6!7!8!9!  ",
"  :!;!<!=!>!?!@!A!B!C!D!E!F!G!H!I!J!K!L!M!N!O!  ",
"  P!Q!R!S!T!U!V!W!X!Y!Z![!]!^!_!`!a!b!c!d!e!f!g!",
"  h!i!j!k!l!m!n!o!p!q!r!s!t!u!v!w!x!y!z!{!|!}!~!",
"   #!###$#%#&#'#(#)#*#+#,#-#.#0#1#2#3#4#5#6#7#8#",
"  9#:#;#<#=#>#?#@#A#B#C#D#E#F#G#H#I#J#K#L#M#N#O#",
"  P#Q#R#S#T#U#V#W#X#Y#Z#[#]#^#_#`#a#b#c#d#e#f#g#",
"  h#i#j#k#l#m#n#o#p#q#r#s#t#u#v#w#x#y#z#{#|#}#~#",
"   $!$#$$$%$&$'$($)$*$+$,$-$.$0$1$2$3$4$5$6$7$  ",
"    8$9$:$;$<$=$>$?$@$A$B$C$D$E$F$G$H$I$J$K$L$  ",
"    M$N$O$P$Q$R$S$T$U$V$W$X$Y$Z$[$]$^$_$`$a$b$  ",
"    c$d$e$f$g$h$i$j$k$l$m$n$o$p$q$r$s$t$u$v$    ",
"        w$x$y$z${$|$}$~$ %!%#%$%%%&%'%(%)%      ",
"          *%+%,%-%.%0%1%2%3%4%5%6%7%8%9%        ",
"          :%;%<%=%>%?%@%A%B%C%D%E%F%            ",
"                G%H%I%J%K%L%M%N%                ",
"                                                "};