/* XPM */ 
static const unsigned char * tavernarefresh_xpm[] = {
"24 24 342 2",
"  	c None",
"! 	c black",
"# 	c #3D6098",
"$ 	c #9CC6E5",
"% 	c #41659C",
"& 	c #133173",
"' 	c #8DBBE1",
"( 	c #8DC0E8",
") 	c #3F629C",
"* 	c #112F72",
"+ 	c #355691",
", 	c #597DAF",
"- 	c #5F85B6",
". 	c #6891C1",
"0 	c #85B6E1",
"1 	c #72AFE3",
"2 	c #85BAE9",
"3 	c #3F629D",
"4 	c #3F6199",
"5 	c #739DCA",
"6 	c #7DB0DD",
"7 	c #7CB3E1",
"8 	c #78B0E2",
"9 	c #74AEE3",
": 	c #6DA8DF",
"; 	c #6BA8E1",
"< 	c #6BABE6",
"= 	c #7CB5EC",
"> 	c #3B619F",
"? 	c #102E71",
"@ 	c #577BAF",
"A 	c #79ABD9",
"B 	c #6EA6D9",
"C 	c #69A1D7",
"D 	c #67A1D9",
"E 	c #67A1DB",
"F 	c #65A2DE",
"G 	c #65A2E0",
"H 	c #65A4E3",
"I 	c #62A3E5",
"J 	c #6CB0F2",
"K 	c #70A3DE",
"L 	c #786F67",
"M 	c #DFBD7D",
"N 	c #E7BF6E",
"O 	c #6FA3D5",
"P 	c #649AD1",
"Q 	c #639AD3",
"R 	c #639CD7",
"S 	c #67A1DC",
"T 	c #68A2E0",
"U 	c #67A1DF",
"V 	c #629FDE",
"W 	c #5C9FE4",
"X 	c #64A8EE",
"Y 	c #659BDD",
"Z 	c #574A40",
"[ 	c #A06F25",
"] 	c #B5842D",
"^ 	c #D19B32",
"_ 	c #E6B145",
"` 	c #E6C171",
"a 	c #E1D1B1",
"b 	c #3D5E98",
"c 	c #699ACF",
"d 	c #5D92CC",
"e 	c #5C93CE",
"f 	c #5F97D3",
"g 	c #5E8FCB",
"h 	c #456CA7",
"i 	c #2E4B7F",
"j 	c #415A89",
"k 	c #6194D3",
"l 	c #5EA3EC",
"m 	c #5D93D7",
"n 	c #253B58",
"o 	c #304C5E",
"p 	c #31495C",
"q 	c #424144",
"r 	c #604830",
"s 	c #856329",
"t 	c #D19B2F",
"u 	c #EFBC59",
"v 	c #DBCFB8",
"w 	c #143274",
"x 	c #5A84BB",
"y 	c #588CC9",
"z 	c #568AC8",
"{ 	c #598FCD",
"| 	c #4E79B7",
"} 	c #172E5E",
"~ 	c #B1AEAB",
" !	c #8E6845",
"!!	c #5E92D6",
"#!	c #548AD0",
"$!	c #214165",
"%!	c #2A4E61",
"&!	c #1A4362",
"'!	c #2E5669",
"(!	c #336887",
")!	c #57758C",
"*!	c #756B65",
"+!	c #71582F",
",!	c #C7912A",
"-!	c #F0B854",
".!	c #D6CBBC",
"0!	c #335390",
"1!	c #5989C5",
"2!	c #4F83C2",
"3!	c #5086C7",
"4!	c #4C78B9",
"5!	c #102451",
"6!	c #DEB17C",
"7!	c #9C6B3B",
"8!	c #4C78BD",
"9!	c #3A4B5A",
":!	c #A87625",
";!	c #B57827",
"<!	c #98763F",
"=!	c #B28929",
">!	c #A5802D",
"?!	c #34627D",
"@!	c #90AEC5",
"A!	c #A4A29D",
"B!	c #7F6939",
"C!	c #DB9B2E",
"D!	c #DCB576",
"E!	c #4064A0",
"F!	c #4D81C1",
"G!	c #487BBE",
"H!	c #4D80C3",
"I!	c #2B4A86",
"J!	c #E7A04A",
"K!	c #7A6450",
"L!	c #1D395C",
"M!	c #BD872F",
"N!	c #634F34",
"O!	c #A27034",
"P!	c #C88528",
"Q!	c #9D7A2A",
"R!	c #9F762A",
"S!	c #3E474A",
"T!	c #3A709B",
"U!	c #C7B8A9",
"V!	c #B68144",
"W!	c #C28629",
"X!	c #E4A246",
"Y!	c #D0C5B8",
"Z!	c #3E64A3",
"[!	c #4579BD",
"]!	c #4276BB",
"^!	c #4476BD",
"_!	c #132855",
"`!	c #EB9934",
"a!	c #856E43",
"b!	c #1F516F",
"c!	c #825C27",
"d!	c #CD882F",
"e!	c #A5763D",
"f!	c #335C7C",
"g!	c #17416A",
"h!	c #424B5D",
"i!	c #7D889E",
"j!	c #426A90",
"k!	c #AB7339",
"l!	c #7A542B",
"m!	c #9E732F",
"n!	c #EB9E39",
"o!	c #C2AF97",
"p!	c #3961A2",
"q!	c #3E72B9",
"r!	c #396EB7",
"s!	c #3162AD",
"t!	c #10285F",
"u!	c #EE9C31",
"v!	c #A47E3C",
"w!	c #326F93",
"x!	c #5C6268",
"y!	c #4E4539",
"z!	c #243656",
"{!	c #3869B3",
"|!	c #3E77C3",
"}!	c #427AC6",
"~!	c #447BC6",
" #	c #284C7F",
"!#	c #93602F",
"##	c #AE7236",
"$#	c #B67E33",
"%#	c #EA9A38",
"&#	c #AF9A83",
"'#	c #345A9E",
"(#	c #386CB5",
")#	c #295EAC",
"*#	c #2A5DAA",
"+#	c #18377B",
",#	c #DE9B36",
"-#	c #D1902B",
".#	c #3F626D",
"0#	c #73A0C3",
"1#	c #D8D9DA",
"2#	c #6D7CA1",
"3#	c #4394EE",
"4#	c #3FA0FF",
"5#	c #3F9FFF",
"6#	c #529EF2",
"7#	c #4C5055",
"8#	c #48494D",
"9#	c #805C30",
":#	c #D38B2F",
";#	c #DF9136",
"<#	c #A29689",
"=#	c #2B4D90",
">#	c #2F61AC",
"?#	c #2459A8",
"@#	c #2A61B1",
"A#	c #214488",
"B#	c #BA8F48",
"C#	c #FDB030",
"D#	c #886C34",
"E#	c #1F567E",
"F#	c #5A8BB7",
"G#	c #3C65A5",
"H#	c #419BFF",
"I#	c #3A98FF",
"J#	c #3E9DFF",
"K#	c #4B8BDC",
"L#	c #786C5F",
"M#	c #C1C6CC",
"N#	c #A07D48",
"O#	c #EA9429",
"P#	c #AC783A",
"Q#	c #A0A2A3",
"R#	c #183269",
"S#	c #2B5AA6",
"T#	c #255AAA",
"U#	c #2761B4",
"V#	c #2B5DA9",
"W#	c #163376",
"X#	c #675F4D",
"Y#	c #E6A530",
"Z#	c #E9AA34",
"[#	c #796233",
"]#	c #1D3A6D",
"^#	c #3F86DC",
"_#	c #3B9BFF",
"`#	c #3997FF",
"a#	c #49A3FF",
"b#	c #4067A0",
"c#	c #706F6E",
"d#	c #CAA87B",
"e#	c #D4842A",
"f#	c #7D7164",
"g#	c #061536",
"h#	c #264D95",
"i#	c #275DAC",
"j#	c #2760B2",
"k#	c #2B68BD",
"l#	c #2A5DA9",
"m#	c #19397D",
"n#	c #0F2B6D",
"o#	c #65728B",
"p#	c #675C4F",
"q#	c #90774A",
"r#	c #40547A",
"s#	c #3D80D4",
"t#	c #3D9BFF",
"u#	c #3B98FF",
"v#	c #4E96EE",
"w#	c #393B46",
"x#	c #C0883D",
"y#	c #F39B2E",
"z#	c #D6872B",
"{#	c #63513C",
"|#	c #AAB1B7",
"}#	c #132C64",
"~#	c #2957A3",
" $	c #2863B5",
"!$	c #2A66BA",
"#$	c #2C6FC5",
"$$	c #2E6DC1",
"%$	c #2B5EAA",
"&$	c #2756A0",
"'$	c #295AA5",
"($	c #346DBC",
")$	c #3C8AE6",
"*$	c #3A99FF",
"+$	c #4AA0FF",
",$	c #446090",
"-$	c #CC882C",
".$	c #EF9A2E",
"0$	c #A66D2A",
"1$	c #564B3E",
"2$	c #8B9197",
"3$	c #173677",
"4$	c #2859A7",
"5$	c #2B6ABE",
"6$	c #2C6EC4",
"7$	c #2E74CD",
"8$	c #317BD7",
"9$	c #3482E0",
":$	c #3688E8",
";$	c #378DF0",
"<$	c #3891F6",
"=$	c #3996FC",
">$	c #479DFC",
"?$	c #3C6AAF",
"@$	c #6B4C29",
"A$	c #835927",
"B$	c #5C4835",
"C$	c #505155",
"D$	c #95999D",
"E$	c #132E6B",
"F$	c #2756A4",
"G$	c #3076D0",
"H$	c #307BD7",
"I$	c #3280DF",
"J$	c #3486E7",
"K$	c #368CEF",
"L$	c #3994FA",
"M$	c #3F9AFF",
"N$	c #4591ED",
"O$	c #325696",
"P$	c #393640",
"Q$	c #605A5C",
"R$	c #818184",
"S$	c #6D6D6F",
"T$	c #0A1D48",
"U$	c #1B3E82",
"V$	c #285AAA",
"W$	c #326FC5",
"X$	c #3578D0",
"Y$	c #387FD9",
"Z$	c #3C84DF",
"[$	c #397AD2",
"]$	c #3162AE",
"^$	c #152E5F",
"_$	c #06122F",
"`$	c #102554",
"a$	c #173166",
"b$	c #19356C",
"c$	c #162D5E",
"d$	c #091738",
"                    #                           ",
"                    $ %                         ",
"                  & ' ( )                       ",
"          * + , - . 0 1 2 3                     ",
"        4 5 6 7 8 9 : ; < = >                   ",
"    ? @ A B C D E F G H I J K L M N             ",
"    @ O P Q R S T U V W X Y Z [ ] ^ _ ` a       ",
"  b c d e f g h i j k l m n o p q r s t u v     ",
"w x y z { | }   ~  !!!#!$!%!&!'!(!)!*!+!,!-!.!  ",
"0!1!2!3!4!5!    6!7!8!9!:!;!<!=!>!?!@!A!B!C!D!  ",
"E!F!G!H!I!      J!K!L!M!N!O!P!Q!R!S!T!U!V!W!X!Y!",
"Z![!]!^!_!      `!a!b!c!d!e!f!g!h!i!j!k!l!m!n!o!",
"p!q!r!s!t!      u!v!w!x!y!z!{!|!}!~! #!###$#%#&#",
"'#(#)#*#+#      ,#-#.#0#1#2#3#4#5#6#7#8#9#:#;#<#",
"=#>#?#@#A#      B#C#D#E#F#G#H#I#J#K#L#M#N#O#P#Q#",
"R#S#T#U#V#W#    X#Y#Z#[#]#^#_#`#a#b#c#d#`!e#f#  ",
"g#h#i#j#k#l#m#n#o#p#q#r#s#t#u#_#v#w#x#y#z#{#|#  ",
"  }#~# $!$#$$$%$&$'$($)$I#u#*$+$,$-$.$0$1$2$    ",
"    3$4$5$6$7$8$9$:$;$<$=$_#>$?$@$A$B$C$D$      ",
"      E$F$$$G$H$I$J$K$L$M$N$O$P$Q$R$S$          ",
"        T$U$V$W$X$Y$Z$[$]$^$                    ",
"            _$`$a$b$c$d$                        ",
"                                                ",
"                                                "};